<svg xmlns="http://www.w3.org/2000/svg" viewBox="0 0 640 480"><defs><style>.cls-1{fill:#928440;}.cls-2{fill:#fff;}</style></defs><g id="Capa_2" data-name="Capa 2"><g id="Capa_1-2" data-name="Capa 1"><rect class="cls-1" width="640" height="480" rx="54.28"/><g id="_6SBxC9.tif" data-name="6SBxC9.tif"><path class="cls-2" d="M318.77,85a10.61,10.61,0,0,1,4.76,1.46c45,23.49,90.74,47.17,135,70.08L472,163.43q-30.5,15.84-61,31.7c-28.67,14.92-58.32,30.34-87.49,45.47a34.33,34.33,0,0,1-4.42,1.77,25.41,25.41,0,0,1-3.33-1.26c-27.7-14.37-55.85-29-83.08-43.17q-33.19-17.26-66.42-34.52l22.92-11.91c40.92-21.27,83.24-43.26,124.77-65.08A10.75,10.75,0,0,1,318.77,85m0-12a22.05,22.05,0,0,0-10.39,2.86q-74.16,39-148.58,77.45c-4.11,2.14-7.61,4.54-7.74,9.82-.15,5.58,3.33,8.21,7.72,10.49Q235,212.63,310.24,251.76c2.69,1.39,5.72,2.13,9,3.31,3.31-1.27,6.73-2.22,9.81-3.82Q403.42,212.67,477.72,174c4.54-2.36,8.57-5.05,8.43-10.82-.13-5.43-4-8-8.33-10.21q-74.42-38.49-148.73-77.17A22,22,0,0,0,318.77,73Z"/><path class="cls-2" d="M188.61,227.32a7.21,7.21,0,0,1,1.41.6c15.48,8.18,31.24,16.4,46.48,24.35,18.37,9.58,37.36,19.48,55.95,29.36,9,4.78,17.67,7.1,26.52,7.1a54.56,54.56,0,0,0,25.84-6.88c19.18-10.25,38.83-20.49,57.82-30.39,14.62-7.62,29.73-15.49,44.56-23.34a6.92,6.92,0,0,1,1.82-.75,4.7,4.7,0,0,1,.93.43c3.69,2.09,7.42,3.93,11,5.71s7.07,3.49,10.3,5.35c-29.54,15.6-59.66,31.27-88.8,46.44L358,298l-10.36,5.38c-8.24,4.26-16.76,8.68-25.12,13.16a6.79,6.79,0,0,1-3.35,1,8.3,8.3,0,0,1-3.69-1.15c-48.05-25.16-96-50.08-149.1-77.69l.8-.4c6.8-3.35,13.82-6.81,20.66-10.68a4.46,4.46,0,0,1,.77-.37m0-12a13.34,13.34,0,0,0-6.64,1.94c-7.13,4-14.52,7.63-21.87,11.26-4.4,2.17-8,4.7-8,10.3s3.78,8,8.11,10.26q74.91,38.93,149.75,78a19.81,19.81,0,0,0,9.26,2.52,18.86,18.86,0,0,0,9-2.47c11.72-6.28,23.57-12.33,35.36-18.47C401.68,288.81,439.85,269,477.86,249c3.48-1.84,6-5.53,10.09-9.47-3.86-4.38-5.94-8.16-9.14-10.09-7.38-4.46-15.44-7.77-22.95-12a13.67,13.67,0,0,0-6.82-2,15.92,15.92,0,0,0-7.46,2.15c-34.08,18-68.42,35.58-102.43,53.76A42.33,42.33,0,0,1,319,276.73c-6.92,0-13.82-1.94-20.89-5.7-34.05-18.09-68.36-35.71-102.45-53.72a15.08,15.08,0,0,0-7-2Z"/><path class="cls-2" d="M448.89,304c.13.06.33.15.59.3,3.45,1.93,6.92,3.65,10.28,5.3,4,2,7.87,3.88,11.37,6-50.39,26.58-100.93,52.8-149.82,78.16a15.52,15.52,0,0,1-2.11.68,30.44,30.44,0,0,1-3.85-1.54c-27.14-14.08-54.73-28.42-81.41-42.29q-33.78-17.56-67.56-35.11l1.63-.8c6.25-3.06,12.71-6.23,19-9.92a4.43,4.43,0,0,1,1.56-.67,5.76,5.76,0,0,1,2.2.84c16.1,8.54,32.52,17.1,48.39,25.38,17.55,9.16,35.7,18.63,53.45,28.07,8.92,4.76,17.53,7.07,26.3,7.07a54.84,54.84,0,0,0,26.05-7c20.35-10.93,41.22-21.79,61.4-32.29,13.63-7.09,27.73-14.42,41.57-21.73a8.31,8.31,0,0,1,1-.44m0-12a14,14,0,0,0-6.61,1.88c-34.31,18.11-68.88,35.7-103,54.06-7,3.74-13.68,5.58-20.37,5.58s-13.64-1.92-20.66-5.66c-33.85-18-68-35.5-101.86-53.47a16.58,16.58,0,0,0-7.82-2.23,14.91,14.91,0,0,0-7.64,2.32c-6.87,4-14.1,7.47-21.25,11-4.22,2.08-7.54,4.61-7.6,9.87s3.07,7.89,7.29,10.08q75.24,39.06,150.46,78.17a85.23,85.23,0,0,0,9,3.48c3-1,5.73-1.42,8-2.62q76.14-39.49,152.1-79.35c2.94-1.55,6.12-6,6-9.06-.12-3.39-3.09-7.81-6.13-9.74-7.44-4.74-15.75-8.1-23.48-12.43a13,13,0,0,0-6.42-1.88Z"/></g><path class="cls-2" d="M375.56,189.46a2.14,2.14,0,0,0-.48-.83,3.66,3.66,0,0,0,0-1.84,17.57,17.57,0,0,0-.78-2c-.11-.25-.22-.5-.32-.76a7.9,7.9,0,0,1-.27-.82,6.61,6.61,0,0,0-1.08-2.39c0-.12,0-.24,0-.36,0-.74.06-1.51.06-2.29a2.42,2.42,0,0,0-.95-1.84c-.34-.3-.69-.57-1-.84l-.42-.33c-.73-.58-1.15-1-1.24-1.53v0a4,4,0,0,0,.17-1.91,3.23,3.23,0,0,0,1.23-2.21,25.45,25.45,0,0,0,.24-4.34,15.55,15.55,0,0,0-.3-2.51l.06-.06-.11-.11a6.61,6.61,0,0,0-.4-1.42c-.22-.5.19-1.4.58-2.27l.06-.13a3.59,3.59,0,0,0,.4-1.89c0-.21,0-.42-.05-.63a10,10,0,0,0-.62-3.08,7,7,0,0,0-2-3c-.47-.39-.95-.77-1.41-1.13s-.82-.63-1.21-1l-.12-.09-.29-.25a7.36,7.36,0,0,0-3.74-3.18,9.5,9.5,0,0,1-1.47-.83,2,2,0,0,0-1.28-.38,3,3,0,0,0-2,.38c-1.78-1.24-4.37-1.77-6.09-.65a1.18,1.18,0,0,0-.22.17l-.52,0-.8,0a2.52,2.52,0,0,0,.15-.34,2.68,2.68,0,0,0,.83-1.33,1.73,1.73,0,0,0-.28-1.61,1.54,1.54,0,0,0-.25-.26,2.1,2.1,0,0,0,.21-1.07,2.82,2.82,0,0,0-1.14-2,3.16,3.16,0,0,0-.77-.45,2.47,2.47,0,0,0-.85-.69,3.62,3.62,0,0,0-1.53-.29h-.08a2.2,2.2,0,0,0-1.42-.6,3.87,3.87,0,0,0-3.11-1.67,1.75,1.75,0,0,0-1.33.6h-.09c-.22-.18-.46-.37-.73-.56a3.08,3.08,0,0,0-3.25-.54.3.3,0,0,0,0-.08,3.52,3.52,0,0,0-.59-.81H335a1.76,1.76,0,0,0,1.31-.72c.13,0,.37-.07.54-.1a3.94,3.94,0,0,0,3.27-2,1.75,1.75,0,0,0-1.77-2.56l-.53.07a6,6,0,0,1-.71.09c-1.09.06-2,.11-2.92.12-.44,0-.89,0-1.36,0l-1.26,0a2.62,2.62,0,0,0-1.54.56s-.09.06-.54,0a4.19,4.19,0,0,0-2.86.44,3.25,3.25,0,0,1-1.33.36,10,10,0,0,0-1,.17,7.44,7.44,0,0,1-1.8,0c-.42,0-.86,0-1.31,0-.69,0-1.35.07-2,.13l-.42,0a2.07,2.07,0,0,0-1.17.53h0a1.74,1.74,0,0,0-.46,2.26l.08.14c-.17.17-.34.35-.5.54a2.84,2.84,0,0,0-2.64,1.55,12.83,12.83,0,0,1-3.17,0,13.33,13.33,0,0,1-4.6-1.53,1.76,1.76,0,0,0-.21-1.1,1.79,1.79,0,0,0-1.42-.88c-.3,0-.58,0-.85-.06a17.15,17.15,0,0,0-1.9-.07c-2,.06-3.6.16-5.15.31a3.75,3.75,0,0,0-1.41.47l-.26.12c-1.4.29-2.84.56-4.22.82l-1.54.29c-.87.17-1.14,0-1.34-.37a1.75,1.75,0,0,0-.09-2v0a4.53,4.53,0,0,0-2.1-2.88c-.22-.13-.43-.28-.66-.43a8.12,8.12,0,0,0-5.08-1.83,7,7,0,0,0-4.15-.17l-.37-1c-.12-.34-.25-.67-.38-1,0-.13-.09-.26-.14-.38a14,14,0,0,0-.65-1.53,2.93,2.93,0,0,0-1.91-1.47,2.89,2.89,0,0,0-2.36.39l-.19.13a4.41,4.41,0,0,0-2.06,2.55,3.42,3.42,0,0,0,.3,2.9v0a3.18,3.18,0,0,0,.34,1.45l-1.28.54h0l-.12.06a10.47,10.47,0,0,0-5.13,2c-.21.13-.39.28-.55.4l-.24.19a2,2,0,0,0-1.13,0,2.23,2.23,0,0,0-.27-.26,8.42,8.42,0,0,0-.77-.57,4.15,4.15,0,0,1-.54-.41c-.2-.36-.32-.61-.4-.79a2.58,2.58,0,0,1,.45-.1l.15,0a6.76,6.76,0,0,0,1.51-.37,7.45,7.45,0,0,0,1.69-.94,2.19,2.19,0,0,0,.85-1.52.13.13,0,0,0,0-.06,1.73,1.73,0,0,0-.26-1.48,1.75,1.75,0,0,0-1.36-.72H261a2.8,2.8,0,0,0-1.24.09c-.69.23-1.36.49-2,.74l-.43.17-.36.13c-1.33.5-3.15,1.17-3.93,3.34a9.38,9.38,0,0,1-.56,1.19l-.24.47-.09.19a3,3,0,0,0-2,1.42,10,10,0,0,0-.78,1.34l-.12.22c-.22.42-.43.84-.63,1.25l-.13.28-.15.35-.06.13a7,7,0,0,0-1.35,4.44,2.33,2.33,0,0,1-.07.43,6.76,6.76,0,0,0-.12.76c0,.34-.05.65-.06.95s0,.48,0,.7v.06c-.15.28-.28.55-.4.82a4.32,4.32,0,0,1-.92,1.48,1.85,1.85,0,0,0-.49.67l-.21.44c-.23.5-.48,1-.71,1.53a2.23,2.23,0,0,0,.08,1.87,2,2,0,0,0,2.51.86l1.17-.53a2.46,2.46,0,0,0,1.46.79,10.17,10.17,0,0,0,2.91,5.13,3.59,3.59,0,0,1,.22.57l.09.26a.86.86,0,0,1,0,.13,3.65,3.65,0,0,0-.59,2.54c.07.91.12,1.8.15,2.56a2.66,2.66,0,0,0,2.28,2.63l.45.06a3.94,3.94,0,0,0,1.34,2.13,3.82,3.82,0,0,0,3.38.78l.33-.08a4.43,4.43,0,0,1,1.7-.25,9.41,9.41,0,0,0,2.12,0l.63,0a2.19,2.19,0,0,0,1.31.43,2.56,2.56,0,0,0,2-1.08,2.88,2.88,0,0,1,.47-.12h0c.45-.11.84.06,1.7.5l.45.22a2.9,2.9,0,0,0,2.26.25c.6.71,1.23,1.39,1.84,2.06.22.24.45.48.67.73l.83.88a14.11,14.11,0,0,1,1.45,1.64,2.53,2.53,0,0,0,2.26,1.21l.33.23a1.75,1.75,0,0,0,2.73-1.1l.72.1.73.1.32,0a5.26,5.26,0,0,0,2.94-.19l.21-.1.09,0a4.9,4.9,0,0,0,2.67-.34,2.79,2.79,0,0,0,2.1-.48l.14-.08.38-.2.2-.11a1.8,1.8,0,0,1,.68,0,5.07,5.07,0,0,0-1.23,3.85,3.2,3.2,0,0,0-1.57,2.3,5.15,5.15,0,0,0,.18,2.07,6,6,0,0,1,.11,2.79,3.92,3.92,0,0,0,.45,3c.18.3.17.36.16.42a3.08,3.08,0,0,0,.68,2.41,3.72,3.72,0,0,0,.56.61,6.64,6.64,0,0,0,.37,1.48,2.91,2.91,0,0,0,1.43,1.82,2.32,2.32,0,0,0,.37.13,3.67,3.67,0,0,0,.59,1.09c-.6.61-1.24,1.21-1.86,1.8l-1.21,1.15a3.77,3.77,0,0,0-.51.65l-.18.26a1.75,1.75,0,0,0,1.52,2.77l.47,0,.29,0h.3a2.38,2.38,0,0,0,1.27,1,2.72,2.72,0,0,0,.44.14c.26.2.52.42.8.65l.69.58a3,3,0,0,0,.18,1.16,5.1,5.1,0,0,0,.41.87,2,2,0,0,1,.21.47,6.72,6.72,0,0,0,.93,2.42c.15.26.29.51.39.73a7,7,0,0,1,.34,1,6.42,6.42,0,0,0,1.89,3.36c.86.72,1.79,1.45,3,2.36l.23.18a4.43,4.43,0,0,0,3.15,1.12h0a4.52,4.52,0,0,0,3.44-1.69l.06-.07a3,3,0,0,0,.19.88,2,2,0,0,0,1.28,1.12,2.66,2.66,0,0,0,.87.11,2,2,0,0,0,1-.32,3.7,3.7,0,0,0,1.21-1.33,4,4,0,0,0,.23-.54,2.3,2.3,0,0,0,.8-.32,2.59,2.59,0,0,0,1-2h0c.37-.22.79-.42,1.23-.64l.18-.09a3.29,3.29,0,0,0,2.95-1.47,5.21,5.21,0,0,1,.46-.52,2,2,0,0,0,1.68-.34,2.43,2.43,0,0,1,.25-.2,4.16,4.16,0,0,0,2.06-3.89,10.17,10.17,0,0,0,2.94-1.41c.83-.13,2.58-.72,2.52-3.44a2.5,2.5,0,0,0-.73-1.82,3.13,3.13,0,0,0-2.32-.68l-2.49,0a2.09,2.09,0,0,0,0-.25,5.29,5.29,0,0,0-1.77-3.65l-.09-.09c-.33-.35-.36-.79-.35-1.77V189a6.19,6.19,0,0,0-.29-2,1.82,1.82,0,0,0,1.42-.42,1.93,1.93,0,0,1,.65-.18c.17,0,.35-.06.55-.11l.1,0a2.26,2.26,0,0,0,2,.64,2.13,2.13,0,0,0,.93-.44c.81.72,1.53,1.31,2.22,1.85a2.86,2.86,0,0,0,2.61.34,3,3,0,0,0,1.74-3.78,2.4,2.4,0,0,0,1.34-1l.17.06a3.56,3.56,0,0,0,2.3.2,6.4,6.4,0,0,0,.85-.38l.26-.13a2.15,2.15,0,0,0,2-.78.27.27,0,0,1,.29-.12,2.56,2.56,0,0,0,2.06-.68,2.38,2.38,0,0,0,.61-1,2.28,2.28,0,0,0,1.33-.89,4.14,4.14,0,0,0,1.28-.11,3,3,0,0,0,2.06-2.1,4.12,4.12,0,0,0,2.4-2.77l.07,0a3.85,3.85,0,0,0,.61-.28l.11.14a3.07,3.07,0,0,0-.08.9,1.85,1.85,0,0,1-.39,1.21,2.64,2.64,0,0,0-.3,2.57A2.22,2.22,0,0,0,355.7,181c.4.05.76.06,1.12.08a6.67,6.67,0,0,1,.94.07,3.11,3.11,0,0,0,.27,1.08,2.52,2.52,0,0,0,.79,1l.09.23a1.77,1.77,0,0,0,.06.17,1.66,1.66,0,0,0-.42.63,2.85,2.85,0,0,0-1,.7l-.11.12a2.52,2.52,0,0,0-.91,1.84,2.19,2.19,0,0,0,.59,1.43c-.08.39-.18.8-.28,1.2a2.39,2.39,0,0,1-.13.37,5.86,5.86,0,0,0-.3,1c-.13.75-.17,1.5-.22,2.16a3.83,3.83,0,0,0,.17,1.6c0,.12.08.29.12.47a5.36,5.36,0,0,0,.5,1.41,1.63,1.63,0,0,0-.11.85,1.74,1.74,0,0,0,.82,1.27l.18.12a3.39,3.39,0,0,0,1,.51,3.39,3.39,0,0,1,0,.6c0,.15,0,.26,0,.32s0,.21,0,.34a3.18,3.18,0,0,0,1.61,3.13,1.81,1.81,0,0,0,.32.27c.45.3.85.55,1.22.77a4.29,4.29,0,0,0,.46.21,5.91,5.91,0,0,0,2.95,1.62,6.27,6.27,0,0,1,.8.26l.06.05a3.61,3.61,0,0,0,.77.6c.42.23.84.44,1.25.64s.69.33,1,.51a2.13,2.13,0,0,0,3.28-2c0-.35,0-.68-.07-1s-.06-.59-.06-.84a.19.19,0,0,1,0-.07A6.13,6.13,0,0,0,374,200.2l0-.15c-.05-.4-.05-.49,0-.54l.07-.12.12-.2a2.93,2.93,0,0,0,1.49-2.31,4.14,4.14,0,0,0-.22-1.45,8.3,8.3,0,0,0,.14-.85,2.34,2.34,0,0,1,.18-.77,2.09,2.09,0,0,0,.44-2.1C376,191,375.8,190.24,375.56,189.46Zm-12.1,12.1-.54-.33a1.92,1.92,0,0,0-.59-.5v-.11c0-.15,0-.32,0-.5a5.14,5.14,0,0,0-.28-2.18l9.49-9.41a2.2,2.2,0,0,0,.84,2.46q.17.58.3,1.14a3.12,3.12,0,0,0-.18.48Zm-1.27-19.31c0-.09-.07-.18-.09-.25a.66.66,0,0,0,0-.14,1.61,1.61,0,0,0-.21-.65l4.75-4.71a8.22,8.22,0,0,0,1.46,1.42l.44.35.28.23-6.56,6.5A3.69,3.69,0,0,0,362.19,182.25Zm-2.14,12.62a3.34,3.34,0,0,1-.15-.52,7.42,7.42,0,0,0-.21-.76c0-.07,0-.21,0-.26a17.14,17.14,0,0,1,.18-1.8,2.28,2.28,0,0,1,.13-.41s0-.1.05-.15l9.14-9.06a2,2,0,0,0,.51,1,2.82,2.82,0,0,1,.62,1.35,10,10,0,0,0,.39,1.17l0,.1-10,9.94A1.86,1.86,0,0,0,360.05,194.87ZM367.46,157l-.09.23-.06.12c-.61,1.35-1.44,3.19-.6,5.12L357,172.14a2.66,2.66,0,0,0-.56-.55l-.35-4.79-.09-.29,10.95-12.36c0,.09.07.14.11.24a6.87,6.87,0,0,1,.37,2.06C367.43,156.64,367.45,156.82,367.46,157Zm-4-6.28c.42.35.85.68,1.27,1l.45.35L354.69,163.9a41.06,41.06,0,0,1-1.7-4.18l9.47-10a5.39,5.39,0,0,0,.87.9Zm-6-3.33a5.31,5.31,0,0,0,.68-.46l.22-.16a15.52,15.52,0,0,0,1.58.85l.53.3-8.36,8.79a20.45,20.45,0,0,1-.4-2.21,8.28,8.28,0,0,1,3-8,2,2,0,0,1,.51.41A1.74,1.74,0,0,0,357.47,147.4Zm-86.25-25.11c0-.09.1-.17.29-.32.08.19.15.38.23.58s.09.24.13.35l-.44.11a2.1,2.1,0,0,0-.27-.51C271.18,122.42,271.21,122.34,271.22,122.29Zm-10.81,9.63a21.07,21.07,0,0,0,2.51,3,8,8,0,0,1,1.13,1.66,14.27,14.27,0,0,0,2.95,3.84,4.87,4.87,0,0,0,.48.74,8.67,8.67,0,0,1-.1,1.57c-.05.47-.12,1-.15,1.59a4.93,4.93,0,0,1-.94,3.21,5.83,5.83,0,0,1-3,2.12,4.69,4.69,0,0,0,0-.53c-.12-2.76-2.3-4.23-3.23-4.86-.51-.34-1-.61-1.44-.85l-.66-.38a5,5,0,0,0-2.05-3.42C257.45,136.93,258.94,134.4,260.41,131.92Zm97.7,43.85,0-.16a4.15,4.15,0,0,0,.14-.69,2.13,2.13,0,0,0,0-.25l8.88-8.81a21.84,21.84,0,0,1-.16,3,2.91,2.91,0,0,0-.54.16l-.21.07a1.74,1.74,0,0,0-.68,2.94c.22.21.27.26.07.7a1.78,1.78,0,0,0-.14,1.08l-4.87,4.82a2.27,2.27,0,0,0-1.37-.74l-.34-.08a7,7,0,0,0-1-.18A4.92,4.92,0,0,0,358.11,175.77Zm11.48,26.95a3.57,3.57,0,0,0-.64,1.85l-.18-.09a.6.6,0,0,0-.08-.08,3.35,3.35,0,0,0-.94-.69,9.22,9.22,0,0,0-1.39-.48l-.56-.19,5.05-5a4.32,4.32,0,0,0-.33,2.48l0,.13C370.62,201.27,370.27,201.78,369.59,202.72Z"/></g></g></svg>