<svg xmlns="http://www.w3.org/2000/svg" viewBox="0 0 335.9 334.09" version="1.1" id="svg848"><defs id="defs835"><style id="style833">.cls-1{fill:#928440}</style></defs><g id="Capa_1-2" data-name="Capa 1"><g id="_6SBxC9.tif" data-name="6SBxC9.tif"><path class="cls-1" d="M166.72 12a10.7 10.7 0 0 1 4.76 1.45c45 23.49 90.74 47.18 135 70.09l13.42 6.94-61 31.7c-28.67 14.91-58.32 30.34-87.49 45.47a35.85 35.85 0 0 1-4.42 1.77 24.1 24.1 0 0 1-3.34-1.27c-27.7-14.36-55.85-29-83.07-43.16q-33.15-17.26-66.36-34.52l22.92-11.91c40.92-21.27 83.24-43.26 124.77-65.08a10.59 10.59 0 0 1 4.81-1.48m0-12a22.15 22.15 0 0 0-10.39 2.85Q82.15 41.82 7.74 80.31C3.63 82.44.14 84.84 0 90.12c-.15 5.58 3.33 8.22 7.72 10.5Q83 139.68 158.19 178.81c2.69 1.39 5.72 2.12 9 3.31 3.32-1.27 6.74-2.22 9.82-3.82q74.36-38.58 148.66-77.3c4.54-2.36 8.57-5 8.43-10.83-.13-5.42-4-8-8.33-10.2Q251.36 41.5 177 2.82A22 22 0 0 0 166.72 0Z" id="path837"/><path class="cls-1" d="M296.84 231.07a5.48 5.48 0 0 1 .59.3c3.45 1.93 6.92 3.64 10.28 5.3 4 2 7.87 3.88 11.37 6-50.39 26.57-100.93 52.79-149.82 78.16a15.84 15.84 0 0 1-2.11.67 32.12 32.12 0 0 1-3.85-1.5c-27.15-14.08-54.73-28.42-81.41-42.29q-33.78-17.56-67.57-35.11l1.63-.8c6.25-3.07 12.72-6.24 19-9.92a4.28 4.28 0 0 1 1.56-.68 5.76 5.76 0 0 1 2.2.84c16.1 8.54 32.52 17.11 48.39 25.39 17.55 9.16 35.7 18.62 53.44 28.07 8.93 4.75 17.53 7.06 26.31 7.06a54.82 54.82 0 0 0 26.05-7c20.35-10.93 41.22-21.79 61.4-32.29 13.63-7.09 27.73-14.43 41.57-21.73a5.84 5.84 0 0 1 1-.44m0-12a14.1 14.1 0 0 0-6.62 1.88C256 239 221.39 256.6 187.22 275c-7 3.74-13.68 5.57-20.37 5.57-6.69 0-13.64-1.91-20.67-5.65-33.84-18-68-35.5-101.85-53.47a16.6 16.6 0 0 0-7.82-2.24 14.92 14.92 0 0 0-7.64 2.33c-6.87 4-14.1 7.47-21.25 11-4.23 2.04-7.54 4.57-7.62 9.82-.08 5.25 3.08 7.9 7.3 10.09q75.24 39 150.46 78.17a82.22 82.22 0 0 0 9 3.47c3-1 5.72-1.42 8-2.61q76.14-39.51 152.1-79.36c2.94-1.55 6.12-6 6-9.05-.12-3.39-3.1-7.81-6.13-9.74-7.44-4.74-15.75-8.1-23.48-12.43a12.94 12.94 0 0 0-6.42-1.88z" id="path841"/><path class="cls-1" d="M296.84 155.07a5.48 5.48 0 0 1 .59.3c3.45 1.93 6.92 3.64 10.28 5.3 4 2 7.87 3.88 11.37 6-50.39 26.57-100.93 52.79-149.82 78.16a15.84 15.84 0 0 1-2.11.67 32.12 32.12 0 0 1-3.85-1.5c-27.15-14.08-54.73-28.42-81.41-42.29q-33.78-17.56-67.57-35.11l1.63-.8c6.25-3.07 12.72-6.24 19-9.92a4.28 4.28 0 0 1 1.56-.68 5.76 5.76 0 0 1 2.2.84c16.1 8.54 32.52 17.11 48.39 25.39 17.55 9.16 35.7 18.62 53.44 28.07 8.93 4.75 17.53 7.06 26.31 7.06a54.82 54.82 0 0 0 26.05-7c20.35-10.93 41.22-21.79 61.4-32.29 13.63-7.09 27.73-14.43 41.57-21.73a5.84 5.84 0 0 1 1-.44m0-12a14.1 14.1 0 0 0-6.62 1.88C256 163 221.39 180.6 187.22 199c-7 3.74-13.68 5.57-20.37 5.57-6.69 0-13.64-1.91-20.67-5.65-33.84-18-68-35.5-101.85-53.47a16.6 16.6 0 0 0-7.82-2.24 14.92 14.92 0 0 0-7.64 2.33c-6.87 4-14.1 7.47-21.25 11-4.23 2.04-7.54 4.57-7.62 9.82-.08 5.25 3.08 7.9 7.3 10.09q75.24 39 150.46 78.17a82.22 82.22 0 0 0 9 3.47c3-1 5.72-1.42 8-2.61q76.14-39.51 152.1-79.36c2.94-1.55 6.12-6 6-9.05-.12-3.39-3.1-7.81-6.13-9.74-7.44-4.74-15.75-8.1-23.48-12.43a12.94 12.94 0 0 0-6.42-1.88z" id="path860"/></g><path class="cls-1" d="M223.51 116.51a2.07 2.07 0 0 0-.48-.83 3.66 3.66 0 0 0 0-1.84 15.82 15.82 0 0 0-.77-2c-.11-.26-.22-.51-.32-.76s-.18-.52-.27-.82a6.61 6.61 0 0 0-1.08-2.39v-.36c0-.74.06-1.51.06-2.29a2.43 2.43 0 0 0-1-1.84c-.34-.3-.7-.58-1-.84l-.42-.33c-.72-.59-1.14-1-1.24-1.53a3.83 3.83 0 0 0 .16-1.91 3.21 3.21 0 0 0 1.24-2.21 25.62 25.62 0 0 0 .24-4.35 15.81 15.81 0 0 0-.3-2.51h.06l-.11-.11a6.61 6.61 0 0 0-.4-1.42c-.23-.5.18-1.4.58-2.27l.06-.13a3.63 3.63 0 0 0 .4-1.9c0-.21 0-.41-.05-.62a10.14 10.14 0 0 0-.62-3.09 7.07 7.07 0 0 0-2-3c-.47-.39-1-.76-1.41-1.12-.41-.36-.82-.64-1.21-1l-.12-.09-.29-.25a7.31 7.31 0 0 0-3.75-3.19 9.38 9.38 0 0 1-1.46-.82 2 2 0 0 0-1.28-.38 3 3 0 0 0-2 .38c-1.78-1.24-4.38-1.77-6.09-.66a1.84 1.84 0 0 0-.22.17h-1.32a2.63 2.63 0 0 0 .15-.35 2.6 2.6 0 0 0 .83-1.32 1.75 1.75 0 0 0-.28-1.61 1.6 1.6 0 0 0-.25-.27 1.93 1.93 0 0 0 .2-1.06 2.84 2.84 0 0 0-1.13-2 3.48 3.48 0 0 0-.77-.44 2.47 2.47 0 0 0-.85-.69 3.47 3.47 0 0 0-1.53-.29h-.09a2.11 2.11 0 0 0-1.41-.6 3.85 3.85 0 0 0-3.11-1.67 1.74 1.74 0 0 0-1.33.59h-.09c-.22-.19-.46-.37-.73-.56a3.06 3.06 0 0 0-3.25-.54v-.08a3.84 3.84 0 0 0-.59-.81h.11a1.74 1.74 0 0 0 1.31-.71 3.49 3.49 0 0 1 .54-.1 3.94 3.94 0 0 0 3.27-2 1.75 1.75 0 0 0-1.77-2.55l-.53.07c-.29 0-.52.08-.71.09-1.09.06-2 .1-2.93.12h-2.66a2.62 2.62 0 0 0-1.54.55s-.09.07-.54 0a4.14 4.14 0 0 0-2.86.44 3.27 3.27 0 0 1-1.34.35c-.31.05-.64.1-1 .18a7 7 0 0 1-1.8 0h-1.31c-.69 0-1.35.08-2 .13h-.42a2 2 0 0 0-1.17.53 1.75 1.75 0 0 0-.46 2.27l.08.14c-.17.17-.34.34-.5.53a2.86 2.86 0 0 0-2.64 1.58 13.34 13.34 0 0 1-3.17 0 13.13 13.13 0 0 1-4.6-1.54 1.74 1.74 0 0 0-1.63-2l-.85-.06a15 15 0 0 0-1.9-.07c-2 .06-3.61.16-5.15.31a3.76 3.76 0 0 0-1.41.46l-.26.13c-1.4.29-2.84.56-4.23.82l-1.53.29c-.87.17-1.14 0-1.34-.38a1.76 1.76 0 0 0-.09-2 4.51 4.51 0 0 0-2.1-2.88l-.66-.44a8.18 8.18 0 0 0-5.08-1.87 6.93 6.93 0 0 0-4.15-.17l-.37-1c-.12-.34-.25-.68-.38-1 0-.13-.1-.26-.14-.39a14.75 14.75 0 0 0-.65-1.52 3 3 0 0 0-4.31-1.05l-.19.13a4.38 4.38 0 0 0-2.06 2.55 3.35 3.35 0 0 0 .3 2.9 2.88 2.88 0 0 0 .34 1.44l-1.28.55-.13.05a10.67 10.67 0 0 0-5.12 2c-.21.14-.39.28-.55.41a2.15 2.15 0 0 1-.24.18 2.1 2.1 0 0 0-1.14.05 1.72 1.72 0 0 0-.27-.27 8.15 8.15 0 0 0-.76-.56 5.6 5.6 0 0 1-.55-.41c-.19-.36-.31-.61-.4-.8l.45-.09h.16a7.58 7.58 0 0 0 1.51-.38 7.49 7.49 0 0 0 1.69-.94 2.18 2.18 0 0 0 .85-1.51.13.13 0 0 0 0-.06 1.73 1.73 0 0 0-1.62-2.2h-.1a2.63 2.63 0 0 0-1.24.08c-.69.24-1.36.5-2 .75l-.44.16-.35.14c-1.33.49-3.15 1.17-3.93 3.33a8.4 8.4 0 0 1-.57 1.2c-.09.16-.16.32-.23.46s-.06.13-.09.2a2.94 2.94 0 0 0-2 1.42 9.51 9.51 0 0 0-.78 1.33l-.12.23c-.22.42-.43.84-.63 1.25l-.13.27-.18.38-.06.13a7 7 0 0 0-1.35 4.44 3.7 3.7 0 0 1-.07.43c0 .22-.1.47-.13.76-.03.29 0 .64 0 1v.7c-.14.28-.27.56-.39.82a4.28 4.28 0 0 1-.92 1.49 1.85 1.85 0 0 0-.49.67l-.21.43c-.23.5-.48 1-.71 1.54a2.14 2.14 0 0 0 .08 1.86 2 2 0 0 0 2.51.86l1.17-.52a2.42 2.42 0 0 0 1.37.79 10.26 10.26 0 0 0 2.92 5.14 4.29 4.29 0 0 1 .22.57l.09.25v.13a3.68 3.68 0 0 0-.58 2.51c.07.91.11 1.81.15 2.56a2.68 2.68 0 0 0 2.28 2.64 3.47 3.47 0 0 0 .45.06 3.88 3.88 0 0 0 1.34 2.13 3.82 3.82 0 0 0 3.38.78l.33-.09a4.22 4.22 0 0 1 1.7-.24 9.41 9.41 0 0 0 2.12 0h.63a2.19 2.19 0 0 0 1.31.44 2.58 2.58 0 0 0 2-1.08 4 4 0 0 1 .46-.13c.45-.11.84.06 1.7.49l.45.23a2.91 2.91 0 0 0 2.26.24c.6.72 1.23 1.4 1.84 2.06.22.25.45.49.67.73.22.24.56.6.83.88a14.28 14.28 0 0 1 1.45 1.65 2.53 2.53 0 0 0 2.26 1.21l.33.23a1.75 1.75 0 0 0 2.73-1.11l.72.11.73.1h.32a5.27 5.27 0 0 0 2.94-.2l.21-.09h.09a4.9 4.9 0 0 0 2.67-.33 2.88 2.88 0 0 0 2.1-.48l.13-.08.39-.2.2-.11a1.73 1.73 0 0 1 .67 0 5.06 5.06 0 0 0-1.22 3.84 3.21 3.21 0 0 0-1.57 2.31 5.1 5.1 0 0 0 .18 2.06 5.93 5.93 0 0 1 .1 2.8 3.93 3.93 0 0 0 .46 3c.18.29.17.36.16.42a3.12 3.12 0 0 0 .67 2.41 4.22 4.22 0 0 0 .57.61 6.13 6.13 0 0 0 .37 1.48 3 3 0 0 0 1.43 1.82 3.19 3.19 0 0 0 .37.13 3.67 3.67 0 0 0 .59 1.09c-.61.6-1.24 1.21-1.86 1.79l-1.21 1.16a3.43 3.43 0 0 0-.51.65l-.18.26a1.74 1.74 0 0 0 1.52 2.77h1.06a2.43 2.43 0 0 0 1.27 1 1.91 1.91 0 0 0 .44.13l.8.66.69.57a2.61 2.61 0 0 0 .18 1.16 4.89 4.89 0 0 0 .41.88 1.62 1.62 0 0 1 .2.46 6.76 6.76 0 0 0 .94 2.42c.15.27.29.51.39.74a7 7 0 0 1 .34 1 6.43 6.43 0 0 0 1.89 3.35c.85.73 1.79 1.46 3 2.37l.23.17a4.41 4.41 0 0 0 3.15 1.13 4.55 4.55 0 0 0 3.43-1.69l.07-.08a2.85 2.85 0 0 0 .19.88 2 2 0 0 0 1.28 1.13 2.42 2.42 0 0 0 .87.1 1.89 1.89 0 0 0 1-.32 3.62 3.62 0 0 0 1.21-1.33 3.49 3.49 0 0 0 .23-.54 2.07 2.07 0 0 0 .79-.32 2.51 2.51 0 0 0 1-2c.38-.22.8-.43 1.24-.64l.18-.1a3.28 3.28 0 0 0 3-1.46 4.29 4.29 0 0 1 .46-.52 2 2 0 0 0 1.67-.35l.26-.19a4.13 4.13 0 0 0 2.05-3.89 10.26 10.26 0 0 0 2.95-1.42c.83-.12 2.58-.72 2.52-3.44a2.49 2.49 0 0 0-.73-1.81 3.06 3.06 0 0 0-2.33-.68h-2.48v-.26a5.21 5.21 0 0 0-1.78-3.64l-.08-.09c-.33-.35-.36-.79-.35-1.77v-.58a6 6 0 0 0-.28-2 1.78 1.78 0 0 0 1.42-.42 2 2 0 0 1 .65-.17l.55-.11h.1a2.23 2.23 0 0 0 2 .63 2 2 0 0 0 .92-.43c.82.71 1.54 1.31 2.22 1.84a2.89 2.89 0 0 0 2.62.35 3 3 0 0 0 1.7-3.72 2.32 2.32 0 0 0 1.35-1l.17.06a3.57 3.57 0 0 0 2.3.19 6.49 6.49 0 0 0 .85-.37l.25-.13a2.18 2.18 0 0 0 2-.78.27.27 0 0 1 .29-.12 2.55 2.55 0 0 0 2.06-.69 2.29 2.29 0 0 0 .61-1 2.28 2.28 0 0 0 1.33-.89 4.86 4.86 0 0 0 1.28-.11 3 3 0 0 0 2.06-2.1 4.12 4.12 0 0 0 2.4-2.77h.07a5.82 5.82 0 0 0 .61-.28l.11.13a3.18 3.18 0 0 0-.08.91 1.8 1.8 0 0 1-.4 1.2 2.68 2.68 0 0 0-.29 2.58 2.22 2.22 0 0 0 1.77 1.31 11.21 11.21 0 0 0 1.12.07 8.69 8.69 0 0 1 .94.08 3.17 3.17 0 0 0 .27 1.08 2.59 2.59 0 0 0 .79 1 2.09 2.09 0 0 1 .08.23l.06.16a1.85 1.85 0 0 0-.41.63 2.77 2.77 0 0 0-1 .71 1.14 1.14 0 0 1-.11.11 2.54 2.54 0 0 0-.91 1.85 2.22 2.22 0 0 0 .59 1.43c-.09.38-.18.79-.28 1.2 0 .09-.07.22-.13.36a6 6 0 0 0-.3 1 19.53 19.53 0 0 0-.22 2.16 3.81 3.81 0 0 0 .16 1.6 3.07 3.07 0 0 1 .13.47 5.44 5.44 0 0 0 .5 1.4 1.67 1.67 0 0 0-.11.86 1.78 1.78 0 0 0 .82 1.27l.18.12a3.66 3.66 0 0 0 1 .51 3.41 3.41 0 0 1 0 .6v.65a3.17 3.17 0 0 0 1.61 3.14 1.81 1.81 0 0 0 .32.27c.45.3.85.55 1.22.76a3.09 3.09 0 0 0 .46.22 5.81 5.81 0 0 0 3 1.61c.29.09.57.17.8.26l.06.06a3.68 3.68 0 0 0 .77.6c.42.23.84.44 1.25.63l1 .51a2.15 2.15 0 0 0 2.27 0 2.19 2.19 0 0 0 1-2.06c0-.34 0-.68-.07-1-.07-.32-.06-.6-.06-.84a.31.31 0 0 1 0-.08 6.09 6.09 0 0 0 1.55-4.53v-.15c-.05-.41-.05-.49 0-.54l.07-.12.12-.21a2.92 2.92 0 0 0 1.49-2.31 4.14 4.14 0 0 0-.22-1.45 7.73 7.73 0 0 0 .14-.84 2 2 0 0 1 .18-.77 2.08 2.08 0 0 0 .43-2.11c-.2-.66-.45-1.45-.69-2.23zm-12.1 12.1-.54-.33a1.91 1.91 0 0 0-.59-.5v-.62A5.15 5.15 0 0 0 210 125l9.49-9.4a2.2 2.2 0 0 0 .84 2.46c.11.38.21.77.3 1.13-.09.17-.12.33-.19.49zm-1.27-19.31a1.61 1.61 0 0 1-.09-.26v-.13a1.7 1.7 0 0 0-.21-.66l4.75-4.7A9 9 0 0 0 216 105l.45.35.28.22-6.53 6.43a3.66 3.66 0 0 0-.06-2.7zM208 121.92c0-.11-.1-.35-.14-.52-.04-.17-.12-.49-.21-.76a2 2 0 0 1 0-.26 17.14 17.14 0 0 1 .18-1.8 2.06 2.06 0 0 1 .13-.41v-.16l9.14-9.05a1.94 1.94 0 0 0 .51 1 2.82 2.82 0 0 1 .62 1.36 12 12 0 0 0 .38 1.16.54.54 0 0 1 .05.11l-10 9.94a1.65 1.65 0 0 0-.66-.61Zm7.42-37.86s0 .13-.1.23l-.05.12c-.61 1.35-1.45 3.19-.6 5.12l-9.73 9.66a2.44 2.44 0 0 0-.56-.55l-.35-4.8-.09-.29 10.94-12.35c0 .09.07.14.11.24a6.75 6.75 0 0 1 .37 2.06c.02.18.03.37.05.56zm-4-6.28c.42.34.85.68 1.27 1l.44.36-10.46 11.8a40 40 0 0 1-1.69-4.17l9.47-10a5.81 5.81 0 0 0 .87.9zm-6-3.33a5.31 5.31 0 0 0 .68-.46l.22-.16a14.53 14.53 0 0 0 1.58.85c.21.11.34.2.53.29l-8.36 8.8c-.17-.73-.31-1.47-.41-2.22a8.31 8.31 0 0 1 3-8 2.33 2.33 0 0 1 .51.42 1.75 1.75 0 0 0 2.25.48zm-86.25-25.11c0-.09.1-.17.29-.32.08.18.15.38.22.57l.14.36-.44.11a2.52 2.52 0 0 0-.27-.51 1.42 1.42 0 0 1 .06-.21zM108.36 59a21.12 21.12 0 0 0 2.51 3 8 8 0 0 1 1.13 1.62 14.22 14.22 0 0 0 3 3.84 4.21 4.21 0 0 0 .48.74 8.57 8.57 0 0 1-.1 1.56c-.06.48-.12 1-.15 1.59a4.94 4.94 0 0 1-.94 3.22 5.76 5.76 0 0 1-3 2.11 4.68 4.68 0 0 0 0-.53c-.12-2.75-2.3-4.22-3.23-4.85a16 16 0 0 0-1.44-.86l-.66-.37a5 5 0 0 0-2-3.42c1.43-2.65 2.92-5.2 4.4-7.65zm97.7 43.86v-.16a4.63 4.63 0 0 0 .14-.69 2.13 2.13 0 0 0 0-.25l8.88-8.81a23.58 23.58 0 0 1-.16 3 4.06 4.06 0 0 0-.54.15l-.21.07a1.76 1.76 0 0 0-.69 3c.23.21.28.26.08.69a1.9 1.9 0 0 0-.15 1.08l-4.86 4.82a2.38 2.38 0 0 0-1.37-.74l-.34-.07a6.08 6.08 0 0 0-1-.18 4.92 4.92 0 0 0 .22-1.95zm11.48 27a3.57 3.57 0 0 0-.64 1.85l-.18-.1-.08-.08a3.35 3.35 0 0 0-.94-.68 9.22 9.22 0 0 0-1.39-.48l-.56-.19 5.05-5a4.32 4.32 0 0 0-.33 2.48v.13c.09.53-.25 1.04-.93 1.98z" id="path844"/></g></svg>