<svg xmlns="http://www.w3.org/2000/svg" viewBox="0 0 373.51 345.61"><defs><style>.cls-1{fill:#928440;}</style></defs><g id="Capa_2" data-name="Capa 2"><g id="Capa_1-2" data-name="Capa 1"><path class="cls-1" d="M372.42,293.89a5.82,5.82,0,0,0,0-1.18,4.7,4.7,0,0,0-1.68-3.18,5.47,5.47,0,0,0,.16-4.13,10.92,10.92,0,0,0-.75-1.72v-.13a5.16,5.16,0,0,0,0-4.28,4.22,4.22,0,0,0-1.83-1.79l-.19-.28a6.17,6.17,0,0,0,0-3,11.6,11.6,0,0,1-.19-1.18,7.27,7.27,0,0,0-1-3.24,4.2,4.2,0,0,0-1-1.06l.16-.62a11.16,11.16,0,0,0,.25-6.88,8.19,8.19,0,0,0-3.18-4,6,6,0,0,0-2.13-1.47l-.22-.1a4.25,4.25,0,0,0-1.43-2.27,3.7,3.7,0,0,0-.6-.44,20.67,20.67,0,0,1-.49-2.68,1.55,1.55,0,0,1,0-.43,7.37,7.37,0,0,0,0-4.11c-.07-.31-.12-.62-.16-.93v-.31c2.26-.53,4.95-1.83,4.95-5.66a22.67,22.67,0,0,1,.24-2.85,8.33,8.33,0,0,0,1.07-3.57c.55-4.57.52-5.89.25-6.91a38.85,38.85,0,0,1-.75-3.84,5.81,5.81,0,0,0-.82-2.42,9,9,0,0,1,.31-1.13,11.61,11.61,0,0,0,.34-6.5v-.15l.08-.13c1.62-2.36,5-7.25,2-12.7-.53-1-.89-1.68-1.14-2.21a8,8,0,0,0-3.52-4l-1.22-.78-2.75-3.77a4,4,0,0,0-.9-.88l-2.39-1.68a11.68,11.68,0,0,0-5.54-5.19c-2.36-1.12-2.5-1.27-3.05-1.84l-.56-.57a20,20,0,0,0-6-4.11,7.43,7.43,0,0,0-1.47-.9,8.35,8.35,0,0,0-3.61-3.07l-.28-.25a18.7,18.7,0,0,0-5.39-3.06l-1-.44a9.38,9.38,0,0,0-5.9-2,13.19,13.19,0,0,0-4.8,1,8.48,8.48,0,0,0-2.94-2.34,8.71,8.71,0,0,0,1.81-3,8.44,8.44,0,0,0-.58-7.22,13.87,13.87,0,0,0-9.37-6.92,5.92,5.92,0,0,1-1.23-.41,9.61,9.61,0,0,0-4.88-1.27H299a11.8,11.8,0,0,0-5.64-4,7.93,7.93,0,0,0-5.18-.66,9,9,0,0,0-1.93-.21,8.83,8.83,0,0,0-1.7.17,8.31,8.31,0,0,0-1.47-.86,9,9,0,0,0-3.39-.76,8.7,8.7,0,0,0-2.95-.89,8.23,8.23,0,0,0,4.19-8.93c-1-5.08-5.42-6.57-9.84-7.24v-5.09a1.92,1.92,0,0,1,.54-1.34,20.62,20.62,0,0,0,7.13-10.31c.21,0,.42,0,.62,0a19.54,19.54,0,0,0,22.51-19.46c0-1.32.66-1.6,1.61-2,9.82-4.59,15.2-12.35,15.18-23.2s-5.46-18.66-15.33-23.18a2.13,2.13,0,0,1-1.47-2.3,19.33,19.33,0,0,0-14.66-18.67,63,63,0,0,0-8.56-.89C275.66,5.56,269.77.34,260.55,0c-10-.36-16.43,5-19.84,14.11h-.37c-9.81-1.16-17.84,3.53-21.45,12.64a1.58,1.58,0,0,1-1.78,1.16H203.6a22.79,22.79,0,0,0-12.2,3.27c-2.64,1.64-5,3.71-7.51,5.6,0-.34-.18-.85-.25-1.36-1.47-9.26-9.16-17.33-18.5-18.31-6.66-.69-13.42-.29-20.14-.36-.09,0-.18.14-.5.44a75.28,75.28,0,0,0,.72,9.72,22.33,22.33,0,0,0,22,17.84h11v13c-.34-.28-.51-.41-.68-.57a22.59,22.59,0,0,0-17-6.82h-14.2a15.48,15.48,0,0,0-1.76.07V56.2A22,22,0,0,0,161.7,77.65c4.63.93,9.52.57,14.31.78h2.22v13.1l-1.35-1.27A22.3,22.3,0,0,0,161.5,84H146.24a9,9,0,0,0-1.65.11V90a22.08,22.08,0,0,0,12.13,19.56,21.28,21.28,0,0,0,10.63,2.55h10.79v9.62c-1,0-2,.09-2.94.15H174c-1.21-.11-2.45-.17-3.65-.17a46.68,46.68,0,0,0-13.12,2,22.74,22.74,0,0,1-2.59-.27,36.26,36.26,0,0,0-4.77-.41,14.42,14.42,0,0,0-5.36.94,54.24,54.24,0,0,1-9.17,1h-.66l-.47-.41a9.88,9.88,0,0,0-.21-6.94c-.78-2.06-.78-2.06-7.16-7.23-1.47-1.2-3.46-2.82-3.81-3.13a11.06,11.06,0,0,0-7.57-2.35,23.31,23.31,0,0,0-2.57.09l-.7-.3a28.07,28.07,0,0,0-10.57-2.61,17,17,0,0,0-2.66.24,15.71,15.71,0,0,0-.43-1.8A9.59,9.59,0,0,0,95.74,92a10.69,10.69,0,0,0-3.52-2.59,8.23,8.23,0,0,0-3.42-.71,16.13,16.13,0,0,0-8.74,3l-.25.22a8.54,8.54,0,0,0-5.67,6.45l-.16.34c-1.47,3.33-1.84,6.19-1,8.56a8.69,8.69,0,0,0-2.06.6,37.78,37.78,0,0,1-4.16,1.48l-1,.33h-.39A12.39,12.39,0,0,0,58,112.08l-1,.23a19.56,19.56,0,0,0-6.21,2.18,9.7,9.7,0,0,0-1.73-2,8.6,8.6,0,0,0-.38-1.67c.81-3.86,0-6.91-2.61-9.12a8.09,8.09,0,0,0-5.27-2,9.06,9.06,0,0,0-7.44,4.42,15.17,15.17,0,0,0-3.11,5.59c-.14.41-.37,1-.51,1.31l-.08.07-.81.25a10.64,10.64,0,0,0-4.42.8,14.09,14.09,0,0,0-7.55,8.83c-.09.25-.21.56-.3.79l-.38.48A7.83,7.83,0,0,0,14.72,125a8.07,8.07,0,0,0-2.07,2.54,28.59,28.59,0,0,0-1.94,4.25v.11a12,12,0,0,0-.71,5.07c-.26,1-.48,2-.7,2.95a19.81,19.81,0,0,1-2.11,6.35l-.37.32c-3,2.61-6.81,5.89-6.82,10.65a8.56,8.56,0,0,0,3,6.47,8.39,8.39,0,0,0,5.54,2.06,9.88,9.88,0,0,0,3.18-.54,11.83,11.83,0,0,0,2.07,1.12,10,10,0,0,0,.77,1.07A13.66,13.66,0,0,0,16,172.92a9.9,9.9,0,0,0,.56.87,8,8,0,0,0,.77,1.81,8.15,8.15,0,0,0,3.55,3.3,7.9,7.9,0,0,0,1.91,2.24l-.3.47A41.93,41.93,0,0,0,19.83,186c-2.58,5.31-.77,8.92.69,10.71a8.24,8.24,0,0,0,2.58,4.15,12.09,12.09,0,0,0,4.67,2.5,15.11,15.11,0,0,0,8.66,8.68,8.93,8.93,0,0,0,3.64.72,67.41,67.41,0,0,0,10-1.47l.76-.13a12.92,12.92,0,0,1,1.71.62,15.86,15.86,0,0,0,6,1.47,10.42,10.42,0,0,0,4.19-.87,21.2,21.2,0,0,1,5.4-2,21.79,21.79,0,0,1,5,1.35l.51.19a14.6,14.6,0,0,0,6.09,1.14A14.39,14.39,0,0,0,85,218.89l.53.37a31.78,31.78,0,0,0,6.8,7.37,8.31,8.31,0,0,0,4.41,4.59,9.54,9.54,0,0,0,3.83.81,9,9,0,0,0,2.37-.31,8.84,8.84,0,0,0,7.53-1.88,9.59,9.59,0,0,0,3.74.73h.35a9.58,9.58,0,0,0,4.87,1.36,8.86,8.86,0,0,0,3.55-.74,8.58,8.58,0,0,0,1.47-.84,18.37,18.37,0,0,0,2.46.16,12.48,12.48,0,0,0,3.59-.48,8.63,8.63,0,0,0,1.31-.5,18.24,18.24,0,0,0,2.66.22,11.57,11.57,0,0,0,2.35-.24v.14a10.26,10.26,0,0,0-.63,4h-.09c-4.21,3.68-4,9.54-3.81,13.43V248c-.95,9.47.16,17.49,3.37,24.5a9.49,9.49,0,0,0,.54,1,12.84,12.84,0,0,0,5.65,5.89l.23.15.27.36a10.91,10.91,0,0,0,.69,1.31l-2,1.37c-4.62,3.23-6.9,5.09-7.78,8.17A8.06,8.06,0,0,0,134,297a9.85,9.85,0,0,0,8,4.65c5.54,5,7,7.23,7.27,8.27a8.06,8.06,0,0,0,.32,1.06l.4,1,.1.25c.81,1.92,1.47,4.13,2.27,6.47,2.17,6.72,4.61,14.32,10.86,19.77a6.84,6.84,0,0,0,1,.76l.4.26a12.93,12.93,0,0,0,4,2.1,8.14,8.14,0,0,0,3.4,2.83,13.77,13.77,0,0,0,5.58,1.18,18.81,18.81,0,0,0,10.86-4.14c.4-.28.93-.65,1.16-.78l.53-.19a8.53,8.53,0,0,0,13.17.5,10.43,10.43,0,0,0,2.69-.74,9,9,0,0,0,4.53-4.42c.67-.4,1.48-1,2.3-1.56a8.34,8.34,0,0,0,1,0,8.58,8.58,0,0,0,3.46-.72,16.69,16.69,0,0,0,4.54-3.12l.43-.37a8.17,8.17,0,0,0,2.11-.64,9.21,9.21,0,0,0,2.34.3,8.58,8.58,0,0,0,5.68-2.11c2.76-2.41,3.73-5.89,4.67-9.23v-.25l2.71-.76c6.28-1.7,9.14-2.53,11.27-4.42a9.22,9.22,0,0,0,3.14-8.39c-.85-5.51-6.22-8.25-7.84-9a14.43,14.43,0,0,0-5.89-1.29,12.14,12.14,0,0,0-2,.16,12.39,12.39,0,0,0-3.55-6.78,7.76,7.76,0,0,0-1.57-3.51,8.9,8.9,0,0,0,.11-3.13,8.3,8.3,0,0,0,.28-2,6.31,6.31,0,0,0,0-.87,8.18,8.18,0,0,0,2.77-1.09c3,.18,7.93.59,10.58.83,3.37,5.05,7,7.61,10.8,7.61a8.51,8.51,0,0,0,4-1,8.81,8.81,0,0,0,5.15-4,15,15,0,0,0,1.59-6.05,11.88,11.88,0,0,0,2.29-1.83,36.61,36.61,0,0,1,3.75.12h.41a8.06,8.06,0,0,0,3.42.14l2.39-.36c4.42-.65,9.79-1.48,13.77-4.07a8.71,8.71,0,0,0,2.33-2.24,9.58,9.58,0,0,0,1-.37,8.64,8.64,0,0,0,1.47-.78,9.8,9.8,0,0,0,6-.62,13.73,13.73,0,0,0,5.45-4.74c.21-.27.51-.65.7-.87a21,21,0,0,0,8.5-9.06,9.33,9.33,0,0,0,1.16-.28l3.43-.79a7.48,7.48,0,0,0,.68.81,10.66,10.66,0,0,0,.88.76v.31l-.91,2.34a3.91,3.91,0,0,0-.25,1.76v.53L323,257.74a3.87,3.87,0,0,0-1.08,3.36,5.15,5.15,0,0,0,5.15,4.22,12.6,12.6,0,0,0,1.62-.11,5.45,5.45,0,0,1,2.13,0l.83.19a6.07,6.07,0,0,0,0,3.77,4,4,0,0,0,1.72,2,5.2,5.2,0,0,0,.87,1.93c.19.27.37.49.53.7a6.21,6.21,0,0,0-.94,1.11,4.86,4.86,0,0,0-.31.53,11.46,11.46,0,0,0-1.06,1.15l-.18.23a3.93,3.93,0,0,0-2.88,1.27,4,4,0,0,0-1,3,4.71,4.71,0,0,0,1.58,3.6l-.43.78a21.68,21.68,0,0,0-3.17,9.56v.84c-1.47,1.85-.5,4,.19,5.67a35.61,35.61,0,0,1,1.48,3.83l.19.56.09.26a6.33,6.33,0,0,0,.19,1.68,5.88,5.88,0,0,0,2.46,3.73l1,.78v.56a5.53,5.53,0,0,0-.63,2.52v.37a5.38,5.38,0,0,0,1.6,5.74,4.92,4.92,0,0,0,.56.37,4.5,4.5,0,0,0,3.82,3.07,13.2,13.2,0,0,0,1.28,1.62,10,10,0,0,0,2.51,2.12v.09a8.7,8.7,0,0,0,3.09,3.63,11.56,11.56,0,0,0,5.11,1.33h.21a4,4,0,0,0,1.22,1.47A3.84,3.84,0,0,0,353,336a6.09,6.09,0,0,0,1.47-.23,4.71,4.71,0,0,0,4.23-2.71,3.46,3.46,0,0,1,.34-.44,4.64,4.64,0,0,0,1.35-3.12,5.11,5.11,0,0,0,3.17-4.42l.09-.44a5.75,5.75,0,0,0,.26-1.48,3.52,3.52,0,0,1,.43-.72,3.66,3.66,0,0,0,.84-3.49,1.75,1.75,0,0,1,0-.56,4.24,4.24,0,0,0,2.31-.9,5.89,5.89,0,0,0,2-4.42l.34-3.34a2.41,2.41,0,0,0,0-.38v-1.48a5.17,5.17,0,0,0,0-3.16l.1-.31c.09-.31.17-.59.22-.84a5.38,5.38,0,0,0,3.41-5.29,9.61,9.61,0,0,0-1.09-4.33ZM178.23,73a129,129,0,0,1-14.58-.63c-7.65-1.15-13.8-9.1-13.14-16.53a129,129,0,0,1,14.58.64c7.59,1.16,13.75,9.11,13.14,16.52ZM163.8,38.69c-7.68-1-13.51-8.47-13.4-16.09.09-.07.17-.22.26-.22a117.7,117.7,0,0,1,14.3.38,16.2,16.2,0,0,1,13.27,16c-4.89,0-9.78.52-14.51-.11ZM358.73,263.44c.34.23.34.23.39.34a9.29,9.29,0,0,1-.43,2.27l-.09.32-21.49,21.27a5.59,5.59,0,0,0,.67-3.08v-.45a5.85,5.85,0,0,0-.2-1.62,9.8,9.8,0,0,0,.87-.95A3.71,3.71,0,0,1,339,281a16.45,16.45,0,0,0,3.66-4.89,6.54,6.54,0,0,0,.22-2.71V273a4.77,4.77,0,0,0-.22-1.35L354.4,259.9l.44.61.19.23q1.91,1.27,3.69,2.73v0Zm-3.44-26.33.35-.33v.29h-.28l-.07,0ZM339.42,183l.46.46a14.32,14.32,0,0,0,5.3,3.47,4.94,4.94,0,0,1,1.16.76l-18.68,18.67a3.57,3.57,0,0,0,.25-1.29v-2.34a3.85,3.85,0,0,0-2.09-3.44,10.42,10.42,0,0,0-.79-1.17l-.12-.15a8.69,8.69,0,0,0-5.23-3.29l.22-.37a9.94,9.94,0,0,0,3.18-1.35,10.56,10.56,0,0,0,1.65-1.33A13.55,13.55,0,0,0,330,188a7.77,7.77,0,0,0,1.26-1l.34-.22c.62-.41,1.31-.89,2-1.48a3.85,3.85,0,0,0,2.34-1.7l.57-.95a10,10,0,0,0,.92-1.22,13.55,13.55,0,0,1,2,1.55v0Zm-34.78,46.15.72-.61h.15l-.77.76-.1-.15Zm4.93-4.7a4.26,4.26,0,0,0,.08-1.63,4.43,4.43,0,0,0-1.25-2.48,7.44,7.44,0,0,0,.11-2.62,10.07,10.07,0,0,0,6.34-.6,9.17,9.17,0,0,0,3.33-2.56l.56-.23a10.61,10.61,0,0,0,2.38-1.47l-11.55,11.59Zm-19.82-77.63.66.36c2.72.47,3.09,3.72,5.18,4.64a2,2,0,0,0,.76.13c.84,0,1.91-.31,2.77-.31a1.68,1.68,0,0,1,.85.19c3.18,1.86,5.61.75,7.7,4.42.9,1.58-6.64,2.59-7,3.95-.84,2.94,4.11,5.21,6.12,7,.25.22.23.67.29,1.13h-4.42a1.92,1.92,0,0,1-2.27-1.47c-1.56-4.35-3-8.72-5-12.91a13.25,13.25,0,0,0-6.14-6.52,2.52,2.52,0,0,0,.51-.62v0Zm-109.12,4.63h23.5a7.5,7.5,0,0,1,7.23,4.12c1.92,4,3.35,8.3,5,12.63h-48c.39-1.09.76-2.11,1.13-3.11,1-2.73,2-5.48,3.09-8.19a8.3,8.3,0,0,1,8-5.5l0,.05Zm22.64-5.69H200a8,8,0,0,1,7.51-5.58h48.4c3.6,0,6.1,2,7.72,5.57h-3.75a14.15,14.15,0,0,0-14.12,9.75c-1.47,3.75-2.85,7.53-4.21,11.31a1.77,1.77,0,0,1-2,1.48c-5.2,0-10.41-.08-15.61,0a1.86,1.86,0,0,1-2.09-1.48c-1.32-3.68-2.73-7.36-4.11-11-2.58-6.76-7.35-10.06-14.46-10.06ZM246,77.63c-5.9-5.75-11.58-11.56-17.37-17.35-.44-.44-.87-.91-1.33-1.4l4.3-4.05,21.83,21.85.52-.3V43.66c1.91,1,3.56,1.68,5.08,2.6a2.15,2.15,0,0,1,.59,1.62V60.52L278,51.37l3.34,6.45-4.08,2.74a25.21,25.21,0,0,0-11.95,22.28V138.5a15,15,0,0,0-11.22-3.93V97.17A26.13,26.13,0,0,0,246,77.63Zm5.71,78.2a7.46,7.46,0,0,1,7.09-4.42h8.69a1.29,1.29,0,0,0,.28.38.75.75,0,0,0,.53.22,1.75,1.75,0,0,0,1.09-.6H283a7.37,7.37,0,0,1,7,4.23c1.85,4,3.27,8.2,4.93,12.49h-48c1.63-4.2,3-8.35,4.83-12.32l-.06,0Zm28-10.42a.7.7,0,0,1,.29.37h-2.12a3.71,3.71,0,0,1,1.33-.47,1.21,1.21,0,0,1,.59.1Zm-4.52-.93a1,1,0,0,1,.45-.11c.7,0,.53,1.09.89,1.47h-2c.16-.69.35-1.19.75-1.36Zm-2.57-14.9a5.74,5.74,0,0,1-1.65.31v-1.57c1.82.39,2.79.8,1.65,1.26ZM224,39c-1.74-6.25-.93-11.93,4.23-16.2s10.94-4.06,17-1.15c.17-1.12.34-2,.42-2.95a14,14,0,0,1,28.07,0,28.8,28.8,0,0,0,.34,2.87c5.9-2.74,11.68-3.22,16.9,1.08s6.19,9.91,4.35,16.28c11.21,2.57,18.07,9.11,17.55,20.9-.47,10.65-7.17,16.5-17.53,18.69,1.76,6.29.92,12-4.25,16.21s-11,4-17,1.15c-.57,3.53-.56,7.08-3.21,10.31V82.76a19.72,19.72,0,0,1,9.18-17.32c2.75-1.86,5.52-3.7,8.47-5.66l-8-15.94L265.34,51.5V44.24a2,2,0,0,0-.78-1.47c-5.14-2.64-10.32-5.19-15.5-7.77h-.53V63.29L231.91,46.58,219.48,59c.26.26.68.73,1.12,1.16Q231.45,71,242.31,81.85a19.85,19.85,0,0,1,6.19,14.94v9.54c-2.53-3.24-2.74-6.66-3.14-10.31-5.89,2.74-11.68,3.24-16.88-1s-6.2-9.9-4.42-16.3C212.64,76,205.78,69.3,206.55,57.29c.69-10.41,7.36-16.1,17.53-18.24L224,39Zm-34.66.71a19.07,19.07,0,0,1,14-6.15h14.07c.38,1,.19,1.48-.79,1.87a25.07,25.07,0,0,0-14,13.93c-.19.42-.75,1-1.15,1H184.2a18.52,18.52,0,0,1,5.14-10.63Zm-5.29,16.42h16.72v5.42a23.3,23.3,0,0,0-16.72,7.53v-13Zm.59,23.23a16.82,16.82,0,0,1,16.2-12.16,1.91,1.91,0,0,1,1.95,1.23c1.69,3,3.59,5.9,5.61,9.21a15.73,15.73,0,0,1-11.65,6.26c-4.18.28-8.4,0-12.95,0,.32-1.47.43-3.06.84-4.54ZM163.9,106a16.21,16.21,0,0,1-13.57-16.12c.07-.07.16-.22.25-.22a121.28,121.28,0,0,1,14.14.35,16.3,16.3,0,0,1,13.51,16.16c-4.83,0-9.65.5-14.33-.17Zm20.15,17.28h10.18c13.67,0,23.39-9.74,23.39-23.41V95.7c-7.05,0-14-.26-20.8.08-4.42.22-7.86,2.55-12.87,7V89.67h10.91a21.32,21.32,0,0,0,12.42-3.62,75.69,75.69,0,0,0,6.31-5.28,27.59,27.59,0,0,1,3.3,1.67,2.28,2.28,0,0,1,.7,1.69,19.73,19.73,0,0,0,20.52,19.64c.81,0,1.62-.13,2.58-.22.22.53.47,1.1.69,1.68a19.93,19.93,0,0,0,6.09,8.14,2.69,2.69,0,0,1,1,1.62v19.55H208.55c-6.38,0-11,2.73-13.67,8.53-.94,2.08-2,3.06-4.42,2.77a52.23,52.23,0,0,0-6.38,0v-22l0-.5Zm0-5.62A16.55,16.55,0,0,1,198.78,101a122.2,122.2,0,0,1,13.26-.09,16.69,16.69,0,0,1-6.53,13.17,16.06,16.06,0,0,1-10.06,3.68H184l0-.12ZM81.93,100.11c0-1.19,2-.66,2.66-1.39.28-.33.35-.71.73-1a10.81,10.81,0,0,1,3.49-1.08.81.81,0,0,1,.22,0A5.86,5.86,0,0,1,90.3,97.7c.81.71-.28,3.09.13,4a9,9,0,0,1,.71,2.94l-1-.07A8,8,0,0,0,86,103.4a8.73,8.73,0,0,0-5,1.75,2.19,2.19,0,0,0-.42-.5c-.64-.57,1.34-3.46,1.34-4.54ZM49,141.73l.85.91a11.24,11.24,0,0,0,1.3,3.82A10.79,10.79,0,0,0,53,148.73a10.84,10.84,0,0,0,.84,4.12c-.37.22-.72.47-1.08.72H51.4a8.2,8.2,0,0,0-2.68-4.72,7.76,7.76,0,0,0-3.25-1.73,7.84,7.84,0,0,0-.29-.94c.09-.22.17-.43.24-.65A24.54,24.54,0,0,0,47.64,143a8.69,8.69,0,0,0,1.4-1.24ZM307.87,252.11c-2.55,1.12-3.73,4.54-5.59,5.35a1.88,1.88,0,0,1-.78.16c-1.37,0-2.46-1.47-3.78-1.47a1.7,1.7,0,0,0-.74.16c-1.18.51-1.22,2.16-2.12,2.55a3.59,3.59,0,0,1-1.34.17h-.74a2.74,2.74,0,0,0-1.78.42c-.75.64.16,2.12-.66,2.66-3.14,2.07-9.2,2.57-13.16,3.26l-.79-.24c-.68,0-3.35-.16-5.72-.16-1.93,0-3.68.12-4,.52-.72.94-1.3,2.13-2.52,2.66a.9.9,0,0,1-.4,0c-.53,0-1.33-.19-1.87-.19a.83.83,0,0,0-.53.13c-.35.31-.44,7.37-1.19,8.71-.17.28-1.48.53-1.86.81a.58.58,0,0,1-.38.15c-1.58,0-5-5.28-5.32-5.9s-2-1-2.52-1.39c-.12-.11-12.82-1.21-15.75-1.21a1.94,1.94,0,0,0-.59,0c-.2.13-1.13,1.29-1.47,1.29-.9-.39-1.31-4.05-2.39-5a2.69,2.69,0,0,0-1.7-.4c-1.48,0-3.53.4-4.95.4a3.68,3.68,0,0,1-1.05-.12c-2.39-.69-4.74-2.61-7.17-3.14a2.91,2.91,0,0,0-.59,0,4.8,4.8,0,0,0-1.93.53c-3.89,1.7,1.25,5.22,3.05,7.21l.39.57c0,3.77,2.66,2.71,5.59,4.42a25.65,25.65,0,0,1,4.12,3.38c1,.91-.6,1.93-1.06,2.32-.9.78,1.47,1.26,1.19,2a9,9,0,0,0-.13,5.45c.27.7.94.87,1.59,1.16.34.15-.38,2,.13,2.45.9.78,3.45,2.31,3.45,4.64,0,1.57-1,1.87-1.72,3.13-1.22,2.14,5,4.2,6.11,4.53a1.81,1.81,0,0,0,.52.07c1.47,0,2.59-1.63,4.92-1.63a6.43,6.43,0,0,1,2.66.61c.93.42,4.5,2.46,2.66,4.07-1.48,1.28-11.6,3.39-14.49,4.64-1.63.71-2.31,8.29-4.25,10a.71.71,0,0,1-.44.15c-1,0-2.95-1.4-4.42-1.4a1.47,1.47,0,0,0-1.48,1.25l.14.57c-3.11,0-4.63,3.07-6.91,4.07a.66.66,0,0,1-.28,0c-.75,0-1.26-1.39-1.89-1.39a.58.58,0,0,0-.37.17c-.28.25-4.73,3.69-5.05,3.83h-.28c-.47,0-1.16-.25-1.75-.25a1.18,1.18,0,0,0-.49.08c-1.37.59.38,3.38-1.19,4.07-.84.37-3.4.19-4,.69s-1.15,2.26-1.93,2.26h-.21c-.8-.36.35-1.68-.13-2.33a7.78,7.78,0,0,0-4.11-2.08,1.45,1.45,0,0,0-.55.1c-1.62.71-3.78,1.08-5.58,1.86-2.27,1-5.22,4.23-8.84,4.23a6,6,0,0,1-2.39-.52c-.17-.07.11-.85,0-1-1-1.84-4.42-1.48-5.89-2.95l-.93-.57c-6.37-5.65-7.72-15.63-11-23.32l-.39-1.05c-1.09-4.74-6.9-10-11.16-13.7-1.17-1-4.28-.29-4.92-1.4-.41-.74,9-6.86,9.56-7.2l.54-.58c5.31-4.64-1-5.89-1.73-9.63l-.53-.47c-1.25-2.73-4.9-2.73-5.45-5.45l-.4-.47c-2.94-6.41-3.44-13.34-2.65-20.79v-.47c0-1.87-.56-6.94,1.06-8.35.71-.62,2.2-.52,2.95-1.17s-.52-4.68,0-6c.93-2.43,3.56-2,5.58-3.14.74-.42.37-1.72.27-2.2l-.27-.7a9.72,9.72,0,0,0-9-6,12.71,12.71,0,0,0-5.07,1.14,3.11,3.11,0,0,1-1.25.22c-1.25,0-2.75-.44-4-.44a3,3,0,0,0-1.25.22c-.38.16-.5.69-.93.81a4.81,4.81,0,0,1-1.37.16c-1.56,0-3.41-.47-5-.47a4.4,4.4,0,0,0-1.75.31c-.65.28.13,1.28-.4,1.47a.75.75,0,0,1-.36.07c-1,0-2-1.29-2.43-1.47a1.93,1.93,0,0,0-.67-.12c-.66,0-1.47.24-2.12.24a1.84,1.84,0,0,1-.66-.12,8.52,8.52,0,0,0-3.2-1.13,2.1,2.1,0,0,0-.66.08,12.29,12.29,0,0,0-4.26,2.21.9.9,0,0,1-.62.25c-.75,0-1.47-1-2.19-1h-.24c-.47.13-.87,1.07-1.75,1.07a1.58,1.58,0,0,1-.65-.14c-.32-.15.44-2.08-.4-2.33-2.19-.63-6.15-4.73-7.36-6.73-1.48-2.55-4.8-3-5.45-5.9a1.72,1.72,0,0,0-.61-1.12c-.1,0-.76-1.09-1-1.34a.41.41,0,0,0-.22,0h-.33c-.19,0-.31-.22-.47-.31a9.22,9.22,0,0,0-1-.28c-.52-.17-.69-.72-1.47-.73H79.74a6.62,6.62,0,0,1-2.95-.5l-.92-.36a24.3,24.3,0,0,0-7.74-1.82c-2.47,0-4.64.91-8.6,2.63a2.4,2.4,0,0,1-1,.2c-2,0-4.65-2.05-7.78-2.05a6.75,6.75,0,0,0-1.19.1c-1.47.25-7.65,1.47-9.5,1.47a1.19,1.19,0,0,1-.46,0c-1.72-.75-5.32-2.94-4.26-5.8.11-.25,1-.22.67-.81-1.58-2.77-5.53-1.34-7.71-3.26-.47-.41.62-.39.8-.69a1.9,1.9,0,0,0-.4-2c-.25-.33-1.59-.12-2-.47-1.59-1.39,5.06-8.58,5.06-11a9.48,9.48,0,0,0-3.45-5.8l-.66-.12c-.39-.85-.52-2-1.48-2.44a9.61,9.61,0,0,1-2-.7c-.19-.34.31-1.47,0-1.74s-1-.44-1.32-.92c-.65-1.12-.5-5.25-1.2-6.16-.26-.35-1.19-.28-1.19-.69,0-.93,1.21-.08.66-1.48-.87-2.29-6.24.58-6.24-5.23,0-.16-.11-.23-.28-.23-1.06,0-4.92,2.65-6.19,2.65a.44.44,0,0,1-.31-.09c-1.28-1.12,4.13-5.2,4.79-5.89,3.23-3.54,3.73-9.22,4.92-13.35.35-1.25-.16-2.59.26-3.71a21.2,21.2,0,0,1,1.48-3.26c.17-.29,1.47-.42,1.72-.92a23.78,23.78,0,0,0,1.19-3.38l.74-.92c1.47-2.21,1.36-5.47,4.42-6.8a4.46,4.46,0,0,1,1.31-.13h1a2.23,2.23,0,0,0,1-.17c.58-.51,1.71-.49,2.46-.82a7.43,7.43,0,0,0,2-1.66c2.39-2.09,2.45-5.89,4-7.37.19-.16,1.24-1.75,1.47-1.75.62.55-.32,2.83-.53,3.38-.36,1,.58,1.62.8,2.2s-.27,1.67,0,2.39,1.28.93,1.35,2c0,.42,1,.58,1.3.81,1,.86.93,3.94,1.4,5.17.29.76,1,1,1,2,0,.38.27,1.1.21,1.22a22.58,22.58,0,0,0-.93,2.21l-.21.3a3,3,0,0,0,.21.57c.41.35,3.34.55,2.52,2-.22.39-.93.31-1.27.76s.08,1.13-.4,1.34-2.48.51-2.65.81-.14,1-.47,1.47-1.06.53-1.27.87a14.38,14.38,0,0,1-2.72,3.25c-.25.23-1,.39-1.13.64-.37.66,0,1.57-.34,2.21s-2,.57-2.33,1.22,1,2.52,1,3.31a2.81,2.81,0,0,0,0,.58c.53.23,1.47,0,1.33.87v.35c0,3.95,1.07,1.47,1.23,4.19.11,1.81.31,3.91,1,3.91.28,0,.63-.35,1.11-1.25.2-.4-.11-1.47.13-1.74a1.29,1.29,0,0,1,.48,0,8.71,8.71,0,0,1,1.77.18c.43.37-.79.87-.79,1.4,0,1.47-.22,4.68.92,5.69a.92.92,0,0,0,.61,0c.54,0,1.31-.17,1.87-.17a1,1,0,0,1,.62.15c.26.22.71,1.18,1.1,1.18h.11a25.34,25.34,0,0,1,3.31-1.62,1.21,1.21,0,0,1,.38,0c1,0,3,.59,3.75.59.14,0,.23,0,.26-.08a7.38,7.38,0,0,1,3.58-2.94c1.47-.43,3.62-5.44,3.31-6.73s-2.19-2.64-1.32-4.64l-.13-1c-.45-.59-.18-1.4-.53-1.86-.74-.95-1.86-1.37-2.39-2.32-.68-1.18-.18-3.3-1.33-4.31a34.2,34.2,0,0,1-6.24-8c-.28-.5,1.37-1.59,1.06-1.86s-1.93-1.22-1.73-1.39c1.64-1.48,3-3.75,4.66-5.23,2-1.79,7.12-1.39,8.63-3.38.44-.53,3.86-.53,4.6-.78,2.16-.75,4.33-1.47,6.38-2.33a1.58,1.58,0,0,1,.57-.08c1,0,2.52.42,3.57.42a1.46,1.46,0,0,0,.91-.22l.24-.17a11.22,11.22,0,0,0,4.24.89,8.93,8.93,0,0,0,3.93-.92c.41-.14,1.31-.37,1.87-.51a15,15,0,0,0,6.59-2.82l.2-.22c1-.39,1.89-.77,2.46-1a7.1,7.1,0,0,1,2.8-.55c3.52,0,7.37,2.08,9.42,2.76l.53.23c.76,0,2.44-.16,3.88-.16a4.51,4.51,0,0,1,2.35.4c.85.74,8.72,7.09,8.84,7.2,1.37,3.58-5.44,4.54-1.86,7.66.31.27.62,1.31.79,1.4a1.3,1.3,0,0,0,.51.08h1.13a1.47,1.47,0,0,1,.62.1c.82.37,2,2,4.12,2.95a10.19,10.19,0,0,0,3.47.39,51.15,51.15,0,0,0,11.94-1.47,6.5,6.5,0,0,1,2.58-.44c2.31,0,5.07.69,7.37.69a7.13,7.13,0,0,0,2-.25,39,39,0,0,1,11.14-1.75,22.63,22.63,0,0,1,2.94.13l.8.12c.91,0,2.86-.24,4.12-.24V146c-6.26,1.71-9.13,4.42-11.4,10.4-1.33,3.55-2.7,7.1-4,10.66a1.62,1.62,0,0,1-1.9,1.28c-1.66-.08-3.34,0-5,0v5.41H307.31v-4.7l.11.15a1.26,1.26,0,0,0,.76.18H309c.62,0,1.18.11,1.22.88l.27.57c0,1.76.17,2.24.47,2.24s.9-.72,1.47-.72a.8.8,0,0,1,.55.22c.31.28-.37,1.3.13,1.47a1.51,1.51,0,0,0,.59.11,5.23,5.23,0,0,0,1.74-.43h3.08v-1.38a6.86,6.86,0,0,1,2.5-.73,1.48,1.48,0,0,1,1,.33c1.47,1.32,4.42,1.81,6.11,3.25.34.3.94,1.4,1.33,1.4a3,3,0,0,1,.84.12,3.21,3.21,0,0,0,0,.62,4.65,4.65,0,0,0-1.9,1.16c-.77.77-1.39,1.48-1.86,2l-1,.64a12.12,12.12,0,0,0-1.22.56l-.62.32a27.87,27.87,0,0,0-4.08,2.64,4.77,4.77,0,0,0-4.52,1.22,8.22,8.22,0,0,0-1,1.27c-1.62.73-.5,1.6-1.48,3.4-.11.21-.42.22-.76.22h-.3c-.56,0-1,0-.53.94l.14.7a18,18,0,0,0-1.73,1.28c-.19.16.22,1.31.89,2.8a4.23,4.23,0,0,0,1.12,2.37c.29.59.58,1.16.88,1.74a3.79,3.79,0,0,0,.44,2.94l1.34,2.18a4.31,4.31,0,0,0,.44.59,5.48,5.48,0,0,0-2.28,1.09,4.2,4.2,0,0,0-5,.86,2.27,2.27,0,0,0-.88-.21,1.75,1.75,0,0,0-.78.18,1.37,1.37,0,0,0-.58.51,3.85,3.85,0,0,0-2.75,1c-1.27.08-2.62.2-3,.95-.27.47-.47,2-.8,2.32-1.59,1.39-2.77.37-.26,2.55.5.43-1.22.68-.93.93a1.93,1.93,0,0,0,1.31.4h1a1.32,1.32,0,0,1,.62.12,4.05,4.05,0,0,0,.32,1.13,1.12,1.12,0,0,1-.08.49v.11a3.76,3.76,0,0,0-.74,1.36,3.9,3.9,0,0,0-.13,1.08c-1.95,2.44-5.73,3.62-5.26,7.36v.58c.62.89.81,1.47,1.63,2a3.73,3.73,0,0,0,.64,1l1,1.12a2.84,2.84,0,0,0,.75,1.47,10,10,0,0,0,1.22.72l10.8,12.38a4.08,4.08,0,0,0,1.37,1,13.87,13.87,0,0,1-3.81,3.31Zm10.31-12.9a11.81,11.81,0,0,0-5.69-3.2,12,12,0,0,1-1.47-1.47c0-.12-.16-.24-.24-.36l41-41,2.52,3.43a3.92,3.92,0,0,0,1.05,1l1.84,1.17.4.27c0,.13.16.31.25.49l-39.67,39.7Zm14.12,6.17c-.51-.34-1.11-.78-1.35-1a14.13,14.13,0,0,1-1.3-2.09,3.84,3.84,0,0,0-2-1.68l28.52-28.58a6.19,6.19,0,0,0,.16,1,4,4,0,0,1-.1,2.53c-1,3.11-1,5.14.2,7.24q.17,1.09.39,2.22L333.54,247a3.84,3.84,0,0,0-1.31-1.57Zm2.05,12.73-1-.24,16.6-15.64a8,8,0,0,0,.84,3.38,9.13,9.13,0,0,0,.28,1.62v.34a8.09,8.09,0,0,0-.31,3.17,11,11,0,0,0,.23,1.74l-10.68,10.71a5,5,0,0,0-1.94-3.61,9.66,9.66,0,0,0-4.05-1.47Zm3.07,48.61a6.74,6.74,0,0,0-.62-.47l-.65-.52a8.42,8.42,0,0,0-.47-2.27l-.18-.51c-.22-.7-.47-1.38-.75-2.05l25.75-25.49a.75.75,0,0,0,.09.43,2.88,2.88,0,0,1-.13.31,3.88,3.88,0,0,0,.82,4.94,5,5,0,0,1,.68.7l.15.25-24.69,24.68Zm20.07,12.18a8.55,8.55,0,0,0-1.16,3.21v.27l-.07.29a6,6,0,0,0-3.54,3.51,3.68,3.68,0,0,0-1.38-.3,3.21,3.21,0,0,0-1,.17h-.23l-.74-.08,8.29-8.45a9.69,9.69,0,0,0-.23,1.43l.08-.05Zm7-21.14a6.15,6.15,0,0,0-1.69,3.4l-19,19.42a3.83,3.83,0,0,0-3.27-3.37,3.91,3.91,0,0,0-1.29-1.39l23.19-23.23a4.52,4.52,0,0,0,.59,1.28,4.39,4.39,0,0,0,1.37,1.31,3.89,3.89,0,0,0,.88,1.71l.11.15a4.9,4.9,0,0,0-.95.75l.09,0Z"/></g></g></svg>