<svg xmlns="http://www.w3.org/2000/svg" viewBox="0 0 640 480"><defs><style>.cls-1{fill:#928440;}.cls-2{fill:#fff;}</style></defs><g id="Capa_2" data-name="Capa 2"><g id="Capa_1-2" data-name="Capa 1"><rect class="cls-1" width="640" height="480" rx="54.82"/><path class="cls-2" d="M505.66,361.08a5,5,0,0,0-1.68-4.36,5.45,5.45,0,0,0,.16-4.12,11,11,0,0,0-.75-1.73v-.13a5.06,5.06,0,0,0,0-4.27,4.24,4.24,0,0,0-1.83-1.8l-.19-.28a6.17,6.17,0,0,0,0-3,11.6,11.6,0,0,1-.19-1.18,7.27,7.27,0,0,0-1-3.24,4.38,4.38,0,0,0-1-1.06l.16-.62a11.05,11.05,0,0,0,.25-6.87,8.1,8.1,0,0,0-3.18-4,6,6,0,0,0-2.12-1.47l-.22-.11a4.28,4.28,0,0,0-1.43-2.27,4.51,4.51,0,0,0-.61-.44,20.34,20.34,0,0,1-.48-2.68,1,1,0,0,1,0-.43,7.55,7.55,0,0,0,0-4.11,7.08,7.08,0,0,1-.16-.92v-.31c2.25-.53,4.94-1.83,4.94-5.66a22.82,22.82,0,0,1,.24-2.86,8.44,8.44,0,0,0,1.08-3.56c.54-4.57.51-5.9.25-6.91a35.85,35.85,0,0,1-.75-3.85,5.92,5.92,0,0,0-.83-2.41,8.71,8.71,0,0,1,.31-1.14,11.57,11.57,0,0,0,.34-6.49v-.15l.09-.13c1.62-2.36,5-7.25,2-12.7-.53-1-.88-1.68-1.13-2.21a8,8,0,0,0-3.52-4.05l-1.23-.78L490.46,255a3.8,3.8,0,0,0-.9-.89l-2.39-1.68a11.57,11.57,0,0,0-5.54-5.18c-2.35-1.12-2.5-1.27-3.05-1.84l-.56-.58a20.06,20.06,0,0,0-6-4.11,8.15,8.15,0,0,0-1.47-.9,8.27,8.27,0,0,0-3.61-3.06l-.28-.25a18.6,18.6,0,0,0-5.39-3.07l-1-.44a9.32,9.32,0,0,0-5.89-2,13.08,13.08,0,0,0-4.81,1,8.39,8.39,0,0,0-2.94-2.35,8.76,8.76,0,0,0,1.81-2.94,8.48,8.48,0,0,0-.57-7.22,13.89,13.89,0,0,0-9.37-6.92,5.84,5.84,0,0,1-1.24-.42,9.48,9.48,0,0,0-4.88-1.26h-.17a11.81,11.81,0,0,0-5.65-4,7.93,7.93,0,0,0-5.18-.66,9,9,0,0,0-1.93-.21,8.82,8.82,0,0,0-1.7.16,8.26,8.26,0,0,0-1.47-.85,9.21,9.21,0,0,0-3.39-.77,8.47,8.47,0,0,0-2.94-.88,8.23,8.23,0,0,0,4.18-8.93c-1-5.08-5.42-6.57-9.84-7.25v-5.08a1.88,1.88,0,0,1,.55-1.34A20.79,20.79,0,0,0,412,170.73a3.11,3.11,0,0,1,.61,0,19.53,19.53,0,0,0,22.51-19.46c0-1.33.67-1.61,1.61-2.05,9.82-4.6,15.2-12.36,15.19-23.2s-5.47-18.67-15.34-23.19a2.13,2.13,0,0,1-1.47-2.3,19.32,19.32,0,0,0-14.66-18.66,61.51,61.51,0,0,0-8.56-.9c-2.94-8.22-8.84-13.43-18.06-13.76-10-.35-16.42,5-19.84,14.11a1.15,1.15,0,0,1-.37,0c-9.81-1.16-17.84,3.54-21.45,12.64a1.57,1.57,0,0,1-1.78,1.17H336.84a22.71,22.71,0,0,0-12.2,3.27c-2.63,1.63-5,3.71-7.51,5.6,0-.34-.18-.86-.25-1.36-1.47-9.27-9.16-17.34-18.5-18.31C291.72,83.64,285,84,278.24,84c-.09,0-.18.15-.5.44a75.44,75.44,0,0,0,.72,9.73,22.35,22.35,0,0,0,22,17.84h11v13c-.33-.28-.51-.41-.67-.58a22.69,22.69,0,0,0-17-6.82H279.6a13.79,13.79,0,0,0-1.77.08v5.76A22,22,0,0,0,295,144.85c4.62.92,9.51.57,14.3.78h2.22v13.09l-1.35-1.26a22.24,22.24,0,0,0-15.38-6.22H279.48a9.89,9.89,0,0,0-1.65.1v5.89A22.11,22.11,0,0,0,290,176.8a21.24,21.24,0,0,0,10.62,2.55h10.8V189c-1,0-2.05.09-2.95.15h-1.18c-1.21-.1-2.44-.16-3.65-.16a46.55,46.55,0,0,0-13.11,2,25.15,25.15,0,0,1-2.6-.26,33,33,0,0,0-4.77-.41,14.42,14.42,0,0,0-5.36.94,54.23,54.23,0,0,1-9.16,1h-.67l-.47-.42a9.9,9.9,0,0,0-.2-6.93c-.78-2.07-.78-2.07-7.16-7.24-1.48-1.19-3.46-2.81-3.82-3.12a11,11,0,0,0-7.57-2.36,23,23,0,0,0-2.56.09l-.71-.29a27.88,27.88,0,0,0-10.56-2.61,15.87,15.87,0,0,0-2.67.23,16.06,16.06,0,0,0-.43-1.79,9.6,9.6,0,0,0-2.81-8.55,10.87,10.87,0,0,0-3.52-2.59,8.55,8.55,0,0,0-3.42-.71,16.26,16.26,0,0,0-8.73,3.05l-.25.22a8.56,8.56,0,0,0-5.68,6.46l-.16.33c-1.47,3.33-1.84,6.19-1,8.56a8.72,8.72,0,0,0-2.06.61,39.21,39.21,0,0,1-4.16,1.47l-1,.34h-.4a12.36,12.36,0,0,0-7.37,2.34l-1,.24a19.14,19.14,0,0,0-6.22,2.18,9.37,9.37,0,0,0-1.72-2.05,9.75,9.75,0,0,0-.39-1.68c.81-3.86,0-6.91-2.6-9.12a8.07,8.07,0,0,0-5.28-2,9.06,9.06,0,0,0-7.44,4.42,15,15,0,0,0-3.1,5.58c-.15.41-.37,1-.52,1.31l-.07.08-.81.25a10.76,10.76,0,0,0-4.42.79,14.15,14.15,0,0,0-7.56,8.84l-.29.78-.39.49a7.87,7.87,0,0,0-1.47,2.75,8.08,8.08,0,0,0-2.06,2.55,28,28,0,0,0-2,4.24v.12a11.83,11.83,0,0,0-.7,5.07c-.27,1-.49,2-.71,2.94a19.81,19.81,0,0,1-2.11,6.35l-.37.33c-3,2.6-6.8,5.89-6.82,10.65a8.56,8.56,0,0,0,2.95,6.47,8.44,8.44,0,0,0,5.54,2.06,9.84,9.84,0,0,0,3.18-.55,11,11,0,0,0,2.08,1.12,8.08,8.08,0,0,0,.76,1.08,13.63,13.63,0,0,0,1.48,5.52,8,8,0,0,0,.56.87,8,8,0,0,0,.76,1.81,8.09,8.09,0,0,0,3.55,3.3,7.94,7.94,0,0,0,1.92,2.24l-.31.47a43,43,0,0,0-2.64,4.42c-2.58,5.32-.77,8.93.69,10.71a8.38,8.38,0,0,0,2.58,4.16,12.23,12.23,0,0,0,4.67,2.5,15.11,15.11,0,0,0,8.66,8.68,8.93,8.93,0,0,0,3.64.72,70.16,70.16,0,0,0,10-1.47l.77-.14a14.37,14.37,0,0,1,1.7.62,15.67,15.67,0,0,0,6,1.47,10.41,10.41,0,0,0,4.19-.86,21.22,21.22,0,0,1,5.4-2,21.89,21.89,0,0,1,5,1.36l.5.19a14.51,14.51,0,0,0,6.1,1.13,14.45,14.45,0,0,0,5.24,5.78l.53.37a31.36,31.36,0,0,0,6.81,7.36,8.27,8.27,0,0,0,4.4,4.6,9.54,9.54,0,0,0,3.83.81,9,9,0,0,0,2.37-.31,8.84,8.84,0,0,0,7.53-1.89,9.45,9.45,0,0,0,3.74.74h.36a9.47,9.47,0,0,0,4.86,1.35,8.68,8.68,0,0,0,3.55-.73,8.22,8.22,0,0,0,1.47-.84,22.57,22.57,0,0,0,2.46.16,12.51,12.51,0,0,0,3.6-.49,8,8,0,0,0,1.31-.5,16.72,16.72,0,0,0,2.65.22,11.73,11.73,0,0,0,2.36-.23v.13a10.29,10.29,0,0,0-.64,4h-.09c-4.21,3.69-4,9.55-3.81,13.44v.93c-.94,9.47.16,17.48,3.37,24.49a6.78,6.78,0,0,0,.55,1,12.72,12.72,0,0,0,5.64,5.89l.23.15.27.37a12.56,12.56,0,0,0,.69,1.31l-2,1.37c-4.61,3.23-6.9,5.08-7.78,8.16a8.06,8.06,0,0,0,.75,6.26,9.85,9.85,0,0,0,8,4.66c5.54,5,7,7.23,7.26,8.26a7.63,7.63,0,0,0,.32,1.06l.4,1.05.1.25c.81,1.91,1.48,4.12,2.27,6.47,2.17,6.71,4.61,14.31,10.86,19.76a7.58,7.58,0,0,0,1,.77l.39.25a13,13,0,0,0,4,2.11,8.14,8.14,0,0,0,3.4,2.83,13.94,13.94,0,0,0,5.59,1.17,18.67,18.67,0,0,0,10.85-4.14c.4-.27.93-.64,1.17-.78l.53-.19a8.53,8.53,0,0,0,13.17.5,10.44,10.44,0,0,0,2.68-.73,9,9,0,0,0,4.54-4.42c.66-.4,1.47-1,2.29-1.56a8.34,8.34,0,0,0,1,0,8.6,8.6,0,0,0,3.47-.73,16.42,16.42,0,0,0,4.53-3.12l.43-.37a7.78,7.78,0,0,0,2.11-.63,9.68,9.68,0,0,0,2.34.29,8.61,8.61,0,0,0,5.69-2.1c2.75-2.42,3.72-5.89,4.67-9.24v-.25l2.71-.75c6.27-1.71,9.13-2.53,11.27-4.42a9.25,9.25,0,0,0,3.13-8.4c-.85-5.51-6.21-8.25-7.83-8.95a14.65,14.65,0,0,0-5.9-1.3,13.11,13.11,0,0,0-2,.16,12.43,12.43,0,0,0-3.55-6.77,7.84,7.84,0,0,0-1.58-3.51,8.72,8.72,0,0,0,.12-3.14,9.27,9.27,0,0,0,.28-2q0-.43,0-.87a8.71,8.71,0,0,0,2.77-1.09c3,.18,7.92.59,10.57.82,3.38,5.06,7,7.62,10.8,7.62a8.63,8.63,0,0,0,4-1,8.85,8.85,0,0,0,5.15-4,14.91,14.91,0,0,0,1.59-6.06,11.23,11.23,0,0,0,2.29-1.83,36.61,36.61,0,0,1,3.75.12h.42a7.85,7.85,0,0,0,3.41.15l2.39-.37c4.42-.65,9.8-1.47,13.77-4.06a8.87,8.87,0,0,0,2.33-2.24c.35-.11.69-.23,1-.37a9.83,9.83,0,0,0,1.47-.78,9.91,9.91,0,0,0,6-.62,13.94,13.94,0,0,0,5.45-4.74c.2-.27.5-.65.69-.87a21,21,0,0,0,8.5-9.06,11.52,11.52,0,0,0,1.16-.28L458,316a5.77,5.77,0,0,0,.67.81,10.92,10.92,0,0,0,.89.77v.31l-.92,2.34a4,4,0,0,0-.25,1.75v.53l-2.12,2.43a3.84,3.84,0,0,0-1.07,3.36,5.13,5.13,0,0,0,5.14,4.23,14.71,14.71,0,0,0,1.62-.12,5.87,5.87,0,0,1,2.13,0l.83.19a6.07,6.07,0,0,0,0,3.77,4.1,4.1,0,0,0,1.72,2,5.35,5.35,0,0,0,.87,1.93c.19.26.37.48.53.69a6.28,6.28,0,0,0-.94,1.12,5.64,5.64,0,0,0-.31.53,11.55,11.55,0,0,0-1.06,1.15l-.18.22a4,4,0,0,0-3.92,4.26,4.69,4.69,0,0,0,1.58,3.59l-.43.78a21.58,21.58,0,0,0-3.16,9.56V363c-1.48,1.86-.5,4,.19,5.67a37.77,37.77,0,0,1,1.47,3.83l.19.56.09.27a6.33,6.33,0,0,0,.19,1.68,5.91,5.91,0,0,0,2.46,3.73l1,.78v.56a5.63,5.63,0,0,0-.63,2.52V383a5,5,0,0,0,2.17,6.12,4.49,4.49,0,0,0,3.81,3.06,15.44,15.44,0,0,0,1.28,1.62,10,10,0,0,0,2.51,2.12V396a8.88,8.88,0,0,0,3.09,3.64A11.69,11.69,0,0,0,482.5,401h.21a4,4,0,0,0,1.22,1.47,3.79,3.79,0,0,0,2.27.72,5.62,5.62,0,0,0,1.47-.22,4.72,4.72,0,0,0,4.23-2.71,2.46,2.46,0,0,1,.34-.44,4.72,4.72,0,0,0,1.36-3.13,5.11,5.11,0,0,0,3.16-4.41l.09-.45a6.14,6.14,0,0,0,.27-1.47,2.89,2.89,0,0,1,.42-.72,3.66,3.66,0,0,0,.84-3.49,1.75,1.75,0,0,1,0-.56,4.35,4.35,0,0,0,2.32-.9,5.88,5.88,0,0,0,2-4.42l.34-3.34a2.54,2.54,0,0,0,0-.39V375a5.2,5.2,0,0,0,0-3.17l.11-.31c.08-.31.16-.59.22-.84a5.39,5.39,0,0,0,3.4-5.29,9.61,9.61,0,0,0-1.09-4.33ZM311.47,140.19a131.58,131.58,0,0,1-14.58-.63c-7.64-1.15-13.8-9.11-13.14-16.53a126.7,126.7,0,0,1,14.58.63c7.59,1.17,13.75,9.12,13.14,16.53ZM297,105.88c-7.68-1-13.51-8.47-13.39-16.08.09-.08.16-.23.25-.23a117.65,117.65,0,0,1,14.3.39,16.19,16.19,0,0,1,13.27,16c-4.89,0-9.78.51-14.51-.12ZM492,330.63c.33.24.33.24.38.34a8.76,8.76,0,0,1-.43,2.27l-.09.33-21.49,21.27a5.6,5.6,0,0,0,.68-3.08v-.46a6.37,6.37,0,0,0-.21-1.62,9.68,9.68,0,0,0,.87-.94,3.85,3.85,0,0,1,.52-.55,6.89,6.89,0,0,0,1-1,8.14,8.14,0,0,0,2.64-3.88,6.36,6.36,0,0,0,.22-2.71v-.35a4.83,4.83,0,0,0-.22-1.36l11.78-11.78c.15.2.31.43.45.6l.19.24q1.91,1.28,3.68,2.72l0,0Zm-3.45-26.32.35-.34v.3h-.28l-.07,0Zm-15.87-54.09.46.45a14.43,14.43,0,0,0,5.3,3.48,5.54,5.54,0,0,1,1.17.75l-18.68,18.68a4.05,4.05,0,0,0,.25-1.3v-2.34a3.87,3.87,0,0,0-2.09-3.43,11.65,11.65,0,0,0-.8-1.18l-.12-.15a8.63,8.63,0,0,0-5.23-3.28l.22-.37a10,10,0,0,0,3.19-1.35,11.71,11.71,0,0,0,1.65-1.33,13.62,13.62,0,0,0,5.21-3.62,7.9,7.9,0,0,0,1.27-1l.34-.22c.61-.41,1.31-.88,2-1.47a3.86,3.86,0,0,0,2.34-1.71l.58-.94a13.32,13.32,0,0,0,.91-1.22,14.19,14.19,0,0,1,2,1.54v.05Zm-34.78,46.15.72-.62h.15l-.76.77-.11-.15Zm4.94-4.7a4.26,4.26,0,0,0,.07-1.63,4.43,4.43,0,0,0-1.25-2.48,7.7,7.7,0,0,0,.12-2.62,10,10,0,0,0,6.33-.61,8.9,8.9,0,0,0,3.33-2.56l.56-.22a11,11,0,0,0,2.39-1.47l-11.55,11.59ZM423,214l.66.35c2.73.47,3.1,3.73,5.19,4.64a1.75,1.75,0,0,0,.75.13c.84,0,1.91-.31,2.77-.31a1.69,1.69,0,0,1,.85.2c3.18,1.85,5.62.75,7.71,4.42.9,1.57-6.65,2.59-7,3.94-.84,3,4.11,5.22,6.11,7,.25.22.23.68.29,1.14h-4.42A1.92,1.92,0,0,1,433.6,234c-1.57-4.34-3-8.72-5-12.9a13.31,13.31,0,0,0-6.14-6.53A2,2,0,0,0,423,214v0Zm-109.11,4.62h23.49a7.5,7.5,0,0,1,7.23,4.13c1.92,4,3.35,8.29,5,12.62h-48c.4-1.09.76-2.1,1.13-3.11,1-2.72,2-5.48,3.1-8.19a8.29,8.29,0,0,1,8-5.49v0ZM336.52,213h-3.3a8,8,0,0,1,7.51-5.59h48.41c3.59,0,6.1,2,7.72,5.57H393.1A14.16,14.16,0,0,0,379,222.71c-1.48,3.76-2.86,7.53-4.22,11.32a1.76,1.76,0,0,1-2,1.47c-5.2,0-10.42-.07-15.62,0a1.84,1.84,0,0,1-2.09-1.47c-1.31-3.69-2.73-7.37-4.11-11-2.58-6.76-7.35-10.06-14.45-10.06Zm42.72-68.15c-5.89-5.76-11.58-11.56-17.37-17.35-.44-.44-.87-.92-1.33-1.4l4.31-4,21.83,21.84.51-.29V110.86c1.92.94,3.57,1.68,5.08,2.59a2.14,2.14,0,0,1,.59,1.62v12.64l18.39-9.15,3.34,6.46-4.08,2.74A25.18,25.18,0,0,0,398.56,150V205.7a14.91,14.91,0,0,0-11.22-3.93V164.36a26.07,26.07,0,0,0-8.1-19.53ZM385,223A7.49,7.49,0,0,1,392,218.6h8.69a1.21,1.21,0,0,0,.28.39.85.85,0,0,0,.53.22,1.72,1.72,0,0,0,1.09-.61h13.58a7.37,7.37,0,0,1,7,4.23c1.86,4,3.27,8.21,4.94,12.49h-48c1.64-4.19,3-8.35,4.83-12.31Zm28-10.41a.65.65,0,0,1,.3.37h-2.12a3.6,3.6,0,0,1,1.32-.47,1.19,1.19,0,0,1,.59.1Zm-4.52-.93a1.21,1.21,0,0,1,.46-.12c.69,0,.53,1.09.88,1.48h-2c.16-.7.36-1.2.75-1.36Zm-2.56-14.91a5.48,5.48,0,0,1-1.65.31v-1.56c1.81.38,2.78.8,1.65,1.25Zm-48.62-90.56c-1.73-6.25-.92-11.94,4.23-16.21s10.95-4,17-1.15c.16-1.12.34-2,.41-2.94a14.05,14.05,0,0,1,28.08,0,26.11,26.11,0,0,0,.34,2.87c5.89-2.74,11.68-3.23,16.89,1.07s6.19,9.92,4.35,16.28c11.21,2.58,18.07,9.12,17.56,20.91-.47,10.65-7.18,16.49-17.53,18.69,1.75,6.29.91,12-4.26,16.2s-11,4-17,1.15c-.57,3.54-.56,7.09-3.21,10.31V150a19.74,19.74,0,0,1,9.18-17.33l8.47-5.65-8-15.94-15.23,7.66v-7.26a2,2,0,0,0-.78-1.48c-5.14-2.63-10.31-5.18-15.5-7.76h-.53v28.28l-16.62-16.7-12.43,12.4c.27.27.68.74,1.12,1.16q10.85,10.86,21.71,21.7A19.86,19.86,0,0,1,381.74,164v9.55c-2.53-3.24-2.74-6.66-3.14-10.32-5.89,2.74-11.68,3.25-16.88-1s-6.2-9.9-4.42-16.31c-11.41-2.64-18.28-9.37-17.51-21.37.69-10.42,7.36-16.1,17.53-18.24l-.08,0Zm-34.66.7a19.1,19.1,0,0,1,14-6.14h14.06c.39,1,.2,1.47-.79,1.87a25.05,25.05,0,0,0-14,13.92c-.19.43-.75,1-1.14,1H317.44a18.55,18.55,0,0,1,5.14-10.64Zm-5.29,16.43H334v5.42a23.32,23.32,0,0,0-16.72,7.53V123.34Zm.59,23.23a16.85,16.85,0,0,1,16.21-12.17,1.91,1.91,0,0,1,1.94,1.24c1.7,3,3.6,5.89,5.61,9.21A15.76,15.76,0,0,1,330,151.11c-4.18.28-8.4,0-12.95,0,.33-1.48.43-3.07.84-4.54ZM297.14,173.2a16.21,16.21,0,0,1-13.57-16.11c.08-.08.17-.22.25-.22a119.34,119.34,0,0,1,14.15.35,16.29,16.29,0,0,1,13.5,16.16c-4.83,0-9.64.5-14.33-.18Zm20.15,17.28h10.18c13.67,0,23.4-9.73,23.4-23.41v-4.18c-7.06,0-13.95-.25-20.8.09-4.42.22-7.87,2.55-12.88,7V156.87h10.92a21.32,21.32,0,0,0,12.41-3.63,74,74,0,0,0,6.31-5.27,26.8,26.8,0,0,1,3.3,1.66,2.31,2.31,0,0,1,.71,1.7A19.7,19.7,0,0,0,371.36,171c.81,0,1.62-.13,2.57-.22.23.53.48,1.11.7,1.68a19.78,19.78,0,0,0,6.08,8.15,2.66,2.66,0,0,1,1,1.62v19.55H341.79c-6.38,0-11,2.72-13.67,8.53-.94,2.07-2.05,3.06-4.42,2.77a52.23,52.23,0,0,0-6.38,0V191l0-.5Zm0-5.61A16.57,16.57,0,0,1,332,168.22a124.8,124.8,0,0,1,13.26-.08,16.68,16.68,0,0,1-6.52,13.16A16.05,16.05,0,0,1,328.7,185H317.25l0-.12ZM215.18,167.31c0-1.19,2-.66,2.65-1.4.28-.32.35-.71.74-1a10.64,10.64,0,0,1,3.49-1.07h.22a6,6,0,0,1,1.26,1.1c.81.71-.28,3.1.14,4a8.84,8.84,0,0,1,.7,2.95l-1-.08a8,8,0,0,0-4.2-1.17,8.73,8.73,0,0,0-5,1.75,2,2,0,0,0-.41-.5c-.65-.58,1.34-3.46,1.34-4.54Zm-32.9,41.62.86.91a9.91,9.91,0,0,0,3.12,6.08,10.85,10.85,0,0,0,.84,4.13c-.37.22-.72.47-1.08.72h-1.38A8.23,8.23,0,0,0,182,216a7.65,7.65,0,0,0-3.24-1.72,8,8,0,0,0-.3-.95c.09-.21.17-.43.24-.64a23.66,23.66,0,0,0,2.22-2.57,8.63,8.63,0,0,0,1.4-1.23ZM441.11,319.31c-2.55,1.12-3.73,4.53-5.58,5.34a2,2,0,0,1-.79.17c-1.37,0-2.46-1.48-3.78-1.48a1.86,1.86,0,0,0-.74.16c-1.18.52-1.22,2.17-2.12,2.55a3.4,3.4,0,0,1-1.34.18H426a2.73,2.73,0,0,0-1.78.41c-.75.65.16,2.12-.66,2.67-3.14,2.06-9.19,2.56-13.16,3.25l-.79-.23c-.68,0-3.35-.16-5.72-.16-1.93,0-3.68.11-4,.51-.72.94-1.3,2.14-2.52,2.67a1.34,1.34,0,0,1-.4,0c-.53,0-1.32-.19-1.87-.19a.78.78,0,0,0-.53.13c-.35.31-.44,7.36-1.19,8.71-.16.28-1.47.53-1.86.81a.57.57,0,0,1-.38.14c-1.58,0-4.95-5.27-5.32-5.89s-2-1-2.52-1.4c-.11-.1-12.81-1.21-15.74-1.21a1.94,1.94,0,0,0-.59,0c-.21.14-1.14,1.3-1.48,1.3-.9-.4-1.31-4.05-2.38-5a2.71,2.71,0,0,0-1.71-.4c-1.48,0-3.52.4-4.95.4a4.63,4.63,0,0,1-1.05-.12c-2.38-.69-4.74-2.61-7.17-3.14a2.91,2.91,0,0,0-.59,0,4.84,4.84,0,0,0-1.93.53c-3.89,1.69,1.25,5.22,3.05,7.2l.4.58c0,3.77,2.65,2.71,5.58,4.42a25.68,25.68,0,0,1,4.12,3.37c1.05.91-.6,1.93-1.06,2.33-.9.78,1.48,1.25,1.2,2a9,9,0,0,0-.14,5.45c.27.71.95.87,1.6,1.17.33.14-.39,2,.13,2.44.9.78,3.44,2.31,3.44,4.64,0,1.58-1,1.87-1.72,3.14-1.22,2.14,5,4.2,6.11,4.52a1.88,1.88,0,0,0,.52.08c1.47,0,2.59-1.64,4.92-1.64a6.69,6.69,0,0,1,2.67.62c.92.41,4.49,2.46,2.65,4.07-1.47,1.28-11.6,3.38-14.48,4.64-1.64.7-2.32,8.29-4.26,10a.59.59,0,0,1-.44.15c-1,0-2.95-1.4-4.42-1.4a1.47,1.47,0,0,0-1.47,1.25l.13.58c-3.11,0-4.63,3.06-6.91,4.06a.66.66,0,0,1-.28,0c-.75,0-1.25-1.38-1.89-1.38a.54.54,0,0,0-.36.16c-.28.25-4.73,3.7-5.06,3.83a.66.66,0,0,1-.28,0c-.47,0-1.16-.25-1.75-.25a1.37,1.37,0,0,0-.49.09c-1.37.59.39,3.37-1.19,4.07-.84.36-3.4.19-4,.69s-1.15,2.25-1.93,2.25a.37.37,0,0,1-.21,0c-.79-.35.36-1.68-.13-2.33a7.76,7.76,0,0,0-4.11-2.07,1.24,1.24,0,0,0-.54.1c-1.63.71-3.79,1.08-5.59,1.86-2.27,1-5.21,4.22-8.84,4.22a5.92,5.92,0,0,1-2.38-.51c-.18-.08.1-.86,0-1.05-1-1.84-4.42-1.47-5.9-2.94l-.92-.58c-6.38-5.64-7.72-15.63-11-23.32l-.4-1c-1.09-4.75-6.9-10-11.15-13.7-1.18-1-4.29-.3-4.92-1.4-.42-.74,9-6.87,9.56-7.21l.53-.57c5.32-4.64-1-5.89-1.73-9.64l-.53-.47c-1.25-2.72-4.9-2.72-5.45-5.45l-.39-.47c-2.95-6.41-3.45-13.33-2.66-20.78v-.48c0-1.87-.56-6.93,1.06-8.35.71-.62,2.2-.51,2.95-1.16s-.51-4.69,0-6c.93-2.43,3.57-2,5.58-3.14.74-.43.37-1.72.27-2.21l-.27-.69a9.69,9.69,0,0,0-9-6,12.61,12.61,0,0,0-5.06,1.13,3,3,0,0,1-1.26.22c-1.25,0-2.75-.44-4-.44a3.19,3.19,0,0,0-1.26.22c-.38.16-.5.69-.92.81a4.55,4.55,0,0,1-1.37.16c-1.56,0-3.42-.47-5-.47a4.6,4.6,0,0,0-1.76.31c-.64.28.14,1.28-.39,1.48a.94.94,0,0,1-.37.07c-.94,0-2-1.3-2.43-1.47a1.53,1.53,0,0,0-.67-.12c-.66,0-1.47.23-2.12.23a1.67,1.67,0,0,1-.66-.11,8.47,8.47,0,0,0-3.2-1.14,2.5,2.5,0,0,0-.66.09,12.29,12.29,0,0,0-4.26,2.21.86.86,0,0,1-.61.25c-.76,0-1.48-1-2.2-1h-.24c-.47.14-.86,1.08-1.75,1.08a1.51,1.51,0,0,1-.65-.15c-.32-.15.45-2.08-.39-2.33-2.2-.63-6.16-4.72-7.37-6.73-1.47-2.55-4.8-2.94-5.45-5.89a1.73,1.73,0,0,0-.6-1.12c-.11,0-.77-1.09-1-1.34a.41.41,0,0,0-.22,0h-.33c-.19,0-.3-.22-.47-.31a7.11,7.11,0,0,0-1-.28c-.51-.18-.69-.72-1.47-.74H213a6.44,6.44,0,0,1-2.94-.5l-.93-.35a24.31,24.31,0,0,0-7.74-1.83c-2.47,0-4.64.92-8.6,2.64a2.39,2.39,0,0,1-1,.19c-2,0-4.65-2-7.77-2a7,7,0,0,0-1.2.11c-1.47.25-7.64,1.47-9.5,1.47a1.19,1.19,0,0,1-.46,0c-1.72-.75-5.31-2.95-4.25-5.8.1-.25,1-.23.66-.81-1.58-2.77-5.52-1.35-7.7-3.26-.48-.41.61-.4.79-.69a1.92,1.92,0,0,0-.4-2c-.25-.32-1.59-.11-2-.47-1.59-1.38,5.06-8.57,5.06-11a9.49,9.49,0,0,0-3.45-5.81l-.66-.11c-.39-.86-.52-2-1.48-2.45a9.89,9.89,0,0,1-2-.69c-.2-.34.31-1.47,0-1.74s-1-.44-1.33-.93c-.65-1.12-.5-5.24-1.19-6.16-.27-.35-1.2-.28-1.2-.69,0-.93,1.21-.07.67-1.47-.87-2.3-6.25.57-6.25-5.23,0-.16-.1-.24-.28-.24-1.06,0-4.92,2.66-6.19,2.66a.56.56,0,0,1-.31-.09c-1.28-1.12,4.13-5.2,4.79-5.9,3.23-3.53,3.73-9.22,4.92-13.34.36-1.25-.16-2.59.27-3.71a20.32,20.32,0,0,1,1.47-3.26c.18-.29,1.47-.43,1.72-.93a25,25,0,0,0,1.2-3.37l.73-.93c1.48-2.21,1.36-5.46,4.42-6.79a4.14,4.14,0,0,1,1.31-.13h1a2.37,2.37,0,0,0,1-.18c.58-.5,1.71-.49,2.46-.81a7.46,7.46,0,0,0,2-1.66c2.39-2.1,2.45-5.9,4-7.37.2-.16,1.24-1.75,1.48-1.75.62.54-.33,2.83-.53,3.37-.37,1,.57,1.62.79,2.21s-.26,1.67,0,2.39,1.28.92,1.36,2c0,.43,1,.59,1.29.81,1,.87.93,3.95,1.4,5.17.3.77,1,1,1,2,0,.39.27,1.11.21,1.23-.37.63-.6,1.47-.93,2.21l-.2.29a4,4,0,0,0,.2.58c.42.35,3.35.54,2.52,2-.22.38-.93.31-1.26.75s.07,1.14-.4,1.34-2.49.52-2.65.81-.15,1-.48,1.48-1.06.53-1.26.86a14.47,14.47,0,0,1-2.73,3.26c-.25.22-1,.38-1.13.63-.37.67,0,1.58-.34,2.21s-2,.58-2.33,1.23,1,2.51,1,3.31a2.72,2.72,0,0,0,0,.57c.53.24,1.48,0,1.33.87v.36c0,3.95,1.07,1.47,1.24,4.18.1,1.81.31,3.92,1,3.92.28,0,.64-.35,1.11-1.25.2-.4-.1-1.48.13-1.74a1,1,0,0,1,.49,0,8.69,8.69,0,0,1,1.76.18c.43.36-.79.86-.79,1.4,0,1.47-.22,4.68.93,5.68a.88.88,0,0,0,.6,0c.55,0,1.31-.16,1.87-.16a1,1,0,0,1,.62.15c.27.22.71,1.17,1.11,1.17h.1a26.68,26.68,0,0,1,3.31-1.62h.39c1,0,2.94.59,3.74.59.15,0,.23,0,.26-.07a7.4,7.4,0,0,1,3.58-3c1.48-.42,3.63-5.43,3.32-6.73s-2.2-2.64-1.33-4.64l-.13-1c-.44-.59-.18-1.4-.53-1.86-.74-1-1.86-1.37-2.39-2.33-.68-1.18-.17-3.3-1.32-4.3a34.39,34.39,0,0,1-6.25-8c-.28-.5,1.37-1.59,1.06-1.86s-1.93-1.22-1.72-1.4c1.63-1.47,2.94-3.74,4.65-5.23,2-1.78,7.12-1.38,8.63-3.37.45-.53,3.86-.53,4.6-.78,2.17-.75,4.33-1.48,6.38-2.33a1.39,1.39,0,0,1,.57-.09c1,0,2.52.43,3.57.43a1.46,1.46,0,0,0,.91-.22l.24-.18a11.23,11.23,0,0,0,4.24.9,8.77,8.77,0,0,0,3.93-.93c.42-.13,1.31-.37,1.87-.5a14.78,14.78,0,0,0,6.59-2.83l.21-.22c1-.38,1.88-.76,2.46-1a7,7,0,0,1,2.79-.54c3.53,0,7.37,2.08,9.42,2.75l.53.24c.76,0,2.44-.16,3.89-.16a4.3,4.3,0,0,1,2.34.4c.85.73,8.72,7.08,8.84,7.2,1.37,3.58-5.44,4.54-1.86,7.66.31.26.62,1.31.8,1.4a1.21,1.21,0,0,0,.5.07h1.13a1.48,1.48,0,0,1,.62.11c.83.36,2,2,4.13,2.94a10.11,10.11,0,0,0,3.46.4,51.69,51.69,0,0,0,11.94-1.47,6.54,6.54,0,0,1,2.58-.45c2.32,0,5.07.7,7.37.7a7.51,7.51,0,0,0,2-.25A39.34,39.34,0,0,1,303.58,197a21,21,0,0,1,2.94.14l.8.11c.91,0,2.86-.23,4.13-.23v16.2c-6.27,1.71-9.14,4.42-11.41,10.4-1.32,3.55-2.69,7.1-3.94,10.67a1.65,1.65,0,0,1-1.91,1.28c-1.66-.09-3.34,0-5,0V241H440.55v-4.7a.53.53,0,0,0,.12.14,1.1,1.1,0,0,0,.75.18h.82c.62,0,1.18.12,1.23.88l.26.58c0,1.75.18,2.24.47,2.24s.9-.72,1.48-.72a.79.79,0,0,1,.54.22c.31.28-.37,1.29.13,1.47a1.5,1.5,0,0,0,.59.1,5.22,5.22,0,0,0,1.74-.42h3.08v-1.39a7,7,0,0,1,2.5-.72,1.47,1.47,0,0,1,1,.32c1.47,1.33,4.42,1.82,6.11,3.26.34.29.95,1.4,1.33,1.4a2.41,2.41,0,0,1,.84.12c0,.2,0,.41,0,.62a4.51,4.51,0,0,0-1.9,1.16c-.77.77-1.39,1.47-1.86,2l-1,.63a11.33,11.33,0,0,0-1.23.56l-.62.33a29.23,29.23,0,0,0-4.08,2.63,4.83,4.83,0,0,0-4.52,1.22,8.73,8.73,0,0,0-1,1.27c-1.62.74-.5,1.61-1.47,3.4-.12.21-.43.23-.77.23h-.29c-.56,0-1,0-.53.94l.13.69a21.45,21.45,0,0,0-1.73,1.28c-.19.16.23,1.31.89,2.8a4.23,4.23,0,0,0,1.12,2.37c.29.59.59,1.17.88,1.74a3.91,3.91,0,0,0,.44,2.95l1.34,2.18a4.19,4.19,0,0,0,.45.59,5.46,5.46,0,0,0-2.29,1.09,4.22,4.22,0,0,0-5,.85,2.36,2.36,0,0,0-.88-.2,1.92,1.92,0,0,0-.78.17,1.31,1.31,0,0,0-.57.52,3.87,3.87,0,0,0-2.76,1c-1.27.07-2.62.19-3.05.94-.26.47-.47,2-.79,2.33-1.6,1.38-2.77.37-.27,2.55.5.43-1.22.68-.93.93a1.87,1.87,0,0,0,1.31.39h1a1.3,1.3,0,0,1,.62.12,3.82,3.82,0,0,0,.33,1.14,1,1,0,0,1-.09.48v.12a3.76,3.76,0,0,0-.74,1.36,3.87,3.87,0,0,0-.13,1.07c-1.94,2.45-5.73,3.63-5.26,7.37v.57c.62.9.81,1.47,1.64,2a3.85,3.85,0,0,0,.63,1l1,1.12a2.88,2.88,0,0,0,.75,1.47q.6.39,1.23.72L443.55,315a3.82,3.82,0,0,0,1.37,1,13.93,13.93,0,0,1-3.81,3.32Zm10.31-12.91a11.81,11.81,0,0,0-5.69-3.2,11.34,11.34,0,0,1-1.47-1.47c0-.12-.16-.23-.23-.35l41-41,2.52,3.43a3.84,3.84,0,0,0,1,1l1.84,1.18.4.27c0,.13.16.3.25.48l-39.67,39.7Zm14.13,6.17c-.52-.33-1.12-.78-1.36-.95a15.53,15.53,0,0,1-1.29-2.1,3.8,3.8,0,0,0-2-1.67l28.52-28.58a6.05,6.05,0,0,0,.16,1,4,4,0,0,1-.1,2.54c-1,3.11-1,5.14.21,7.23.1.74.23,1.47.38,2.23l-23.28,21.93a3.79,3.79,0,0,0-1.31-1.58Zm2,12.73-1-.23,16.6-15.65a8.15,8.15,0,0,0,.84,3.39,9.28,9.28,0,0,0,.28,1.62v.34a8.08,8.08,0,0,0-.31,3.17,9.84,9.84,0,0,0,.24,1.73l-10.68,10.71a5.08,5.08,0,0,0-1.95-3.61,9.8,9.8,0,0,0-4.05-1.47Zm3.07,48.61-.62-.47-.65-.51a8.34,8.34,0,0,0-.47-2.27l-.18-.52a21.7,21.7,0,0,0-.75-2l25.75-25.49a.75.75,0,0,0,.09.43c0,.1-.08.21-.13.31a3.87,3.87,0,0,0,.82,4.93,4.57,4.57,0,0,1,.68.71l.15.25-24.69,24.67Zm20.08,12.19a8.4,8.4,0,0,0-1.17,3.21v.26l-.07.3a6,6,0,0,0-3.54,3.5,3.59,3.59,0,0,0-1.38-.29,3.2,3.2,0,0,0-1,.16h-.23l-.74-.07,8.29-8.46a9.9,9.9,0,0,0-.23,1.43l.09,0Zm7-21.14a6,6,0,0,0-1.7,3.4l-19,19.42a3.84,3.84,0,0,0-3.27-3.38,3.94,3.94,0,0,0-1.28-1.38l23.18-23.23a4.79,4.79,0,0,0,.59,1.28,4.5,4.5,0,0,0,1.37,1.31,3.86,3.86,0,0,0,.89,1.71l.1.15a4.84,4.84,0,0,0-.94.75l.09,0Z"/></g></g></svg>