<svg xmlns="http://www.w3.org/2000/svg" viewBox="0 0 342.46 342.46"><defs><style>.cls-1,.cls-3{fill:#928440;}.cls-2{fill:#fff;}.cls-3{fill-rule:evenodd;}</style></defs><g id="Capa_2" data-name="Capa 2"><g id="Capa_1-2" data-name="Capa 1"><path class="cls-1" d="M144.17,251.5c1.84,2.45,3.59,4.77,5.32,7.1.94,1.26.94,1.94,0,3.17-4.17,5.37-8.35,10.72-12.51,16.1a2.88,2.88,0,0,1-2.52,1.2c-7.11,0-14.22,0-21.34,0-2,0-2.74-.7-2.43-2.66a40.33,40.33,0,0,1,1.41-5A14.61,14.61,0,0,1,101,263.52l-6.57,11c-.67,1.12-1.36,2.22-2,3.34a2.32,2.32,0,0,1-2.22,1.25H68.36c-1.63,0-2.22-.65-2.3-2.29-.19-3.51.74-6.54,3.69-8.7a8.68,8.68,0,0,1,7-1.6c1.54.29,3.08.63,4.62.88a1.13,1.13,0,0,0,1-.31c1.37-2.19,2.69-4.43,4.13-6.84a22,22,0,0,0-2.33-1.77c-5.07-2.9-10.34-5.5-15.23-8.68a68.3,68.3,0,0,1-21.18-22.29c-2-3.32-4.31-6.51-5.26-10.34a16.4,16.4,0,0,1-.63-4.74,6.35,6.35,0,0,1,5.23-5.91,10.44,10.44,0,0,0,6.34-3.58,16,16,0,0,1,22.84-.41,9.44,9.44,0,0,0,3.55,2.19,71.48,71.48,0,0,0,20.85,4c4.41.17,8.62-1,12.89-1.87,13-2.79,24.62.24,34.34,9.35,10.32,9.67,8.89,26.47-2.69,34.62ZM69.94,275.28h1c5.81,0,11.63,0,17.44,0a1.67,1.67,0,0,0,1.67-1c2.8-4.73,5.61-9.45,8.48-14.14a3.18,3.18,0,0,0-.07-3.8c-2.49-3.87-4.88-7.79-7.33-11.68-1-1.57-.65-3.28-.38-4.91.07-.46,1-.88,1.58-1.13a2.9,2.9,0,0,1,1.39.08c5.17.74,10.34,1.5,15.51,2.21a2.39,2.39,0,0,0,1.42-.27,48.5,48.5,0,0,1,25-6.93c1.37,0,2.25.72,2.29,1.84s-.86,1.91-2.32,1.93a48,48,0,0,0-13.56,2.13c-6.54,2-12.25,5.25-16.46,10.79a10.23,10.23,0,0,0-1.29,11.2,10.09,10.09,0,0,0,9.6,6.06c4.68.06,9.35,0,14,0a1.36,1.36,0,0,0,1.37-.83c1-1.9,2.1-3.78,3.16-5.65.77-1.36,1.82-1.78,2.86-1.17s1.17,1.68.45,3c-1.28,2.3-2.62,4.57-3.85,6.89a2.66,2.66,0,0,1-2.65,1.55c-3,0-6,0-9.08,0a6.17,6.17,0,0,0-5.4,3.66c.06,0,.12.09.18.09q9.32,0,18.63,0a1.28,1.28,0,0,0,.87-.43q5.52-7.05,11-14.15a1,1,0,0,0,.05-1c-1.53-2.13-3.12-4.22-4.53-6.09a52.2,52.2,0,0,1-6,.83c-4.83.13-9.66.07-14.49.08-1.57,0-2.43-.71-2.39-1.94s.85-1.82,2.39-1.83c4.32,0,8.64-.14,13,0a15,15,0,0,0,9.16-2.79,18.75,18.75,0,0,0,2.27-29.4c-8.63-7.77-18.79-10.48-30.17-8.15-4.19.86-8.31,2.06-12.63,2A72.27,72.27,0,0,1,80,208.69a17.27,17.27,0,0,1-6.75-3.83c-3.35-3.16-7.51-3.9-12-2.58a12.58,12.58,0,0,0-7,5.34,3.72,3.72,0,0,1-2.86,1.8c-1,.12-2,.33-3,.54a3.3,3.3,0,0,0-2.81,4.14,11.78,11.78,0,0,0,.69,2.49,2.15,2.15,0,0,0,1,1.08c2.07.84,4.19,1.56,6.27,2.39a15.94,15.94,0,0,0,11.05.63,1.88,1.88,0,1,1,1.12,3.58c-.68.24-1.39.41-2.18.63.27.3.44.5.63.69a43.43,43.43,0,0,0,12.59,8.8,3.26,3.26,0,0,1,2,2.61c.64,3.39,1.35,6.77,2.08,10.15a4.25,4.25,0,0,0,.8,1.64q4,4.94,8.11,9.82a2.22,2.22,0,0,1,.26,2.89c-1.79,2.92-3.54,5.85-5.28,8.79a2.14,2.14,0,0,1-2.57,1.11q-3-.67-6.12-1.23A5.12,5.12,0,0,0,69.94,275.28ZM49.15,222.42A68.55,68.55,0,0,0,78.31,251a21.54,21.54,0,0,1-1-2.83c-.69-3.06-1.32-6.14-1.88-9.22a2.05,2.05,0,0,0-1.26-1.65,44.36,44.36,0,0,1-13-9.55c-1.54-1.65-3-3-5.44-3.11a10.24,10.24,0,0,1-2.91-.88C51.61,223.36,50.48,222.92,49.15,222.42Zm45.2,20.25,5.75,9.19,5.61-7.56Z"/><path class="cls-1" d="M105.52,219.65a81.37,81.37,0,0,1-20.72-2.59c-.51-.12-1.21-.34-1.39-.73a3,3,0,0,1-.23-2,1.68,1.68,0,0,1,2.15-.95c2.65.54,5.29,1.15,8,1.58a78.93,78.93,0,0,0,30.16-1c1.62-.37,2.65.14,2.84,1.39s-.46,1.92-1.87,2.24A81.24,81.24,0,0,1,105.52,219.65Z"/><path class="cls-1" d="M110.34,228a86.09,86.09,0,0,1-27.66-5.32,1.88,1.88,0,1,1,1.17-3.55c3.81,1.08,7.57,2.36,11.43,3.25a69,69,0,0,0,24.93,1c.16,0,.31-.05.47-.06a1.91,1.91,0,0,1,2.22,1.62,1.81,1.81,0,0,1-1.67,2.05C117.61,227.37,114,227.68,110.34,228Z"/><path class="cls-1" d="M57.79,211.15a7.53,7.53,0,1,1,7.58,7.52A7.51,7.51,0,0,1,57.79,211.15Zm8.39-3.59a3.63,3.63,0,0,0-4.24,1.89,3.8,3.8,0,0,0,.91,4.51,3.7,3.7,0,0,0,4.57.26,3.29,3.29,0,0,0,1.33-4c-.67.7-1.26,1.37-1.9,2-1,1-2.09,1-2.9.17a1.92,1.92,0,0,1,.24-2.81C64.82,208.93,65.47,208.28,66.18,207.56Z"/><path class="cls-1" d="M74.41,216.79a5,5,0,1,1-5,4.91A5,5,0,0,1,74.41,216.79Zm0,6.59c.54-.73,1.16-1.21,1.1-1.57s-.7-.83-1.09-1.24c-.39.41-1,.77-1.09,1.23S73.84,222.65,74.37,223.38Z"/><g id="Aquatic_animal_sustainability" data-name="Aquatic animal sustainability"><path class="cls-1" d="M297.06,230.17q-12-13.74-24.59-19.68l-3.26-5.24a19.13,19.13,0,0,0-16.36-9l-25.14.13a3.33,3.33,0,0,0-3.32,3.33,3.4,3.4,0,0,0,.31,1.4c1.64,3.49,2.49,8.93-1.31,16.29A80.32,80.32,0,0,0,212.16,228a.48.48,0,0,1-.66.07l-11.59-8.77a5.42,5.42,0,0,0-8.7,4.35l.16,30.16a5.42,5.42,0,0,0,8.74,4.25l11.51-8.89a.48.48,0,0,1,.66.05A75.41,75.41,0,0,0,229,263.46a55.19,55.19,0,0,0,8.53,4.26l-6.12,8a2.52,2.52,0,0,0,.46,3.54,2.31,2.31,0,0,0,1.12.49c6.72,1.13,20.13,1.76,26.14-9.31,13-1.84,25.8-10,38-24.21A12.3,12.3,0,0,0,297.06,230.17ZM293.4,243c-12.9,15.05-26.23,22.75-39.62,22.9h-.39c-7.28,0-14.62-2.24-21.83-6.64A70.53,70.53,0,0,1,216,246a5.43,5.43,0,0,0-7.36-.66l-11.5,8.91a.49.49,0,0,1-.68-.09.46.46,0,0,1-.11-.3l0-7.35h7.16V241.8h-7.19l0-4.66h7.21v-4.65h-7.24l-.05-8.85a.5.5,0,0,1,.5-.49.47.47,0,0,1,.28.09L208.51,232a5.43,5.43,0,0,0,7.34-.75,71,71,0,0,1,15.48-13.46c7.29-4.56,14.74-6.87,22.14-6.87h0c13.39,0,26.81,7.57,39.87,22.46A7.34,7.34,0,0,1,293.4,243Z"/><path class="cls-1" d="M278.33,231a4.91,4.91,0,1,0,4.93,4.89h0a4.92,4.92,0,0,0-4.93-4.88Z"/><path class="cls-1" d="M228.36,243.73l-2,1.15-2,1.13A27.52,27.52,0,0,0,241,258l1.15-4.51A23.21,23.21,0,0,1,228.36,243.73Z"/></g><path class="cls-1" d="M46.77,95.26c.09.06,8.79,6.2,18.11,13.53a129,129,0,0,0,18.35,11.59c.34,1.16,1.63,6.39-1.84,9.39a4,4,0,0,0,2.54,7,3.77,3.77,0,0,0,1-.14c3.44-.92,11-4.83,9.38-21.22,4.77,0,16.9-.87,19.28-7.72l1.76,0c-.55,2.44-1.23,5.48-1.8,8a8.16,8.16,0,0,0-.17,2.26l-1.49,5.17a11.29,11.29,0,0,0,.76,8.19c-3.24-1.92-6.13-3.51-8.21-4.61A59.24,59.24,0,0,0,99,124.25a1.52,1.52,0,0,0-1.84.53,1.5,1.5,0,0,0,.39,2.09,1.82,1.82,0,0,0,.27.15c1.88.77,3.57,1.56,5.18,2.41,2.78,1.48,7.06,3.84,11.66,6.72l.88.54a62.25,62.25,0,0,1,3,6.23c.21.78,1.75,6.08,5.08,8.43l4.47,3.05a3.5,3.5,0,0,0,3.48.28,4,4,0,0,0,2-3.3A7.11,7.11,0,0,0,132,147l-2.37-3.09a33.21,33.21,0,0,1-5.3-10,24.17,24.17,0,0,1-1.26-8.21,32.74,32.74,0,0,1,5-7.57,19.28,19.28,0,0,0,3.15-5.77,12.63,12.63,0,0,0,2,1.9,1.5,1.5,0,0,0,2.07-.28l.61-.75a8.62,8.62,0,0,0,3.05,2,17.82,17.82,0,0,0,3.44,7.09c0,3.39.17,9.44.79,15.38a18.38,18.38,0,0,0,1.74,6.11q-4.06-.63-8.9-1.81c-.77-.18-1.56-.39-2.33-.61a1.57,1.57,0,0,0-1.91,1,1.51,1.51,0,0,0,.94,1.9l.08,0c.83.24,1.67.46,2.51.66a94.78,94.78,0,0,0,13.77,2.44c11.43,1,18.11,3.47,18.18,3.49A1.5,1.5,0,0,0,168.4,148a65.85,65.85,0,0,0-12.19-2.86c-.58-1.38-1.21-2.75-1.88-4.07a10.89,10.89,0,0,1-1.18-5l.14-9.87s0,0,0,0,0,0,0,0a154.23,154.23,0,0,1,0-15.71,17.45,17.45,0,0,0-2.14-9.49,10.75,10.75,0,0,0,2.92-6.12c0-.15,0-.31,0-.47A10.49,10.49,0,0,0,157.74,88a1.49,1.49,0,0,0-1.14-1.69l-.16,0a6.67,6.67,0,0,0,1.27-5.68,1.5,1.5,0,1,0-2.92.7h0c.64,2.6-2,4.5-2.16,4.57a1.51,1.51,0,0,0-.51,1.91,1.56,1.56,0,0,0,1.06.81l1.22.29a7.41,7.41,0,0,1-2.55,3.35,1.53,1.53,0,0,0-.7,1.19c0,.35,0,.69-.07,1-.4,4-4.79,7.62-9.19,7.62a7.87,7.87,0,0,1-2.6-.42,11.56,11.56,0,0,1-8-9,1.51,1.51,0,0,0-1.23-1.33A7.07,7.07,0,0,1,126,89a1.54,1.54,0,0,0-2.07-.23,1.5,1.5,0,0,0-.28,2.1.27.27,0,0,0,.07.08,10,10,0,0,0,4.82,3,14.64,14.64,0,0,0,9.76,10.49,10.74,10.74,0,0,0,3.6.59,12.48,12.48,0,0,0,6.91-2.2,14.37,14.37,0,0,1,1.49,7.29,159.06,159.06,0,0,0,0,16l-.13,9.83a13.89,13.89,0,0,0,1.5,6.41c.37.73.73,1.48,1.07,2.23-1.05-.12-2.15-.23-3.29-.34l-.7-.07a15.17,15.17,0,0,1-2.48-6.91c-.46-4.4-.66-8.86-.73-12.22.37.26.76.51,1.18.75a1.54,1.54,0,0,0,1.92-.3,1.5,1.5,0,0,0-.16-2.12.81.81,0,0,0-.24-.17c-5.46-3.09-6.38-9.35-6.39-9.41a1.5,1.5,0,0,0-1-1.24c-2.56-.81-3.19-2.22-3.27-2.41a1.46,1.46,0,0,0-1.17-1.08,1.52,1.52,0,0,0-1.44.58l-.91,1.14a5.16,5.16,0,0,1-1.51-2.48,10,10,0,0,0-.1-3.32,1.5,1.5,0,1,0-3,.51s0,0,0,.06a7.32,7.32,0,0,1,.06,2.47c-.45,1.66-1.89,6.08-3.61,8a35.83,35.83,0,0,0-5.63,8.58h0a1.76,1.76,0,0,0-.15.64,27,27,0,0,0,1.4,9.48,36.07,36.07,0,0,0,5.77,10.93l2.36,3.07a4.07,4.07,0,0,1,.94,2.8.51.51,0,0,1-.29.4.52.52,0,0,1-.51,0l-4.46-3c-2.15-1.52-3.55-5.43-3.9-6.8l0-.15a97.47,97.47,0,0,0-5.83-11.52,8.23,8.23,0,0,1-.76-6.38l.41-1.44a12.49,12.49,0,0,0,1.58,1.67,1.49,1.49,0,0,0,2.12-.13l0,0a1.54,1.54,0,0,0-.22-2.11,10.06,10.06,0,0,1-1.44-1.62,4.69,4.69,0,0,1-.88-2.33v0a5.26,5.26,0,0,1,.1-1.58c1.16-5.25,2.79-12.46,2.81-12.53a.83.83,0,0,0,0-.22,17,17,0,0,0-1.16-7.29,1.54,1.54,0,0,1,.19-1.42,1.6,1.6,0,0,1,.8-.6,1.51,1.51,0,0,0,1-1.62,1.58,1.58,0,0,0-.5-.93A14.53,14.53,0,0,1,118.12,90a.31.31,0,0,1-.05-.31.35.35,0,0,1,.24-.22l.88-.21a1.54,1.54,0,0,0,1-.65,1.5,1.5,0,0,0-.28-2,11.22,11.22,0,0,1-1.82-2,.36.36,0,0,1,0-.41.42.42,0,0,1,.38-.24h1.47a1.56,1.56,0,0,0,1.07-.4,1.52,1.52,0,0,0,.22-2,10.77,10.77,0,0,1-1.27-2.51,1.68,1.68,0,0,1,0-1.21,1.53,1.53,0,0,1,1.14-.92,21.51,21.51,0,0,1,3.75-.33H125a25.05,25.05,0,0,1,3.35.25,1.5,1.5,0,0,0,1.71-1.27.61.61,0,0,0,0-.14A1.53,1.53,0,0,0,128.76,74a28.47,28.47,0,0,0-3.45-.27,42.64,42.64,0,0,0-22.65-5.13A29.36,29.36,0,0,0,95.17,70c-3.29.29-4.9-1-5-1.08a1.5,1.5,0,1,0-2,2.24,9.08,9.08,0,0,0,6,1.89c.47,0,.94,0,1.41-.07h0l.12,0,.18,0h0a26.68,26.68,0,0,1,6.91-1.28,39,39,0,0,1,16.72,2.78,4.55,4.55,0,0,0-2.64,3,4.74,4.74,0,0,0,.18,2.93c.1.29.21.56.33.84a3.43,3.43,0,0,0-1.87,5.25c.21.29.43.58.66.86A3.34,3.34,0,0,0,115.15,89a3.46,3.46,0,0,0,.66,3l.55.67a4.58,4.58,0,0,0-1,4.78,14.69,14.69,0,0,1,1,5.9l-.32,1.39-2,0C114,93.89,100,87.24,99.34,87a1.51,1.51,0,0,0-1.27,2.73c.14.06,14.09,6.68,12.86,16.24-.86,5.75-13.48,6.61-18.27,6.45a1.5,1.5,0,0,0-1.55,1.45,2.09,2.09,0,0,0,0,.25c2.09,15.48-4.18,18.89-7,19.64a.91.91,0,0,1-1-.33,1,1,0,0,1,.16-1.34c5.29-4.58,2.89-12.1,2.64-12.85a43.16,43.16,0,0,1-1.64-8.65,3.4,3.4,0,0,1,2.35-3.49,72,72,0,0,1,8.07-2c.4,0,2.64-.26,4.09-.48A1.54,1.54,0,0,0,100.2,103a1.5,1.5,0,0,0-1.59-1.41l-.14,0c-1,.15-2.35.3-3.23.39a4.16,4.16,0,0,1-1.27,0,11,11,0,0,1-4.9-2.45,1.63,1.63,0,0,0-1.8,0c-2.58,1.66-6.74,2.2-12.75,1.07l-.46-.09a11.59,11.59,0,0,0-5.84.5,48.18,48.18,0,0,1-6.37,1.69c-1.52-1.16-3-2.26-4.33-3.27a43.77,43.77,0,0,0,7.14-3.07,5.6,5.6,0,0,1,2.92-.63,1.5,1.5,0,0,0,1.58-1.43v-.11a1.54,1.54,0,0,0-1.47-1.46,8.54,8.54,0,0,0-4.44,1,39.09,39.09,0,0,1-8.79,3.45c-3.55-2.61-5.91-4.28-6-4.31a1.5,1.5,0,0,0-1.73,2.46Zm22.47,8.53a8.59,8.59,0,0,1,4.32-.37l.41.08c2.4.45,9.4,1.77,14.18-1a13.29,13.29,0,0,0,1.14.69c-1.13.29-2.34.63-3.53,1a6.38,6.38,0,0,0-4.39,6.58,43,43,0,0,0,.83,5.65,126.23,126.23,0,0,1-15.46-10L65,105a43.51,43.51,0,0,0,4.28-1.25Z"/><path class="cls-1" d="M93.22,146.94a44.46,44.46,0,0,1,5.1,3.14c6.41,4.53,14.87,8.14,20.83,10.38a55.76,55.76,0,0,0,11.49,3c14,2.06,22.07,5.62,22.2,5.68a1.5,1.5,0,1,0,1.24-2.74c-.34-.16-8.46-3.78-23-5.91a53.59,53.59,0,0,1-10.87-2.8c-5.8-2.18-14-5.68-20.16-10a49.11,49.11,0,0,0-5.44-3.36,59.25,59.25,0,0,0-8.37-3.56,47.78,47.78,0,0,1-13.46-6.94l-24.25-18a1.49,1.49,0,0,0-2.1.31,1.51,1.51,0,0,0,.31,2.1l24.25,18a50.82,50.82,0,0,0,14.3,7.37A55.89,55.89,0,0,1,93.22,146.94Z"/><path class="cls-1" d="M152.56,83.72a1.51,1.51,0,0,0,1.11-1.82h0c0-.1-2.54-9.86-14.31-8.55-.75.05-6.78.68-10.89,8l-2.34.31A1.51,1.51,0,0,0,124.82,83a5.86,5.86,0,0,0,4,5.88,1.5,1.5,0,1,0,.9-2.87h0A2.5,2.5,0,0,1,128,84.4l1.6-.21a1.49,1.49,0,0,0,1.14-.8c3.44-6.66,8.57-7,8.78-7h.11c9.1-1,11,6,11.09,6.28A1.51,1.51,0,0,0,152.56,83.72Z"/><path class="cls-1" d="M150.69,86.65c-1.41-6.82-6.47-7.87-9-7.46l-2.69.29c-2.55.14-7.28,2.22-7.22,9.22,0,.19.18,4.64,4.09,6.47A2.3,2.3,0,0,1,137,96.61l.18.56a3.84,3.84,0,0,0,2,2.37,5.42,5.42,0,0,0,2.53.6,5.17,5.17,0,0,0,.68,0l.28,0a5.73,5.73,0,0,0,3-1.19,3.91,3.91,0,0,0,1.57-2.78l.06-.58a2.2,2.2,0,0,1,.12-.62h0a2.07,2.07,0,0,1,.66-1c3.43-2.61,2.66-7,2.63-7.18Zm-6.45,9.19c0,.18-.06.38-.46.69a2.66,2.66,0,0,1-1.42.55l-.29,0a2.74,2.74,0,0,1-1.52-.25.86.86,0,0,1-.52-.58l-.11-.34a12,12,0,0,1,4.34-.34Zm2-4.37a4.86,4.86,0,0,0-1.12,1.23,15.2,15.2,0,0,0-6.79.57,4.68,4.68,0,0,0-1.2-.83,4.61,4.61,0,0,1-2.35-3.82c0-5.7,4-6.11,4.39-6.14h.1l2.77-.29.09,0c.18,0,4.4-.68,5.6,5.08C147.77,87.4,148.14,90,146.25,91.47Z"/><path class="cls-1" d="M89,75.81a44.26,44.26,0,0,1-5.6,2h-.11c-.37.07-9.36,1.63-16.71-.61a13.21,13.21,0,0,1-9.49-11.41,11,11,0,0,1,1-5.83,10.54,10.54,0,0,1,6.64-5.41,11.85,11.85,0,0,1,7.19.19,5.54,5.54,0,0,1,3.7,4.57,5,5,0,0,1-1.18,3.81A6,6,0,0,1,72,64.87l-.15.06a1.16,1.16,0,0,0-.64,1.17,1.07,1.07,0,0,0,1,.89l.18,0a1.09,1.09,0,0,0,.44,0,9.11,9.11,0,0,0,5.84-3.57c1.24-1.89,1.53-4.43.84-7.53C79.35,55.44,77,47.56,66.06,49a17.6,17.6,0,0,0-12.8,9.29,19.18,19.18,0,0,0,6,23.94c4.25,3,9.76,4.59,16.35,4.59H76a1.5,1.5,0,1,1,0,3h-.47c-7.24,0-13.33-1.74-18.11-5.16a22.2,22.2,0,0,1-6.9-27.72C55.34,47.36,65.27,46.06,65.69,46c13.8-1.79,16.68,9.09,16.71,9.2v0c.87,3.94.45,7.26-1.26,9.86A12.17,12.17,0,0,1,73.36,70a4.15,4.15,0,0,1-1.57,0l-.26-.06a4.07,4.07,0,0,1-3.28-3.41,4.15,4.15,0,0,1,2.19-4.23l.45-.21a3.07,3.07,0,0,0,1.25-.88,2,2,0,0,0,.51-1.58A2.52,2.52,0,0,0,71,57.56a8.78,8.78,0,0,0-5.39-.12,7.48,7.48,0,0,0-4.75,3.83,8,8,0,0,0-.74,4.25,10.22,10.22,0,0,0,7.38,8.79c6.37,2,14.52.66,15.25.54.33-.08.69-.19,1.07-.31a4,4,0,0,1-.54-.48,1.5,1.5,0,0,1,2.2-2,4.07,4.07,0,0,0,2.94.9,1.59,1.59,0,0,1,1.74,1C90.48,75.14,89,75.81,89,75.81Z"/><path class="cls-1" d="M78.62,92.48a1.5,1.5,0,0,0,1.5,1.5h2.23a1.51,1.51,0,0,0,1.51-1.5,1.53,1.53,0,0,0-.16-.66s0-.07,0-.1c-.14-.4-.28-.77-.42-1.12a8.58,8.58,0,0,1-.77-3.23A13.17,13.17,0,0,1,83.22,83a1.5,1.5,0,0,0-2.88-.87,16.58,16.58,0,0,0-.86,5.27A10,10,0,0,0,80.2,91h-.08A1.51,1.51,0,0,0,78.62,92.48Z"/><path class="cls-1" d="M81.44,98.45h3.11a1.51,1.51,0,1,0,0-3H81.44a1.51,1.51,0,0,0,0,3Z"/><circle class="cls-1" cx="138.79" cy="87.18" r="1.5"/><circle class="cls-1" cx="143.97" cy="86.66" r="1.5"/><circle class="cls-1" cx="141.68" cy="90.03" r="1.5"/><g id="ec3LhW.tif"><path class="cls-1" d="M275.52,107.77a68.89,68.89,0,0,1,5.46,5,13.39,13.39,0,0,1,1.8,16.15,29.6,29.6,0,0,1-11.56,11.74c-6.38,3.64-12.86,2.71-18.34-2.45a33.57,33.57,0,0,1-6.45-8.71,2.25,2.25,0,0,0-.67-.86c0,.32,0,.65,0,1,0,.66,0,1.32,0,2a3.59,3.59,0,0,1-3.18,3.51,3.4,3.4,0,0,1-3.28-3.26,26.26,26.26,0,0,1,0-3.2l-.28-.09c-.15.27-.31.54-.45.81a29.87,29.87,0,0,1-8.21,10.28c-4.94,3.73-10.26,4.31-15.76,1.48a28.46,28.46,0,0,1-12.78-12.88c-2.67-5.39-2-10.58,1.89-15.16a66.21,66.21,0,0,1,5.65-5.34c-.36-.08-.95-.19-1.52-.35-6.17-1.73-9.47-6-10.57-12.13-.51-2.82-.58-5.72-1.8-8.38-.91-2-1.85-4-2.9-5.94-2.47-4.55-1.45-9,2.85-12A9.13,9.13,0,0,1,204,67.8a50.65,50.65,0,0,1,12.21,6.51,114.3,114.3,0,0,1,22.31,20.33l.33.38a.54.54,0,0,0,.13,0l.57-.64L230.39,83,232,81.71l8.79,10.89,3.46-.17L253,81.68l1.66,1.3-4.38,5.45c-1.41,1.75-2.8,3.51-4.23,5.24-.41.48-.4.81.15,1.14,1.54-1.69,3-3.42,4.6-5,7.22-7.47,15-14.19,24.16-19.25a41.37,41.37,0,0,1,5.84-2.63,9.71,9.71,0,0,1,13,7.84,6.43,6.43,0,0,1-.83,4.18c-1.67,3-3.44,6-4.25,9.41-.52,2.17-.69,4.43-1.16,6.62-1.38,6.5-5.24,10.56-11.88,11.8Zm-37.59-3.4c0-.55,0-.83,0-1.1.11-.76-.18-1-1-1.2a54.74,54.74,0,0,1-5.33-1.65c-9.21-3.26-18.61-4.6-28.32-3-1,.16-2,.49-3.06.74a11.57,11.57,0,0,0,11.14,7.59c5.7,0,11.4-.07,17.1-.31C231.62,105.29,234.73,104.74,237.93,104.37Zm46.82-6.3c-.46-.13-.79-.24-1.12-.32-5.14-1.28-10.33-1.11-15.55-.68-7.31.59-14,3.44-21,5.41v1.72c.31.08.6.17.9.22,8.9,1.57,17.9,1.57,26.87,1.2C279.57,105.41,282.8,102.54,284.75,98.07Zm-37.68,2.08c.3-.05.71-.08,1.1-.18,8.05-2.14,14.53-6.7,19.91-12.93a16.48,16.48,0,0,0,3.93-7.2c.33-1.52.35-3-1-4.17-.13.06-.24.08-.32.13a110.6,110.6,0,0,0-23,21.07,1.55,1.55,0,0,0-.35.73C247.22,98.42,247.16,99.26,247.07,100.15Zm-8.76.16a6.65,6.65,0,0,1-.4-1.81,3,3,0,0,0-.95-2.39,113.12,113.12,0,0,0-15.54-15.17c-2.29-1.85-4.69-3.59-7-5.37a3.52,3.52,0,0,0-1.3,3.48,14.16,14.16,0,0,0,3,6.6A40.08,40.08,0,0,0,234,99C235.36,99.55,236.78,99.86,238.31,100.31ZM258,123.87l.31.83a35.19,35.19,0,0,1,2.43,13.87c0,2.07-.05,2.07,2,2.17h.2c5.51.1,9.43-3,13.18-6.51a37,37,0,0,0-13.6-12,1.09,1.09,0,0,0-.83,0C260.52,122.75,259.31,123.3,258,123.87Zm-49.25,10.36a23.6,23.6,0,0,0,8.1,5.65,12.13,12.13,0,0,0,6.4.73c.84-.12,1-.48.94-1.22a33.49,33.49,0,0,1,.85-9.57c.53-2.09,1.24-4.15,1.79-6-1.2-.52-2.41-1.07-3.64-1.56a1.24,1.24,0,0,0-.91,0A37.16,37.16,0,0,0,208.76,134.23Zm-1.5-1.55a39.61,39.61,0,0,1,14.19-12.39v-4.46l-.67-.07a47.83,47.83,0,0,0-16,2.18c-2,.59-2.16.78-2.33,2.89a3,3,0,0,0,0,.42C202.17,125.8,204.43,129.29,207.26,132.68ZM263.49,120c2.61,1.88,5.32,3.56,7.7,5.62s4.41,4.51,6.64,6.82a21,21,0,0,0,3.7-5.75,11.77,11.77,0,0,0,.7-7.29,1.32,1.32,0,0,0-1.11-1.16c-3.67-.76-7.32-1.7-11-2.26a45.6,45.6,0,0,0-6.61-.06Zm-18-7.08a13.77,13.77,0,0,0,1.09,2.39,14.27,14.27,0,0,0,6.88,5.28,13.75,13.75,0,0,0,4.53.83c2.69,0,4-1.89,3.33-4.47a10,10,0,0,0-1.26-2.81A15.27,15.27,0,0,0,253,108.4a10.35,10.35,0,0,0-5.06-.85c-.63.06-.92.27-1,1a8.79,8.79,0,0,1-.64,2.26C246.11,111.46,245.82,112.09,245.49,112.89Zm-6.05,0c-.31-.79-.59-1.46-.84-2.14A10.3,10.3,0,0,1,238,109c-.29-1.47-.27-1.53-1.79-1.5-4.1.08-7.3,2.06-10,4.92a9.36,9.36,0,0,0-2.72,5.13,3,3,0,0,0,2.42,3.64,7.66,7.66,0,0,0,2.86.11,14.82,14.82,0,0,0,9.71-6.16A11.65,11.65,0,0,0,239.44,112.91ZM223.12,95.8c-2.23-2.12-4.54-4.34-6.87-6.53a2.28,2.28,0,0,0-.93-.39,44.23,44.23,0,0,0-14.08-1.21c-1,.07-2,.27-3,.41l1.28,8C207.49,93.89,215.4,94.42,223.12,95.8Zm63.52-7.72a.83.83,0,0,0-.25-.12,3.06,3.06,0,0,0-.51-.1,44,44,0,0,0-16.12,1.08,2.5,2.5,0,0,0-1,.53c-2.23,2-4.45,4-6.67,6a3.18,3.18,0,0,0-.32.39c7.9-1.46,15.7-2,23.58.07Zm-40.82,30.15a13,13,0,0,0,1.36,8c.49.87.86,1.81,1.33,2.69a27.58,27.58,0,0,0,6.75,8.56c1,.8,2.12,1.45,3.29,2.23A32.71,32.71,0,0,0,255.72,124a1.85,1.85,0,0,0-.94-.77,25.16,25.16,0,0,1-3.18-1.21C249.6,120.87,247.71,119.5,245.82,118.23Zm-19.51,21.18.33.27c1.39-1.06,2.87-2,4.14-3.19,3.7-3.48,6-7.87,7.91-12.51.81-2,.36-4,.5-6.2l-1,1a13.69,13.69,0,0,1-6.17,3.86c-2.43.54-3.38,2-3.9,4.13,0,.1-.07.19-.1.29A34.36,34.36,0,0,0,226.31,139.41ZM213.71,86.1c-.55-1.08-1.27-2.23-1.76-3.47a5.77,5.77,0,0,0-2.14-2.7A17.61,17.61,0,0,0,198,76.7a7.17,7.17,0,0,0-4.34,1.56c1.22,2.52,2.4,5,3.64,7.39.1.2.63.29.95.27a56.08,56.08,0,0,1,5.77-.47C207.25,85.53,210.51,85.87,213.71,86.1Zm77.8-8.2a16.68,16.68,0,0,0-2.2-.85,17.47,17.47,0,0,0-13.7,2.8c-2.39,1.56-2.64,4.43-4.49,6.58A44.38,44.38,0,0,1,287.41,86Zm-62.93,29.8-14.1.22a2,2,0,0,0-.8.17A24.67,24.67,0,0,0,205,114.8c-.21.27-.38.57-.67,1l.62-.15a49.68,49.68,0,0,1,17.1-2,1,1,0,0,0,.76-.33A18.35,18.35,0,0,1,228.58,107.7Zm51.94,8c-.21-.33-.36-.59-.54-.82a24.44,24.44,0,0,0-8.77-6.78,2.68,2.68,0,0,0-1.1-.18c-3.11,0-6.22-.1-9.32-.13-1.42,0-2.85,0-4.27,0l.77.56a16.25,16.25,0,0,1,4.61,4.7,1.2,1.2,0,0,0,1.33.65,41,41,0,0,1,10.83.63C276.18,114.7,278.28,115.22,280.52,115.7Zm-68.2-41.29a38.13,38.13,0,0,0-9.61-4.77,9.17,9.17,0,0,0-2.66-.24c-3.16.16-6.49,3.35-6.68,6.33,4.76-2.18,12-1.44,17.48,2.22a14.56,14.56,0,0,1,.49-1.78A17.43,17.43,0,0,1,212.32,74.41Zm79.23,1.08c-1-4-4.76-6.8-8.5-6S276,72.25,272.9,74.12L274.53,78C279.73,74.72,285.35,73.49,291.55,75.49ZM241.43,113a2.34,2.34,0,0,0-.08.29c0,6,0,11.94,0,17.91a1.84,1.84,0,0,0,.21,1,1.66,1.66,0,0,0,1,.76c.27,0,.72-.41.86-.73a3.87,3.87,0,0,0,.25-1.51c0-5.18,0-10.36,0-15.53V113Zm-1.31-7.5h0c0,1.07-.06,2.15,0,3.21a2.31,2.31,0,0,0,2.24,2.17,2.16,2.16,0,0,0,2.37-1.86c.15-2.24.1-4.48.09-6.72,0-.58-.33-.8-1-.74a12,12,0,0,1-2.68,0c-.77-.11-1,.22-1.06.87C240.1,103.41,240.12,104.45,240.12,105.48Zm2.43-5.69c.93-.38,2-.5,2.5-1.11.61-.79-.1-1.78-.66-2.51-1.7-2.25-1.93-2.15-3.54,0-.55.72-1.3,1.67-.67,2.51C240.62,99.25,241.67,99.4,242.55,99.79Z"/></g><path class="cls-1" d="M171.23,342.46C76.81,342.46,0,265.64,0,171.23S76.81,0,171.23,0,342.46,76.81,342.46,171.23,265.64,342.46,171.23,342.46ZM171.23,9C81.78,9,9,81.78,9,171.23S81.78,333.46,171.23,333.46s162.23-72.78,162.23-162.23S260.68,9,171.23,9Z"/><rect class="cls-1" x="166.73" y="4.5" width="9" height="333.46"/><rect class="cls-1" x="4.5" y="166.73" width="333.06" height="9"/><circle class="cls-2" cx="171.23" cy="171.23" r="36.99"/><path class="cls-1" d="M171.23,147.36a4,4,0,0,1,4,4V175.2a4,4,0,1,1-7.95,0V151.34A4,4,0,0,1,171.23,147.36Z"/><path class="cls-1" d="M171.23,187.14a4,4,0,1,0,4,4A4,4,0,0,0,171.23,187.14Z"/><path class="cls-3" d="M171.23,131.46A39.77,39.77,0,1,0,211,171.23,39.76,39.76,0,0,0,171.23,131.46Zm-31.82,39.77a31.82,31.82,0,1,0,31.82-31.82A31.82,31.82,0,0,0,139.41,171.23Z"/></g></g></svg>