<svg xmlns="http://www.w3.org/2000/svg" viewBox="0 0 640 480"><defs><style>.cls-1{fill:#928440;}.cls-2,.cls-3{fill:#fff;}.cls-3{fill-rule:evenodd;}</style></defs><g id="Capa_2" data-name="Capa 2"><g id="Capa_1-2" data-name="Capa 1"><rect class="cls-1" width="640" height="480" rx="54.79"/><path class="cls-2" d="M292.94,320.27c1.84,2.45,3.59,4.77,5.33,7.11.93,1.25.93,1.93,0,3.16-4.17,5.37-8.35,10.72-12.51,16.11a2.87,2.87,0,0,1-2.52,1.19c-7.11,0-14.22,0-21.34,0-2,0-2.74-.7-2.43-2.66a40.33,40.33,0,0,1,1.41-5,14.6,14.6,0,0,1-11.13-7.9l-6.57,10.95c-.67,1.11-1.35,2.21-2,3.33a2.34,2.34,0,0,1-2.22,1.26c-7.27,0-14.54,0-21.81,0-1.63,0-2.21-.65-2.3-2.29-.19-3.51.74-6.53,3.69-8.7a8.68,8.68,0,0,1,7-1.6c1.54.29,3.08.63,4.63.88a1.11,1.11,0,0,0,1-.31c1.37-2.19,2.68-4.42,4.12-6.84a22.88,22.88,0,0,0-2.32-1.76c-5.08-2.9-10.34-5.51-15.24-8.69a68.37,68.37,0,0,1-21.18-22.28c-2-3.32-4.3-6.51-5.26-10.35a16.31,16.31,0,0,1-.63-4.74,6.36,6.36,0,0,1,5.24-5.91,10.39,10.39,0,0,0,6.33-3.58,16,16,0,0,1,22.84-.4,9.7,9.7,0,0,0,3.55,2.18,71.48,71.48,0,0,0,20.86,4c4.4.18,8.62-1,12.89-1.87,13-2.78,24.61.24,34.33,9.35,10.32,9.67,8.89,26.48-2.69,34.62Zm-74.22,23.78h1c5.82,0,11.63,0,17.45,0a1.66,1.66,0,0,0,1.66-1c2.8-4.73,5.61-9.45,8.49-14.14a3.18,3.18,0,0,0-.08-3.8c-2.49-3.86-4.88-7.79-7.32-11.68-1-1.57-.66-3.28-.39-4.91.07-.46,1-.88,1.58-1.13a3.23,3.23,0,0,1,1.4.08c5.16.74,10.33,1.5,15.5,2.21a2.25,2.25,0,0,0,1.42-.27,48.55,48.55,0,0,1,25-6.93c1.38,0,2.26.72,2.29,1.84s-.86,1.92-2.31,1.93a48,48,0,0,0-13.57,2.13c-6.53,2-12.25,5.26-16.46,10.8a10.25,10.25,0,0,0-1.29,11.19,10.09,10.09,0,0,0,9.61,6.06c4.67.06,9.35,0,14,0a1.33,1.33,0,0,0,1.37-.83c1-1.9,2.1-3.77,3.16-5.65.77-1.36,1.82-1.78,2.86-1.17s1.17,1.69.45,3c-1.28,2.3-2.61,4.57-3.85,6.89a2.67,2.67,0,0,1-2.65,1.56c-3,0-6,0-9.07,0a6.19,6.19,0,0,0-5.41,3.66c.06,0,.12.09.19.09q9.3,0,18.62,0a1.22,1.22,0,0,0,.87-.43q5.54-7.05,11-14.14a1.09,1.09,0,0,0,0-1c-1.54-2.13-3.13-4.22-4.54-6.09a52.35,52.35,0,0,1-6,.83c-4.83.13-9.67.07-14.5.08-1.57,0-2.42-.7-2.39-1.94s.86-1.82,2.39-1.83c4.32,0,8.65-.14,13,0a14.94,14.94,0,0,0,9.16-2.79,18.74,18.74,0,0,0,2.27-29.39c-8.63-7.78-18.78-10.49-30.16-8.16-4.19.86-8.32,2.07-12.64,2.05a72,72,0,0,1-22.2-3.76,17.25,17.25,0,0,1-6.75-3.82c-3.35-3.17-7.51-3.91-11.95-2.59a12.61,12.61,0,0,0-7,5.34,3.73,3.73,0,0,1-2.86,1.81c-1,.11-2,.33-3,.53a3.32,3.32,0,0,0-2.81,4.15,12.31,12.31,0,0,0,.69,2.48,2.15,2.15,0,0,0,1,1.08c2.07.85,4.2,1.56,6.27,2.39a15.94,15.94,0,0,0,11,.63,1.88,1.88,0,1,1,1.12,3.58c-.68.24-1.39.41-2.18.64.27.29.45.49.64.68a42.87,42.87,0,0,0,12.58,8.8,3.27,3.27,0,0,1,2,2.61c.64,3.39,1.35,6.77,2.08,10.15a4.07,4.07,0,0,0,.81,1.64c2.67,3.29,5.38,6.57,8.1,9.82a2.22,2.22,0,0,1,.26,2.89q-2.67,4.38-5.28,8.79a2.14,2.14,0,0,1-2.57,1.11c-2-.45-4.07-.85-6.12-1.23A5.1,5.1,0,0,0,218.72,344.05Zm-20.8-52.86c7,12.58,16.6,22.16,29.16,28.57a23.08,23.08,0,0,1-1-2.83c-.68-3.06-1.31-6.14-1.88-9.22a2,2,0,0,0-1.25-1.65,44.22,44.22,0,0,1-13-9.55c-1.54-1.65-3-3-5.43-3.11a10.61,10.61,0,0,1-2.92-.87C200.38,292.13,199.26,291.69,197.92,291.19Zm45.2,20.25,5.75,9.19,5.61-7.55Z"/><path class="cls-2" d="M254.3,288.42a81.89,81.89,0,0,1-20.73-2.58c-.51-.13-1.21-.35-1.39-.73a3,3,0,0,1-.23-2.05,1.7,1.7,0,0,1,2.16-.95c2.65.54,5.28,1.15,7.95,1.58a78.93,78.93,0,0,0,30.16-1.05c1.62-.36,2.66.15,2.84,1.39s-.46,1.92-1.87,2.25A81.69,81.69,0,0,1,254.3,288.42Z"/><path class="cls-2" d="M259.11,296.79a85.55,85.55,0,0,1-27.65-5.32,1.9,1.9,0,0,1-1.4-2.35,1.92,1.92,0,0,1,2.57-1.2c3.81,1.08,7.57,2.37,11.42,3.25a69,69,0,0,0,24.93,1l.47-.06a1.92,1.92,0,0,1,2.22,1.62,1.82,1.82,0,0,1-1.66,2.06C266.38,296.14,262.74,296.45,259.11,296.79Z"/><path class="cls-2" d="M206.56,279.92a7.54,7.54,0,1,1,7.58,7.52A7.52,7.52,0,0,1,206.56,279.92Zm8.39-3.58a3.6,3.6,0,0,0-4.24,1.89,3.79,3.79,0,0,0,.91,4.5,3.72,3.72,0,0,0,4.57.27,3.28,3.28,0,0,0,1.33-4c-.67.7-1.26,1.37-1.9,2-1,1-2.09,1-2.89.18a1.93,1.93,0,0,1,.23-2.82C213.59,277.7,214.24,277.05,215,276.34Z"/><path class="cls-2" d="M223.18,285.56a5,5,0,1,1-5,4.92A5,5,0,0,1,223.18,285.56Zm0,6.59c.55-.73,1.16-1.2,1.1-1.57s-.7-.83-1.09-1.24c-.39.41-1,.78-1.09,1.24S222.61,291.42,223.14,292.15Z"/><g id="Aquatic_animal_sustainability" data-name="Aquatic animal sustainability"><path class="cls-2" d="M445.83,298.94q-12-13.72-24.59-19.68L418,274a19.14,19.14,0,0,0-16.36-9l-25.13.13a3.34,3.34,0,0,0-3.33,3.33,3.4,3.4,0,0,0,.31,1.4c1.65,3.49,2.49,8.94-1.31,16.29a80.4,80.4,0,0,0-11.23,10.67.48.48,0,0,1-.66.06l-11.59-8.77a5.43,5.43,0,0,0-8.7,4.35l.17,30.16a5.42,5.42,0,0,0,8.73,4.26l11.51-8.9a.47.47,0,0,1,.66.06,75.85,75.85,0,0,0,16.72,14.21,55.64,55.64,0,0,0,8.53,4.26l-6.12,8a2.53,2.53,0,0,0,.46,3.55,2.57,2.57,0,0,0,1.12.49c6.72,1.12,20.14,1.76,26.14-9.32,13-1.83,25.81-10,38-24.21A12.3,12.3,0,0,0,445.83,298.94Zm-3.66,12.82c-12.9,15.05-26.23,22.75-39.62,22.9h-.39c-7.27,0-14.62-2.23-21.83-6.64a70.53,70.53,0,0,1-15.61-13.3,5.44,5.44,0,0,0-7.35-.66L345.87,323a.48.48,0,0,1-.79-.39l0-7.35h7.16v-4.66H345l0-4.65h7.21v-4.66H345l0-8.85a.51.51,0,0,1,.5-.49.48.48,0,0,1,.28.1l11.59,8.77a5.42,5.42,0,0,0,7.34-.74,70.7,70.7,0,0,1,15.48-13.46c7.29-4.56,14.74-6.88,22.14-6.88h0c13.39,0,26.81,7.57,39.87,22.46A7.34,7.34,0,0,1,442.17,311.76Z"/><path class="cls-2" d="M427.1,299.73a4.91,4.91,0,1,0,4.93,4.89h0a4.92,4.92,0,0,0-4.93-4.89Z"/><path class="cls-2" d="M377.13,312.5l-2,1.15-2,1.13a27.51,27.51,0,0,0,16.65,12l1.15-4.51A23.25,23.25,0,0,1,377.13,312.5Z"/></g><path class="cls-2" d="M195.55,164c.08.06,8.78,6.2,18.1,13.53A129,129,0,0,0,232,189.15c.34,1.16,1.63,6.39-1.83,9.39a4,4,0,0,0,2.53,7,4.15,4.15,0,0,0,1-.13c3.44-.93,11.06-4.83,9.38-21.23,4.77,0,16.91-.87,19.28-7.72l1.76.05c-.55,2.44-1.23,5.48-1.79,8a7.89,7.89,0,0,0-.18,2.27L260.66,192a11.34,11.34,0,0,0,.76,8.19c-3.24-1.92-6.13-3.51-8.21-4.61-1.69-.9-3.46-1.72-5.41-2.53a1.5,1.5,0,1,0-1.17,2.77c1.87.77,3.56,1.56,5.18,2.42,2.78,1.47,7.06,3.83,11.65,6.71.29.19.59.36.89.54a62.17,62.17,0,0,1,2.95,6.23c.21.79,1.75,6.09,5.08,8.43l4.48,3a3.48,3.48,0,0,0,3.47.28,4.08,4.08,0,0,0,2-3.3,7.2,7.2,0,0,0-1.56-4.43l-2.37-3.09a33.09,33.09,0,0,1-5.3-10,24.09,24.09,0,0,1-1.26-8.21,33.28,33.28,0,0,1,5-7.57,19.15,19.15,0,0,0,3.15-5.77,11.79,11.79,0,0,0,2,1.9,1.51,1.51,0,0,0,2.08-.28l.6-.75a8.8,8.8,0,0,0,3.05,2,17.82,17.82,0,0,0,3.44,7.09c0,3.39.17,9.44.79,15.38a18.38,18.38,0,0,0,1.74,6.11c-2.7-.42-5.68-1-8.89-1.8-.78-.19-1.57-.4-2.34-.61a1.56,1.56,0,0,0-1.91.94,1.51,1.51,0,0,0,.94,1.9l.08,0c.83.23,1.68.45,2.52.66a94.38,94.38,0,0,0,13.76,2.43c11.44,1,18.11,3.47,18.18,3.49a1.5,1.5,0,0,0,1.06-2.81A66.87,66.87,0,0,0,305,213.88c-.59-1.38-1.22-2.75-1.89-4.07a10.76,10.76,0,0,1-1.17-5l.13-9.87v-.1c0-.09-.46-9,0-15.71a17.45,17.45,0,0,0-2.14-9.49,10.69,10.69,0,0,0,2.92-6.12c0-.15,0-.31,0-.46a10.52,10.52,0,0,0,3.63-6.28,1.48,1.48,0,0,0-1.14-1.69l-.16,0a6.7,6.7,0,0,0,1.28-5.68,1.51,1.51,0,0,0-2.93.7h0c.63,2.6-2.06,4.5-2.17,4.57a1.51,1.51,0,0,0,.55,2.72l1.22.29a7.29,7.29,0,0,1-2.55,3.35,1.49,1.49,0,0,0-.69,1.19c0,.35-.05.69-.08,1-.4,4-4.78,7.62-9.19,7.62a7.7,7.7,0,0,1-2.6-.42,11.56,11.56,0,0,1-8-9,1.51,1.51,0,0,0-1.23-1.33,7.09,7.09,0,0,1-4.09-2.26,1.55,1.55,0,0,0-2.08-.24,1.51,1.51,0,0,0-.28,2.11.27.27,0,0,1,.07.08,10.11,10.11,0,0,0,4.82,3,14.68,14.68,0,0,0,9.76,10.49,11,11,0,0,0,3.6.58,12.44,12.44,0,0,0,6.91-2.19,14.32,14.32,0,0,1,1.49,7.28,155.05,155.05,0,0,0,0,16l-.14,9.82a13.86,13.86,0,0,0,1.5,6.41c.37.73.73,1.48,1.08,2.24-1.06-.13-2.16-.24-3.3-.34l-.7-.07a15.21,15.21,0,0,1-2.48-6.91c-.46-4.4-.65-8.87-.73-12.23.37.26.76.51,1.18.75a1.54,1.54,0,0,0,1.92-.3,1.51,1.51,0,0,0-.15-2.12A1.38,1.38,0,0,0,297,192c-5.46-3.09-6.38-9.35-6.39-9.41a1.5,1.5,0,0,0-1-1.24c-2.56-.81-3.2-2.22-3.27-2.41a1.43,1.43,0,0,0-1.17-1.07,1.53,1.53,0,0,0-1.45.57l-.91,1.15a5.13,5.13,0,0,1-1.51-2.49,10,10,0,0,0-.1-3.32,1.5,1.5,0,0,0-3,.51.13.13,0,0,1,0,.06,7.32,7.32,0,0,1,.06,2.47c-.45,1.67-1.89,6.08-3.61,8A35.88,35.88,0,0,0,269,193.4h0a2,2,0,0,0-.15.64,27.09,27.09,0,0,0,1.4,9.49,36,36,0,0,0,5.78,10.92l2.35,3.07a4.07,4.07,0,0,1,.94,2.8.48.48,0,0,1-.28.4.53.53,0,0,1-.52,0l-4.45-3c-2.16-1.52-3.55-5.43-3.91-6.8l-.05-.15a97.47,97.47,0,0,0-5.83-11.52,8.2,8.2,0,0,1-.76-6.37l.42-1.45a12.5,12.5,0,0,0,1.57,1.68,1.5,1.5,0,0,0,2.12-.13l0-.06a1.55,1.55,0,0,0-.23-2.11,10.43,10.43,0,0,1-1.44-1.61,4.84,4.84,0,0,1-.87-2.34h0a5,5,0,0,1,.1-1.59c1.16-5.24,2.79-12.45,2.8-12.53a.78.78,0,0,0,0-.22,17.07,17.07,0,0,0-1.15-7.28,1.54,1.54,0,0,1,1-2,1.51,1.51,0,0,0,1-1.63,1.61,1.61,0,0,0-.5-.93,17.36,17.36,0,0,1-1.56-1.76.32.32,0,0,1-.05-.31.33.33,0,0,1,.24-.22l.88-.22a1.5,1.5,0,0,0,.68-2.6,11.27,11.27,0,0,1-1.83-2,.36.36,0,0,1,0-.41.42.42,0,0,1,.39-.24h1.46a1.5,1.5,0,0,0,1.29-2.34,11.24,11.24,0,0,1-1.27-2.52,1.66,1.66,0,0,1,0-1.2,1.52,1.52,0,0,1,1.15-.93,23.44,23.44,0,0,1,3.75-.33h.2a23.53,23.53,0,0,1,3.36.26,1.5,1.5,0,0,0,1.7-1.27s0-.1,0-.14a1.53,1.53,0,0,0-1.33-1.57,26.45,26.45,0,0,0-3.45-.28,42.83,42.83,0,0,0-22.65-5.13,29.29,29.29,0,0,0-7.48,1.37c-3.3.3-4.9-1-5-1.07a1.5,1.5,0,0,0-2,2.23,9,9,0,0,0,6,1.89,13.5,13.5,0,0,0,1.42-.07h0l.12,0,.18,0h0a26.68,26.68,0,0,1,6.91-1.28,39,39,0,0,1,16.72,2.79,4.53,4.53,0,0,0-2.64,3,4.85,4.85,0,0,0,.18,2.94c.1.28.21.55.33.83a3.49,3.49,0,0,0-2.1,1.72,3.38,3.38,0,0,0,.24,3.53,8.93,8.93,0,0,0,.66.86,3.42,3.42,0,0,0-1.09,1.72,3.47,3.47,0,0,0,.67,3c.18.23.36.46.55.68a4.73,4.73,0,0,0-.86,1.22,4.5,4.5,0,0,0-.15,3.56,14.46,14.46,0,0,1,1,5.9c-.05.2-.16.69-.31,1.38l-2-.05c0-10.79-14.05-17.44-14.68-17.73a1.51,1.51,0,0,0-1.27,2.73c.15.07,14.09,6.68,12.86,16.24-.86,5.75-13.47,6.61-18.27,6.45a1.5,1.5,0,0,0-1.55,1.45,2,2,0,0,0,0,.25c2.09,15.48-4.18,18.9-7,19.64a.93.93,0,0,1-.95-.32,1,1,0,0,1,.16-1.35c5.3-4.58,2.9-12.1,2.64-12.84a44.86,44.86,0,0,1-1.64-8.66,3.41,3.41,0,0,1,2.36-3.49,71.87,71.87,0,0,1,8.06-2c.41,0,2.64-.26,4.09-.48a1.55,1.55,0,0,0,1.34-1.59,1.52,1.52,0,0,0-1.6-1.41l-.14,0c-1,.15-2.35.3-3.23.39a4.17,4.17,0,0,1-1.27-.05,11,11,0,0,1-4.9-2.45,1.64,1.64,0,0,0-1.8,0c-2.58,1.66-6.74,2.2-12.75,1.07l-.45-.09a11.76,11.76,0,0,0-5.85.5,48.18,48.18,0,0,1-6.37,1.69c-1.51-1.16-3-2.26-4.33-3.27a44.25,44.25,0,0,0,7.15-3.07,5.44,5.44,0,0,1,2.91-.62,1.51,1.51,0,0,0,1.58-1.43.45.45,0,0,0,0-.11,1.54,1.54,0,0,0-1.48-1.47,8.56,8.56,0,0,0-4.44,1,38.76,38.76,0,0,1-8.78,3.46c-3.56-2.62-5.92-4.28-6-4.32a1.51,1.51,0,0,0-2.09.44A1.5,1.5,0,0,0,195.55,164ZM218,172.56a8.5,8.5,0,0,1,4.33-.36l.4.07c2.4.45,9.4,1.78,14.18-1,.38.25.75.48,1.14.7-1.13.28-2.34.62-3.52,1a6.36,6.36,0,0,0-4.4,6.58,44.87,44.87,0,0,0,.84,5.64,127.12,127.12,0,0,1-15.47-10l-1.78-1.39a42,42,0,0,0,4.28-1.25Z"/><path class="cls-2" d="M242,215.71a43.17,43.17,0,0,1,5.1,3.15c6.41,4.52,14.87,8.14,20.83,10.37a55.13,55.13,0,0,0,11.49,3c14,2.06,22.07,5.62,22.2,5.68a1.5,1.5,0,1,0,1.24-2.74c-.34-.15-8.45-3.78-23-5.91a52.31,52.31,0,0,1-10.87-2.8c-5.8-2.18-14-5.68-20.16-10a47.33,47.33,0,0,0-5.44-3.36,57.58,57.58,0,0,0-8.37-3.55,48.18,48.18,0,0,1-13.46-6.94l-24.24-18a1.51,1.51,0,1,0-1.79,2.42l24.24,18a51.11,51.11,0,0,0,14.3,7.38A54.24,54.24,0,0,1,242,215.71Z"/><path class="cls-2" d="M301.34,152.49a1.5,1.5,0,0,0,1.1-1.81h0c0-.1-2.54-9.87-14.31-8.56-.75,0-6.78.68-10.88,8l-2.35.31a1.51,1.51,0,0,0-1.3,1.42,5.85,5.85,0,0,0,4,5.88,1.5,1.5,0,1,0,.89-2.86h0a2.5,2.5,0,0,1-1.68-1.65l1.6-.21a1.49,1.49,0,0,0,1.14-.8c3.44-6.66,8.58-7,8.78-7h.11c9.1-1,11,6,11.09,6.27A1.5,1.5,0,0,0,301.34,152.49Z"/><path class="cls-2" d="M299.46,155.43c-1.41-6.83-6.47-7.87-9-7.47l-2.7.29c-2.55.14-7.28,2.22-7.21,9.23,0,.18.18,4.64,4.08,6.46a2.31,2.31,0,0,1,1.12,1.45l.17.56a3.89,3.89,0,0,0,2,2.37,5.55,5.55,0,0,0,2.54.59,5,5,0,0,0,.67,0l.29,0a5.7,5.7,0,0,0,3-1.19,3.92,3.92,0,0,0,1.58-2.78l.05-.58a3.24,3.24,0,0,1,.12-.62h0a2,2,0,0,1,.66-1c3.43-2.61,2.66-7,2.63-7.19ZM293,164.61c0,.18-.06.38-.45.69a2.78,2.78,0,0,1-1.43.56l-.29,0a2.7,2.7,0,0,1-1.51-.24.89.89,0,0,1-.53-.59l-.11-.34a12.23,12.23,0,0,1,4.34-.34Zm2-4.37a4.65,4.65,0,0,0-1.11,1.23,15.37,15.37,0,0,0-6.8.57,4.48,4.48,0,0,0-1.2-.82,4.63,4.63,0,0,1-2.35-3.83c0-5.69,3.95-6.11,4.4-6.14h.09l2.77-.29.1,0c.18,0,4.39-.67,5.59,5.08C296.54,156.17,296.91,158.81,295,160.24Z"/><path class="cls-2" d="M237.77,144.59a44.77,44.77,0,0,1-5.6,2l-.08,0h0c-.38.06-9.37,1.62-16.72-.62a13.21,13.21,0,0,1-9.49-11.4,10.88,10.88,0,0,1,1-5.84,10.45,10.45,0,0,1,6.64-5.4,11.85,11.85,0,0,1,7.19.18,5.53,5.53,0,0,1,3.69,4.57,5,5,0,0,1-1.17,3.81,6.13,6.13,0,0,1-2.45,1.76l-.15.07a1.14,1.14,0,0,0-.64,1.17,1.1,1.1,0,0,0,1,.89l.17,0a1.09,1.09,0,0,0,.44,0,9.07,9.07,0,0,0,5.84-3.57c1.25-1.89,1.53-4.43.84-7.53-.13-.49-2.44-8.36-13.41-6.94A17.63,17.63,0,0,0,202,127.05,19.18,19.18,0,0,0,208,151c4.26,3,9.76,4.59,16.36,4.59h.45a1.51,1.51,0,1,1,0,3h-.46c-7.24,0-13.33-1.74-18.11-5.16a22.22,22.22,0,0,1-6.91-27.72c4.77-9.58,14.7-10.88,15.12-10.93,13.8-1.79,16.68,9.09,16.71,9.2v0c.88,3.94.45,7.26-1.26,9.86a12.13,12.13,0,0,1-7.79,4.88,4.15,4.15,0,0,1-1.57,0l-.26-.06a4.07,4.07,0,0,1-3.28-3.41,4.16,4.16,0,0,1,2.2-4.23,3.49,3.49,0,0,1,.44-.2,3.12,3.12,0,0,0,1.26-.89,2,2,0,0,0,.5-1.58,2.53,2.53,0,0,0-1.7-2.06,8.86,8.86,0,0,0-5.39-.12,7.52,7.52,0,0,0-4.75,3.84,8,8,0,0,0-.74,4.24,10.23,10.23,0,0,0,7.38,8.79c6.37,1.95,14.52.67,15.25.54.33-.08.69-.18,1.07-.3a5,5,0,0,1-.54-.49,1.5,1.5,0,0,1,2.21-2,4,4,0,0,0,2.93.9,1.59,1.59,0,0,1,1.74,1C239.25,143.92,237.77,144.59,237.77,144.59Z"/><path class="cls-2" d="M227.39,161.25a1.51,1.51,0,0,0,1.51,1.5h2.23a1.5,1.5,0,0,0,1.5-1.5,1.33,1.33,0,0,0-.16-.65s0-.08,0-.11l-.41-1.12a8.36,8.36,0,0,1-.78-3.22,13.09,13.09,0,0,1,.73-4.39,1.5,1.5,0,1,0-2.87-.88,16.31,16.31,0,0,0-.87,5.27,10.13,10.13,0,0,0,.72,3.6h-.08A1.5,1.5,0,0,0,227.39,161.25Z"/><path class="cls-2" d="M230.21,167.22h3.12a1.51,1.51,0,0,0,0-3h-3.12a1.51,1.51,0,0,0,0,3Z"/><circle class="cls-2" cx="287.56" cy="155.95" r="1.5"/><circle class="cls-2" cx="292.74" cy="155.43" r="1.5"/><circle class="cls-2" cx="290.46" cy="158.8" r="1.5"/><g id="ec3LhW.tif"><path class="cls-2" d="M424.3,176.54a72.69,72.69,0,0,1,5.46,5.05,13.4,13.4,0,0,1,1.8,16.14A29.72,29.72,0,0,1,420,209.48c-6.38,3.63-12.86,2.7-18.34-2.46a33.37,33.37,0,0,1-6.44-8.71,2.55,2.55,0,0,0-.67-.86v1c0,.66,0,1.32,0,2a3.6,3.6,0,0,1-3.18,3.52,3.41,3.41,0,0,1-3.28-3.27,28.44,28.44,0,0,1,0-3.2l-.28-.09-.45.81a30,30,0,0,1-8.21,10.29c-4.94,3.72-10.26,4.3-15.76,1.48A28.46,28.46,0,0,1,350.56,197c-2.68-5.39-2-10.58,1.88-15.16a69.43,69.43,0,0,1,5.65-5.34c-.36-.08-.95-.18-1.52-.34-6.17-1.74-9.47-6-10.57-12.14-.5-2.81-.58-5.72-1.79-8.37-.92-2-1.86-4-2.91-5.95-2.46-4.55-1.44-9,2.85-12a9.14,9.14,0,0,1,8.59-1.14A50.16,50.16,0,0,1,365,143.09a113.94,113.94,0,0,1,22.31,20.32c.11.14.23.26.33.38s.11,0,.13,0l.57-.64-9.12-11.34,1.64-1.33,8.79,10.9,3.46-.18,8.68-10.75,1.66,1.3L399,157.2c-1.41,1.75-2.81,3.51-4.24,5.24-.4.48-.4.81.15,1.14,1.54-1.69,3-3.41,4.61-5.05,7.21-7.46,15-14.18,24.15-19.24a40.26,40.26,0,0,1,5.84-2.63,9.71,9.71,0,0,1,13,7.83,6.44,6.44,0,0,1-.84,4.18c-1.67,3-3.44,6-4.25,9.41-.51,2.18-.69,4.43-1.15,6.62-1.39,6.51-5.25,10.57-11.89,11.81C424.32,176.52,424.23,176.56,424.3,176.54Zm-37.6-3.39a9.28,9.28,0,0,1,0-1.11c.1-.76-.19-1-1-1.2a55.61,55.61,0,0,1-5.33-1.65c-9.2-3.26-18.61-4.59-28.32-3-1,.16-2,.49-3.06.74a11.57,11.57,0,0,0,11.14,7.59c5.7,0,11.4-.07,17.1-.31C380.39,174.06,383.5,173.51,386.7,173.15Zm46.82-6.31c-.46-.13-.79-.24-1.12-.32-5.14-1.28-10.33-1.1-15.55-.68-7.31.59-14,3.44-21,5.41V173c.31.08.61.17.9.23,8.91,1.56,17.9,1.57,26.87,1.19C428.34,174.19,431.57,171.31,433.52,166.84Zm-37.68,2.08a9.24,9.24,0,0,0,1.1-.18c8.05-2.13,14.53-6.7,19.91-12.93a16.48,16.48,0,0,0,3.93-7.2c.34-1.52.35-3-1-4.16a1.63,1.63,0,0,0-.32.13,110.55,110.55,0,0,0-23,21.06,1.58,1.58,0,0,0-.34.73C396,167.2,395.93,168,395.84,168.92Zm-8.76.16a6.65,6.65,0,0,1-.4-1.81,2.93,2.93,0,0,0-.94-2.38,113.09,113.09,0,0,0-15.54-15.17c-2.3-1.86-4.69-3.59-7-5.38a3.54,3.54,0,0,0-1.3,3.48,14.16,14.16,0,0,0,3,6.61,40,40,0,0,0,17.91,13.38C384.14,168.33,385.55,168.63,387.08,169.08Zm19.7,23.56.31.83a35.2,35.2,0,0,1,2.44,13.87c0,2.07-.06,2.07,2,2.17h.21c5.51.11,9.42-3,13.17-6.51a37,37,0,0,0-13.59-12,1.14,1.14,0,0,0-.83,0C409.29,191.53,408.09,192.07,406.78,192.64ZM357.53,203a23.71,23.71,0,0,0,8.1,5.64,12.17,12.17,0,0,0,6.41.74c.83-.13,1-.49.94-1.22a32.73,32.73,0,0,1,.85-9.57c.52-2.1,1.23-4.16,1.79-6-1.21-.53-2.41-1.07-3.64-1.56a1.27,1.27,0,0,0-.92,0A37.18,37.18,0,0,0,357.53,203Zm-1.5-1.56a39.69,39.69,0,0,1,14.19-12.39V184.6c-.19,0-.43,0-.66-.06a47.88,47.88,0,0,0-16,2.17c-2,.59-2.16.78-2.33,2.9,0,.13,0,.27,0,.41C350.94,194.58,353.2,198.06,356,201.45Zm56.23-12.71c2.61,1.88,5.33,3.56,7.71,5.63s4.41,4.5,6.63,6.81a20.78,20.78,0,0,0,3.7-5.75,11.69,11.69,0,0,0,.7-7.29,1.32,1.32,0,0,0-1.11-1.16c-3.67-.75-7.31-1.7-11-2.25a44.21,44.21,0,0,0-6.61-.06Zm-18-7.07a14,14,0,0,0,1.09,2.38,14.21,14.21,0,0,0,6.88,5.28,13.8,13.8,0,0,0,4.53.83c2.69,0,4-1.88,3.33-4.47a10.14,10.14,0,0,0-1.26-2.81,15.17,15.17,0,0,0-7.06-5.71,10.29,10.29,0,0,0-5-.85c-.64.06-.93.27-1,1a8.8,8.8,0,0,1-.63,2.25C394.88,180.24,394.59,180.86,394.26,181.67Zm-6.05,0c-.31-.78-.58-1.46-.84-2.13a11.37,11.37,0,0,1-.59-1.76c-.28-1.47-.27-1.52-1.79-1.49-4.1.07-7.3,2-10,4.91a9.36,9.36,0,0,0-2.72,5.13,3,3,0,0,0,2.42,3.65,7.92,7.92,0,0,0,2.87.11,14.85,14.85,0,0,0,9.7-6.17A11.38,11.38,0,0,0,388.21,181.68ZM371.9,164.57c-2.23-2.12-4.54-4.33-6.88-6.52a2.11,2.11,0,0,0-.93-.4A44.52,44.52,0,0,0,350,156.44c-1,.07-2,.27-3,.41l1.29,8C356.27,162.66,364.17,163.19,371.9,164.57Zm63.51-7.72a2,2,0,0,0-.25-.12,4.18,4.18,0,0,0-.51-.1,43.79,43.79,0,0,0-16.12,1.09,2.26,2.26,0,0,0-1,.52c-2.24,2-4.46,4-6.67,6a3.86,3.86,0,0,0-.33.39c7.91-1.46,15.7-2,23.58.07ZM394.59,187a13,13,0,0,0,1.36,8c.5.87.86,1.81,1.34,2.69a27.44,27.44,0,0,0,6.75,8.57c1,.8,2.11,1.44,3.28,2.23a32.75,32.75,0,0,0-2.83-15.7,1.9,1.9,0,0,0-.94-.77,23.72,23.72,0,0,1-3.18-1.21C398.37,189.64,396.48,188.27,394.59,187Zm-19.51,21.17.33.27a50,50,0,0,0,4.14-3.19c3.7-3.48,6-7.87,7.91-12.5.81-2,.37-4,.5-6.21l-1,1a13.65,13.65,0,0,1-6.17,3.85c-2.43.54-3.38,2-3.9,4.13,0,.1-.07.19-.1.29A34.57,34.57,0,0,0,375.08,208.18Zm-12.59-53.31a33.86,33.86,0,0,1-1.76-3.46,5.88,5.88,0,0,0-2.15-2.71,17.6,17.6,0,0,0-11.83-3.23A7.15,7.15,0,0,0,342.4,147c1.23,2.51,2.4,5,3.64,7.38.1.21.63.3.95.27,1.93-.14,3.85-.52,5.77-.47C356,154.3,359.29,154.64,362.49,154.87Zm77.79-8.2a16,16,0,0,0-2.2-.84,17.36,17.36,0,0,0-13.69,2.8c-2.4,1.55-2.65,4.42-4.49,6.57a44.54,44.54,0,0,1,16.28-.47Zm-62.92,29.81-14.11.21a2.16,2.16,0,0,0-.8.17,24.88,24.88,0,0,0-8.71,6.71c-.21.27-.38.58-.67,1l.62-.15a49.67,49.67,0,0,1,17.1-2,1,1,0,0,0,.77-.34A18.32,18.32,0,0,1,377.36,176.48Zm51.93,8c-.21-.33-.36-.59-.54-.82a24.27,24.27,0,0,0-8.77-6.78,2.68,2.68,0,0,0-1.1-.18c-3.11-.05-6.21-.1-9.32-.13-1.42,0-2.84,0-4.27,0l.77.55a16.25,16.25,0,0,1,4.61,4.7,1.23,1.23,0,0,0,1.34.66,40.49,40.49,0,0,1,10.82.62C425,183.48,427.06,184,429.29,184.47ZM361.1,143.18a38.36,38.36,0,0,0-9.62-4.77,9.17,9.17,0,0,0-2.66-.24c-3.16.16-6.48,3.35-6.68,6.33,4.76-2.18,12-1.44,17.48,2.22a14.56,14.56,0,0,1,.49-1.78A16.75,16.75,0,0,1,361.1,143.18Zm79.23,1.08c-1-4-4.77-6.8-8.51-6s-7.06,2.79-10.14,4.66l1.62,3.86C428.5,143.49,434.13,142.26,440.33,144.26Zm-50.13,37.5a1.41,1.41,0,0,0-.07.29q0,9,0,17.91a1.83,1.83,0,0,0,.21,1,1.69,1.69,0,0,0,1,.76c.27,0,.72-.4.87-.73a4.24,4.24,0,0,0,.25-1.51q0-7.77,0-15.53v-2.18Zm-1.3-7.5h0c0,1.07-.06,2.14,0,3.21a2.31,2.31,0,0,0,2.24,2.17,2.17,2.17,0,0,0,2.38-1.87c.14-2.23.09-4.48.09-6.72,0-.58-.34-.8-1-.74a12,12,0,0,1-2.68,0c-.77-.1-1,.22-1.06.87C388.87,172.18,388.9,173.22,388.9,174.26Zm2.42-5.69c.93-.38,2-.5,2.5-1.11.61-.8-.1-1.79-.66-2.52-1.7-2.24-1.93-2.15-3.54,0-.54.72-1.29,1.67-.67,2.5C389.4,168,390.44,168.17,391.32,168.57Z"/></g><path class="cls-2" d="M320,411.23c-94.42,0-171.23-76.81-171.23-171.23S225.58,68.77,320,68.77,491.23,145.58,491.23,240,414.42,411.23,320,411.23Zm0-333.46c-89.45,0-162.23,72.78-162.23,162.23S230.55,402.23,320,402.23,482.23,329.45,482.23,240,409.45,77.77,320,77.77Z"/><rect class="cls-2" x="315.5" y="73.27" width="9" height="333.46"/><rect class="cls-2" x="153.27" y="235.5" width="333.06" height="9"/><circle class="cls-1" cx="320" cy="240" r="36.99"/><path class="cls-2" d="M320,216.14a4,4,0,0,1,4,4V244a4,4,0,0,1-8,0V220.11A4,4,0,0,1,320,216.14Z"/><path class="cls-2" d="M320,255.91a4,4,0,1,0,4,4A4,4,0,0,0,320,255.91Z"/><path class="cls-3" d="M320,200.23A39.77,39.77,0,1,0,359.77,240,39.78,39.78,0,0,0,320,200.23ZM288.18,240A31.82,31.82,0,1,0,320,208.18,31.82,31.82,0,0,0,288.18,240Z"/></g></g></svg>