<svg xmlns="http://www.w3.org/2000/svg" viewBox="0 0 640 480"><defs><style>.cls-1{fill:#928440;}.cls-2{fill:#fff;}</style></defs><g id="Capa_2" data-name="Capa 2"><g id="Capa_1-2" data-name="Capa 1"><rect class="cls-1" width="640" height="480" rx="53.74"/><path class="cls-2" d="M356.85,284.79a.88.88,0,0,0-.16-.32,1.29,1.29,0,0,0,0-.67c-.07-.27-.16-.51-.24-.74l-.11-.29a2.05,2.05,0,0,1-.07-.31,2.61,2.61,0,0,0-.35-.9v-.13c0-.27.06-.56.08-.84a.94.94,0,0,0-.31-.7l-.36-.33-.15-.13c-.26-.23-.4-.39-.42-.59h0a1.53,1.53,0,0,0,.1-.69,1.2,1.2,0,0,0,.5-.79,10.55,10.55,0,0,0,.19-1.59,6.2,6.2,0,0,0-.06-.93l0,0,0,0a2.85,2.85,0,0,0-.12-.53c-.07-.19.1-.51.27-.82l0,0a1.42,1.42,0,0,0,.19-.69,1.69,1.69,0,0,0,0-.23,3.47,3.47,0,0,0-.15-1.15,2.64,2.64,0,0,0-.68-1.14l-.49-.44-.43-.38,0,0-.1-.09a2.71,2.71,0,0,0-1.3-1.26,3.11,3.11,0,0,1-.52-.33.69.69,0,0,0-.46-.17,1.16,1.16,0,0,0-.74.1,2.12,2.12,0,0,0-2.22-.38l-.08.06-.19,0-.3,0a.75.75,0,0,0,.07-.12,1,1,0,0,0,.33-.47.67.67,0,0,0-.06-.6l-.09-.1a.8.8,0,0,0,.1-.39,1.08,1.08,0,0,0-.37-.76,1.17,1.17,0,0,0-.28-.17.93.93,0,0,0-.29-.28,1.35,1.35,0,0,0-.56-.14h0a.79.79,0,0,0-.51-.25,1.44,1.44,0,0,0-1.1-.69.66.66,0,0,0-.5.19h0l-.25-.22a1.1,1.1,0,0,0-1.18-.27l0,0a1,1,0,0,0-.2-.31h.05a.63.63,0,0,0,.49-.24l.2,0a1.47,1.47,0,0,0,1.25-.66.65.65,0,0,0-.6-1l-.19,0a1.21,1.21,0,0,1-.26,0c-.41,0-.74,0-1.08,0l-.5,0-.46,0a1,1,0,0,0-.58.17s0,0-.2,0a1.49,1.49,0,0,0-1.06.1,1.31,1.31,0,0,1-.5.1l-.37,0a3,3,0,0,1-.66,0l-.48-.05h-.89a.8.8,0,0,0-.44.17h0a.65.65,0,0,0-.22.82l0,.06a1.71,1.71,0,0,0-.2.18,1.06,1.06,0,0,0-1,.51,4.49,4.49,0,0,1-1.17-.08,4.84,4.84,0,0,1-1.65-.67.59.59,0,0,0-.06-.41.62.62,0,0,0-.5-.35l-.31,0a5.2,5.2,0,0,0-.69-.07c-.73,0-1.33,0-1.9,0a1.4,1.4,0,0,0-.53.14l-.1,0-1.57.21-.57.07c-.32,0-.41,0-.48-.17a.63.63,0,0,0,0-.74h0a1.65,1.65,0,0,0-.71-1.1l-.23-.18a3,3,0,0,0-1.83-.78,2.57,2.57,0,0,0-1.52-.16c0-.11-.07-.23-.11-.36l-.12-.38s0-.09,0-.14a4.37,4.37,0,0,0-.21-.57,1.07,1.07,0,0,0-.67-.59,1.09,1.09,0,0,0-.87.09l-.07.05a1.61,1.61,0,0,0-.82.89,1.23,1.23,0,0,0,.05,1.07h0a1.26,1.26,0,0,0,.09.54l-.48.17h0l-.05,0a3.91,3.91,0,0,0-1.93.63l-.21.14-.09.06a.85.85,0,0,0-.42,0l-.09-.1c-.09-.09-.19-.16-.27-.23a1.12,1.12,0,0,1-.19-.16,1.57,1.57,0,0,1-.13-.3l.17,0h.05a2.7,2.7,0,0,0,.57-.11,3.07,3.07,0,0,0,.64-.3.79.79,0,0,0,.34-.54v0a.65.65,0,0,0-.55-.85h0a1,1,0,0,0-.46,0l-.76.23-.16.05-.13,0a2.08,2.08,0,0,0-1.52,1.14,3.12,3.12,0,0,1-.23.43,1.4,1.4,0,0,0-.1.16l0,.07a1,1,0,0,0-.77.48,3.93,3.93,0,0,0-.32.47l0,.08c-.09.15-.18.3-.26.45l-.05.09-.07.13,0,.05a2.47,2.47,0,0,0-.59,1.6,1,1,0,0,0,0,.15,2,2,0,0,0-.06.28c0,.12,0,.24,0,.35l0,.25v0c-.06.1-.11.2-.16.3a1.7,1.7,0,0,1-.37.52.61.61,0,0,0-.2.24l-.08.15-.3.55a.79.79,0,0,0,0,.69.75.75,0,0,0,.9.37l.44-.17a.89.89,0,0,0,.52.32,3.74,3.74,0,0,0,1,1.95,2.18,2.18,0,0,1,.06.22l0,.09a.43.43,0,0,1,0,.05,1.35,1.35,0,0,0-.27.92c0,.34,0,.67,0,.94a1,1,0,0,0,.78,1,1,1,0,0,0,.17,0,1.43,1.43,0,0,0,1.66,1.18l.13,0a1.57,1.57,0,0,1,.63-.05,3.52,3.52,0,0,0,.78.05h.23a.82.82,0,0,0,.47.19.93.93,0,0,0,.75-.35l.17,0h0c.17,0,.31,0,.62.22l.16.1a1,1,0,0,0,.82.13c.21.28.42.54.63.8l.23.29.29.34a5.38,5.38,0,0,1,.49.63,1,1,0,0,0,.8.5l.12.09a.67.67,0,0,0,.64.1.65.65,0,0,0,.39-.45l.26.06.27.05.11,0a1.92,1.92,0,0,0,1.09,0l.08,0h0a1.87,1.87,0,0,0,1-.06,1.07,1.07,0,0,0,.78-.13l0,0,.15-.07.07,0a.55.55,0,0,1,.25,0,1.88,1.88,0,0,0-.54,1.39,1.14,1.14,0,0,0-.62.81,1.75,1.75,0,0,0,0,.76,2.23,2.23,0,0,1,0,1,1.47,1.47,0,0,0,.1,1.12c.06.11.06.14.05.16a1.14,1.14,0,0,0,.2.9,1.11,1.11,0,0,0,.19.23,2.36,2.36,0,0,0,.1.55,1.07,1.07,0,0,0,.49.7.31.31,0,0,0,.13.06,1.51,1.51,0,0,0,.19.41c-.23.21-.48.42-.72.62l-.47.4a1.31,1.31,0,0,0-.2.23.35.35,0,0,0-.07.09.64.64,0,0,0,.49,1.05h.39a.91.91,0,0,0,.45.38l.16.06.27.26.25.23a.91.91,0,0,0,0,.43,1.75,1.75,0,0,0,.13.33.43.43,0,0,1,.06.17,2.7,2.7,0,0,0,.29.91c.05.1.1.2.13.28a2,2,0,0,1,.1.38,2.33,2.33,0,0,0,.62,1.27c.3.28.63.57,1.06.93l.08.07a1.6,1.6,0,0,0,1.13.49h0a1.68,1.68,0,0,0,1.3-.55l0,0a1,1,0,0,0,0,.32.74.74,0,0,0,.44.45,1.06,1.06,0,0,0,.32.05.71.71,0,0,0,.36-.09,1.46,1.46,0,0,0,.48-.46c0-.07.07-.14.1-.2a.59.59,0,0,0,.29-.1,1,1,0,0,0,.43-.71h0l.46-.21.07,0a1.23,1.23,0,0,0,1.12-.47l.18-.19a.71.71,0,0,0,.62-.08l.1-.07a1.53,1.53,0,0,0,.84-1.38,3.9,3.9,0,0,0,1.11-.46,1.08,1.08,0,0,0,1-1.2.9.9,0,0,0-.22-.69,1.17,1.17,0,0,0-.84-.3l-.91,0v-.09a1.88,1.88,0,0,0-.57-1.38l0,0c-.11-.13-.11-.29-.09-.65,0-.07,0-.14,0-.22a2.13,2.13,0,0,0-.07-.72.69.69,0,0,0,.54-.13,1.16,1.16,0,0,1,.24,0l.2,0h0a.85.85,0,0,0,.71.28.79.79,0,0,0,.35-.14l.78.73a1,1,0,0,0,.95.18,1.1,1.1,0,0,0,.72-1.35.92.92,0,0,0,.52-.34l.06,0a1.3,1.3,0,0,0,.84.13l.32-.12.1,0a.82.82,0,0,0,.75-.24c.05-.05.06-.05.11,0a.94.94,0,0,0,.77-.21.9.9,0,0,0,.25-.36.87.87,0,0,0,.51-.29,1.52,1.52,0,0,0,.47,0,1.1,1.1,0,0,0,.8-.72,1.49,1.49,0,0,0,.94-1h0l.23-.09,0,0a1,1,0,0,0-.05.33.7.7,0,0,1-.17.43,1,1,0,0,0-.17.94.81.81,0,0,0,.62.52,3.26,3.26,0,0,0,.41.05l.34.05a1.23,1.23,0,0,0,.08.4.85.85,0,0,0,.27.37.29.29,0,0,1,0,.09l0,.06a.53.53,0,0,0-.16.23,1,1,0,0,0-.38.23l0,0a.94.94,0,0,0-.38.66.82.82,0,0,0,.19.54l-.13.43a.49.49,0,0,1-.06.13,2.09,2.09,0,0,0-.13.38c-.06.27-.1.54-.13.79a1.49,1.49,0,0,0,0,.59.61.61,0,0,1,0,.17,2,2,0,0,0,.15.53.78.78,0,0,0-.06.31.71.71,0,0,0,.28.49l.06,0a1.17,1.17,0,0,0,.34.21,1.13,1.13,0,0,1,0,.22.62.62,0,0,0,0,.12v.12a1.16,1.16,0,0,0,.52,1.19.55.55,0,0,0,.11.1c.16.12.3.23.43.31l.16.09a2.12,2.12,0,0,0,1.05.66l.29.11,0,0a1.37,1.37,0,0,0,.27.23c.15.1.3.18.44.26l.36.21a.81.81,0,0,0,.84.07.83.83,0,0,0,.41-.73c0-.13,0-.26,0-.36a1.6,1.6,0,0,1,0-.31v0a2.23,2.23,0,0,0,.67-1.63v-.06c0-.15,0-.18,0-.2l0,0,.05-.07a1.09,1.09,0,0,0,.6-.82,1.45,1.45,0,0,0,0-.53c0-.11,0-.22.07-.31a.65.65,0,0,1,.09-.28.77.77,0,0,0,.2-.76C357,285.37,356.92,285.08,356.85,284.79ZM352.13,289l-.19-.13a.75.75,0,0,0-.2-.2v0s0-.12,0-.18a2,2,0,0,0-.06-.81l3.7-3.24a.82.82,0,0,0,.25.92c0,.14.06.29.09.42a.71.71,0,0,0-.08.18Zm0-7.12,0-.09v-.05a.71.71,0,0,0-.06-.25l1.84-1.62a2.8,2.8,0,0,0,.51.55l.15.14.1.09-2.55,2.24A1.42,1.42,0,0,0,352.1,281.84ZM351,286.43a.9.9,0,0,1,0-.19l-.06-.29a.22.22,0,0,1,0-.09,4.55,4.55,0,0,1,.1-.66,1.14,1.14,0,0,1,.06-.15s0,0,0-.05l3.56-3.13a.71.71,0,0,0,.17.37,1.1,1.1,0,0,1,.19.51c0,.13.07.28.12.43v0l-3.9,3.43A.64.64,0,0,0,351,286.43Zm3.56-13.74a.31.31,0,0,1,0,.09l0,0a2.22,2.22,0,0,0-.33,1.87L350.41,278a1.29,1.29,0,0,0-.2-.21l0-1.77,0-.11,4.29-4.29s0,.05,0,.09a2.63,2.63,0,0,1,.09.77Zm-1.34-2.39.45.39.15.14-4.1,4.11a15.81,15.81,0,0,1-.53-1.57l3.7-3.45a2.83,2.83,0,0,0,.3.35Zm-2.11-1.36.26-.15.08-.06a6.23,6.23,0,0,0,.56.35l.19.12L349,272.25a7.53,7.53,0,0,1-.1-.83,3,3,0,0,1,1.28-2.86,1,1,0,0,1,.18.17A.64.64,0,0,0,351.14,268.94ZM320,257.8a.44.44,0,0,1,.12-.11c0,.07.05.14.07.22l0,.13-.16,0a.82.82,0,0,0-.09-.19A.31.31,0,0,0,320,257.8Zm-4.64,5.25a2.86,2.86,0,0,0,.35.47,2.47,2.47,0,0,1,.16.26,2.19,2.19,0,0,0,.4.61.75.75,0,0,0,.07.12,1.2,1.2,0,0,1,0,.23c0,.07,0,.15,0,.24a.67.67,0,0,1-.17.47.84.84,0,0,1-.47.29v-.08a1,1,0,0,0-.44-.76l-.21-.14-.09-.06a.73.73,0,0,0-.28-.53ZM349,277.77l-.14.07-.16,0-.16,0a.62.62,0,0,0-.43.25.61.61,0,0,0-.13.47c0,.08,0,.17-.18.24a1.1,1.1,0,0,0-.71.65H347l-.24,0h-.26a.62.62,0,0,0-.5.25.6.6,0,0,0-.09.15.93.93,0,0,0-.59.5,1.32,1.32,0,0,0-.72.28,1.46,1.46,0,0,0-.63.15l0,0-.1,0-.14-.06a1.21,1.21,0,0,0-.86-.09,1,1,0,0,0-.49.38h-.05a.89.89,0,0,0-.74.33.83.83,0,0,0-.18.61l-.39-.38a1,1,0,0,0-.86-.34.86.86,0,0,0-.35.15,1.3,1.3,0,0,0-.77-.06l-.14,0-.31,0a1.35,1.35,0,0,0-1.52-.64l-.17,0h0l-.05,0-.07-.06a1.62,1.62,0,0,0-.29-.23.87.87,0,0,0-.92.09.79.79,0,0,0-.1,1.08l.25.33.23.3a2.84,2.84,0,0,0,1,.92l.08,0a2.08,2.08,0,0,1,0,.25c0,.06,0,.12,0,.18a2,2,0,0,0,.38,1.56l0,0c.18.21.29.36.28.47s0,.24-.06.4,0,.18-.05.28a.66.66,0,0,0,.6.75l.49,0,.31,0a4.58,4.58,0,0,1-.77.22.85.85,0,0,0-.61.67,1.55,1.55,0,0,0-.06.57.08.08,0,0,1,0,0l-.07.07-.14-.05a.65.65,0,0,0-.58.15l-.17.16a5,5,0,0,0-.48.46.61.61,0,0,0-.42,0l-.29.12c-.25.11-.51.22-.76.36a1,1,0,0,0-.41.56l-.17.07a1.28,1.28,0,0,0-.84-.28,1.72,1.72,0,0,0-1.23.59.41.41,0,0,1-.35.12c-.08,0-.1,0-.28-.17l-.11-.08c-.41-.35-.71-.62-1-.88a1.3,1.3,0,0,1-.25-.62,3.55,3.55,0,0,0-.16-.56c-.05-.13-.11-.25-.17-.37a1.4,1.4,0,0,1-.16-.44,1.74,1.74,0,0,0-.19-.64l0-.08a1.08,1.08,0,0,0-.41-1.06l0,0-.23-.21-.4-.37a1.17,1.17,0,0,0-.25-.15,1.35,1.35,0,0,0-.18-.25l.5-.44a3.12,3.12,0,0,0,.49-.55.74.74,0,0,0,.11-.67.72.72,0,0,0-.41-.49.5.5,0,0,1,0-.14.9.9,0,0,0-.36-.64.79.79,0,0,0-.26-.12.89.89,0,0,1,0-.14.64.64,0,0,0-.16-.64l-.12-.12a.65.65,0,0,1-.12-.11,1.47,1.47,0,0,0-.19-1s0,0,0-.17a3.49,3.49,0,0,0,.05-1.61,1.19,1.19,0,0,1,0-.2,1.16,1.16,0,0,0,.66-1.14.66.66,0,0,1,.33-.61.83.83,0,0,0,.27-.92,2.2,2.2,0,0,0-.13-.36c0-.05,0-.1-.07-.16a.61.61,0,0,0-.26-.31,2,2,0,0,0-1.31-.31,1.18,1.18,0,0,0-.46.15l-.08,0-.11.06a.88.88,0,0,0-.57,0,.53.53,0,0,1-.39.05,1.11,1.11,0,0,0-.75.07l0,0a1,1,0,0,1-.39,0l-.14,0-.25,0-.53-.1a1,1,0,0,0-.84.23h-.11c-.16-.23-.34-.43-.51-.63l-.26-.31c-.07-.1-.15-.19-.23-.29-.24-.3-.47-.58-.68-.87a1,1,0,0,0-1.19-.4l-.09-.06a2.14,2.14,0,0,0-1.48-.38h0a1.51,1.51,0,0,0-.69.24,1.11,1.11,0,0,0-.36-.06h-.37a2.64,2.64,0,0,1-.51,0,2.87,2.87,0,0,0-1.15.05l-.11,0a.12.12,0,0,1-.11,0s-.06-.06,0-.11a.86.86,0,0,0-.17-.67.88.88,0,0,0-.62-.32h-.13c0-.23,0-.49,0-.76V270a.63.63,0,0,0,.29-.6.66.66,0,0,0,0-.15,1.66,1.66,0,0,0-.06-.48l0-.08a1.55,1.55,0,0,0-.38-.77,2.74,2.74,0,0,1-.66-1.52,1,1,0,0,0-.38-.71.81.81,0,0,0-.35-.12v0a.66.66,0,0,0-.35-.45l-.07,0c.06-.09.11-.19.16-.27l.14-.25a1.43,1.43,0,0,0,.17-.49l0-.32a2.19,2.19,0,0,1,0-.27.89.89,0,0,1,0-.14,1.67,1.67,0,0,0,.08-.49,1.3,1.3,0,0,1,.34-.83,1.51,1.51,0,0,0,.15-.26l0,0,0-.1c.08-.15.16-.28.24-.41l.05-.09a3,3,0,0,1,.21-.32h0a1.23,1.23,0,0,0,.93-.71v0a1.62,1.62,0,0,0,.39.49.65.65,0,0,0,.07.43l.11.18.24.45c0,.16-.05.2-.08.22a1.16,1.16,0,0,0-.38.35c-.33.48-.66,1-1,1.51a.85.85,0,0,0,.18,1.18l0,0a.27.27,0,0,0,.07.08,1.21,1.21,0,0,0,.56.77.64.64,0,0,0,.06.38l.06.09a1.08,1.08,0,0,0,.37.66,1.06,1.06,0,0,0,.85.16,2.31,2.31,0,0,0,1.55-.78,2,2,0,0,0,.47-1.17s0-.1,0-.16a1.54,1.54,0,0,0-.12-1.08.66.66,0,0,0-.27-.4c-.06,0-.11-.15-.18-.28a2.48,2.48,0,0,0-.36-.56,1.82,1.82,0,0,1-.21-.29l0,0a.94.94,0,0,0-.23-.7.9.9,0,0,0,.19-.2l.06-.11A1.91,1.91,0,0,0,317,261l.1-.07a2.76,2.76,0,0,1,1.32-.46h0a1.4,1.4,0,0,0,.44-.09h0l.8-.29a1,1,0,0,0,.26-.13.05.05,0,0,1,0,0l.18-.1.08-.05.06,0a1.12,1.12,0,0,0,.53.11.69.69,0,0,0,.43-.18,1.07,1.07,0,0,0,.4,0h.09a1.6,1.6,0,0,1,.93,0,1.21,1.21,0,0,0,.52.13h0a1.75,1.75,0,0,1,1.06.52l.26.19c.19.14.19.24.19.28v.08a1.15,1.15,0,0,0,0,.9,1.62,1.62,0,0,0,1.86,1l.56-.07,1.61-.21a2.21,2.21,0,0,0,.41-.13l.09,0c.53,0,1.11,0,1.79,0l.21,0a.52.52,0,0,0,.14.19,5.29,5.29,0,0,0,2.59,1.29,6,6,0,0,0,1.49.13h.23a1,1,0,0,0,.82-.51h0a1.16,1.16,0,0,0,.85-.39,2.6,2.6,0,0,1,.36-.3,1.9,1.9,0,0,0,1.5-.13.65.65,0,0,0,.31-.38l.25,0a2.25,2.25,0,0,0,1-.25l.17,0,0,.1.11.33a.64.64,0,0,0,.42.41h.07c0,.05,0,.1,0,.15a.67.67,0,0,0,.32.43.57.57,0,0,0,.28.08l0,.07a1.62,1.62,0,0,0,.08.27.81.81,0,0,0,.7.59,1,1,0,0,0,.72-.28l.22.19c.05,0,.09.1.14.15l.09.09a.62.62,0,0,0,.53.2.56.56,0,0,0,.28-.1,1,1,0,0,0,.46,0,2.47,2.47,0,0,0,.22.29.65.65,0,0,0,.47.2,1.1,1.1,0,0,0,.63.2h0a.6.6,0,0,0-.23.6.66.66,0,0,0-.08.21.63.63,0,0,0-.44.52l0,.09a.68.68,0,0,0,.07.4l-.12.33a.65.65,0,0,0,.3.79l.71.38a.63.63,0,0,0,.65,0,.57.57,0,0,0,.24-.27l.4,0,.38,0h.06a4.14,4.14,0,0,0-.87,3,13.84,13.84,0,0,0,1.32,4.67l0,1.52Zm1.74,1.6a.11.11,0,0,0,0-.05c0-.07.05-.15.07-.25s0-.07,0-.1l3.46-3a8.08,8.08,0,0,1-.13,1.11l-.2,0-.08,0a.65.65,0,0,0-.46.45.64.64,0,0,0,.14.62c.08.08.1.1,0,.26a.65.65,0,0,0-.08.39l-1.89,1.66a.92.92,0,0,0-.49-.3l-.12,0-.38-.09A1.8,1.8,0,0,0,350.74,279.37Zm3.62,10.16a1.23,1.23,0,0,0-.28.66l-.06,0,0,0a1.22,1.22,0,0,0-.33-.27,3,3,0,0,0-.5-.21l-.2-.08,2-1.73a1.48,1.48,0,0,0-.18.9v0C354.77,289,354.63,289.2,354.36,289.53Z"/><g id="LkLzQj.tif"><path class="cls-2" d="M320,59.24c95.23.15,172.36,77.39,172.14,172.39-.22,95.31-77.51,172.46-172.44,172.13-95.49-.34-172-77.55-171.78-173.47C148.06,136.24,225.66,59.1,320,59.24Zm155.1,126.82c-1.08-8.91-2.06-10-9.5-11.24a23.56,23.56,0,0,0-2.71-.53,6.63,6.63,0,0,1-6.61-5.12,3.56,3.56,0,0,0-3.78-2.8c-5.72-.21-10.86-1.74-14.71-6.44a4.41,4.41,0,0,0-3.4-.93c-8.58,1-16.81,2.89-23,9.69a23.06,23.06,0,0,1-4.59,3.67,12,12,0,0,1-4.33,1.92c-3.75.64-7.56,1-11.35,1.36-3,.31-4.85-1.17-5.67-4-.94-3.21-1.81-6.44-2.71-9.67-1.91-6.86-.48-8.86,6.61-9.28,5.14-.31,8.57-3.86,8.18-8.93a5.17,5.17,0,0,0-2.4-3.46c-2.39-1.35-5.29-1.85-7.58-3.32-1.42-.92-2.87-3-2.87-4.55s1.57-3.32,2.87-4.55c1-1,2.71-1.2,4.09-1.8,10.33-4.51,10.23-4.59,15.87,5.17,1.79,3.11,3.6,3.28,6.9,2.86,8.44-1.09,14.36-4.91,18.06-12.73,2.39-5.06,3.47-3.56-.94-7.52q-69.19-62.32-159-37.42c-5.91,1.63-11.59,4.13-18.09,6.49,2.44,2.16,4.28,3.56,5.82,5.22,2,2.13,4,2.53,6.8,1.72a90.17,90.17,0,0,1,11.51-2.42,6.91,6.91,0,0,1,4.53.83c3.42,2.29,2.95,14.17-.47,16.43a14.15,14.15,0,0,1-2.16,1.1c-1.54.72-3.1,1.41-4.66,2.1l1,.39c-.32,5.11-.71,10.21-.9,15.31a32.11,32.11,0,0,0,.58,5.13l1.15.33,11.21-10.58c-.44-.79-.62-1.21-.88-1.57-3.13-4.28-2.81-6.4,1.47-9.48q5.91-4.25,11.87-8.45c2.45-1.73,4.89-1.85,7.28.19,4.74,4.06,9.58,8,14.17,12.25,1.14,1,2.28,3.1,2,4.44-1.64,9,2.4,15.22,9.31,20.2a7.26,7.26,0,0,1,.74.73c2.38,2.29,2.45,4.82.73,7.5-1.38,2.13-2.9,4.18-4.21,6.36A6.6,6.6,0,0,1,325,154c-11-.09-22,0-33-.09a4.73,4.73,0,0,0-4.89,2.85c-2.88,5.58-6.34,10.77-11.41,14.64a51.39,51.39,0,0,0-18.31,25.79,8.79,8.79,0,0,1-.43.94c-2.32,4.78-6.5,5.13-9.65.77a70.36,70.36,0,0,0-4.2-5.94,4,4,0,0,0-3.35-1.15c-5.86,1.72-11.67,3.65-17.43,5.71a4.35,4.35,0,0,0-2.23,2.6,22.39,22.39,0,0,0-.88,6.14,4,4,0,0,0,1.51,2.92c5.16,3.33,10.39,6.28,17,5.47,3.27-.4,5.07,1.81,5.14,5.12.05,2.43-.09,4.86-.12,7.29-.09,5.67,2.46,7.38,7.83,5.28,4.41-1.73,8.78-3.55,13.24-5.14a7,7,0,0,1,4.31-.36c11,4.06,22.75,6.36,32.18,14.06a13.19,13.19,0,0,0,5.27,2.51c8.46,1.91,14.27,6.52,16.38,15.22.5,2.07,1.86,2.93,4.07,2.78,2.53-.17,5.1.12,7.63-.07a8.42,8.42,0,0,1,8,3.85c2.6,3.54,5.51,6.85,8.28,10.26,6.87,8.47,6.8,7.29,1.37,16.09s-9.9,17.7-9,28.42a16.1,16.1,0,0,1-.16,2.77c-.34,3.92-2.6,5.66-6.58,5.05-3-.45-6-.78-8.89-1.42-2.26-.5-3.21.19-3.41,2.45a22.61,22.61,0,0,1-8.53,16c-3.87,3.22-7.59,6.61-11.59,10.11a42.81,42.81,0,0,0,2.71,5.29c4.83,6.94,3.49,13.38-1.19,19.75-2.16,2.95-4.1,3.77-7.38,2.26-5.77-2.66-11.56-5.3-17.18-8.24a6.89,6.89,0,0,1-3.3-4c-3.33-16.36-8.62-32.43-7.27-49.5.36-4.48-.05-9,.1-13.53a4,4,0,0,0-2.6-4.28c-6.15-2.94-12.13-6.23-18.33-9-3.85-1.75-5.27-4.3-5-8.45.44-6-.08-12.1.79-18,1.53-10.39-2.17-18.31-8.45-26.44-5-6.49-10.36-10.33-18.27-11a8.52,8.52,0,0,1-1-.13c-8.07-1.77-16.46-2.5-23.13-8.36-2.1-1.84-3.35-3.63-3.29-6.42.09-3.47.2-7,0-10.41a6.11,6.11,0,0,0-1.83-4.07c-4.47-3.35-7.36-7.48-8.19-13.09a3.67,3.67,0,0,0-2.13-2.6c-4.16-.83-8.4-1.29-12.65-1.89-.39,1-.71,1.58-.9,2.22a158.93,158.93,0,0,0-5.55,66.54c4.52,35.37,18.88,66.36,43.82,91.91,36.65,37.57,81.54,54.16,133.74,49.27,37.4-3.51,69.5-19.27,96.76-45.19,4.94-4.71,6.85-9.48,6.11-16.12-1-9.16-2.4-17.88-11.09-23.28a11.71,11.71,0,0,1-1.26-1.19c-2.77-2.32-2.95-5-1.17-8,2.51-4.28,4.78-8.71,7.4-12.93a5.32,5.32,0,0,0,.2-5.77c-2-4.16-4-8.35-5.58-12.68a29.59,29.59,0,0,1-1.28-7.66c-.2-2.59,0-5.2,0-8.66-7.46.59-14.57,1-21.65,1.75-6.18.63-12.32,1.91-18.52,2.22a10.17,10.17,0,0,1-6.64-2.86c-4.74-4.53-9.14-9.44-13.46-14.39a12,12,0,0,1-2.89-5.58c-.78-4.9-.9-9.89-1.48-14.83-.7-6-.41-6.86,5-9.42,1.94-.91,2.78-1.95,2.47-4.22-.49-3.54-.67-7.13-.85-10.71-.27-5.2.79-6.52,5.84-7.62,11.27-2.47,22.56-4.9,33.81-7.45a8.33,8.33,0,0,1,7.75,1.6,8.13,8.13,0,0,0,4.67,1.27,24.66,24.66,0,0,0,5.11-.84c15.9-3,15.81-2.73,30.85,2.42C462.41,184.49,468.6,184.88,475.07,186.06ZM168.85,172.93c4.33.67,8.16,1.66,12,1.78,5.41.17,7.79,2.82,8.72,7.89.49,2.72,1.3,6.38,3.25,7.66,7,4.6,8.72,10.81,7.69,18.47a5,5,0,0,0,0,2.41c.55,1.36,1.09,3.31,2.16,3.77,4.36,1.87,8.92,3.26,13.4,4.83l.48-1.15c-1.65-1-3.28-2-5-2.82-2.75-1.42-3.7-3.64-3.2-6.61.81-4.78,1.73-9.55,2.35-14.36.43-3.36,2.25-5,5.35-6,6.62-2,13.24-4.09,19.75-6.44,5.89-2.12,11.67-4.77,14.92,4.19a24.3,24.3,0,0,0,1.66-3.11c1.6-5,4.76-8.82,8.69-12.23,7.69-6.67,15.16-13.6,19.51-23.12,1.48-3.24,4-4.36,7.54-4.31,11.1.13,22.2.09,33.3,0,1.07,0,2.13-.91,3.19-1.4-.49-.94-.73-2.23-1.5-2.75-6.76-4.65-9.46-10.9-8.23-19a5.33,5.33,0,0,0-1.48-3.92,59.83,59.83,0,0,0-7.37-6.29,3.74,3.74,0,0,0-3.19-.12,30.41,30.41,0,0,0-4.45,3.12c2.12,2.82,3.43,5.67.86,8.15-6.88,6.65-13.91,13.16-21.12,19.46-2.62,2.29-5.75,1.26-7.5-1.93-1.22-2.23-2.14-4.61-3.35-6.84a14.12,14.12,0,0,1-1.61-9.29c.66-4.37,1.95-8.83-.25-13.28-1.46-3-1.83-6.11.88-9.35-5.69,2.77-8.72-1.06-12.08-4-2.33-2.07-4.8-4-7-6.23-1.85-1.89-3.34-1.92-5.67-.61a164,164,0,0,0-55.42,50.44A154.6,154.6,0,0,0,168.85,172.93Zm280.5,156a29.64,29.64,0,0,0,2.29-2.86c5.64-9.79,12.08-19.23,16.7-29.48,14.07-31.28,17-64,10.59-97.6-.45-2.38-1.39-3.48-4.06-3.48a72.82,72.82,0,0,1-30.54-6.55,12.27,12.27,0,0,0-6.36-.52c-6.18.83-12.31,2-18.45,3-2.85.48-5.42.25-7.73-1.92a4.71,4.71,0,0,0-3.65-.89c-8.94,1.8-17.83,3.83-26.75,5.7-2,.42-2.6,1.39-2.33,3.38.36,2.62.21,5.33.69,7.93.9,4.85-.88,8.11-5.33,10-1.94.8-2.59,2-2.07,4.06a16.5,16.5,0,0,1,.32,3.79c0,4.8,1.18,8.94,5.48,11.92a20.53,20.53,0,0,1,5.76,6c2.64,4.31,6.21,4.37,10.41,3.4A114.75,114.75,0,0,1,427,241.64c8,.45,10.69,2.41,9.91,10.21-.81,8.14,1.24,15.21,4.93,22.15,1,1.94,1.66,4.08,2.69,6,1.42,2.64,1.11,5-.4,7.5-2.28,3.75-4.25,7.69-6.56,11.41-1.21,1.95-1.17,3.38.76,4.63,7.16,4.68,9.43,11.83,10.14,19.82C448.56,325,448.94,326.54,449.35,328.88ZM249.79,243.52c6,4.38,5.07,10.08,4.9,15.6-.24,7.63-.4,15.26-.74,22.88a3.85,3.85,0,0,0,2.58,4.23c6.15,2.92,12.15,6.16,18.32,9,3.45,1.61,5,3.82,4.91,7.79-.26,7.74-.1,15.49-.07,23.23,0,3.47-.36,7,.26,10.38,1.65,9,3.73,17.83,5.67,26.74.19.86.39,2.12,1,2.44,3.71,2,7.52,3.7,12.31,6a28.28,28.28,0,0,0-.9-4.58c-.95-2.22-2.08-4.38-3.2-6.53-5.13-9.83-5.15-9.85,4.26-15.9,8-5.16,14.47-11.4,15.2-21.67a17.79,17.79,0,0,1,.64-3.05c1.07-4,3-5.25,7.11-4.59,3.37.55,6.76,1,10.38,1.56.11-1.64.28-2.89.27-4.14,0-6.49,1.37-12.49,5.22-17.91a66.81,66.81,0,0,0,5.08-9,3.6,3.6,0,0,0,0-3c-4.95-7.47-10.31-14.34-20.94-11.6a7.16,7.16,0,0,1-1.39,0c-2.8.16-4.54-1.19-5.59-3.73s-2.43-4.76-3.18-7.28c-1.09-3.62-3.49-5.37-6.91-6.45-3-.93-6.23-1.75-8.56-3.61-8.07-6.47-17.71-9.27-27.19-12.51a6.63,6.63,0,0,0-4-.27C260.35,239.24,255.56,241.24,249.79,243.52Zm216.59-78.61,1-.85A156.32,156.32,0,0,0,442,124.93c-2.57,4-5,7.33-7,10.93a10.61,10.61,0,0,1-7.84,5.52c-5.65,1.11-11.27,2.45-16.84,3.89a4.56,4.56,0,0,0-2.75,2.31c-2.74,6.81-5.07,13.9-15,15.4,1.51,1,2.47,2.22,3.12,2.06,2.49-.6,5.16-1.2,7.24-2.59,3.83-2.55,7.24-5.73,10.94-8.49a12.1,12.1,0,0,1,4.56-2.25c5.87-1.21,11.77-2.37,17.71-3.08,1.91-.22,4.66.39,5.86,1.69a19.31,19.31,0,0,0,14.63,6.52c4,.06,6.53,1.72,7.74,5.58C464.69,163.37,465.7,164.08,466.38,164.91Z"/><path class="cls-2" d="M301.74,170.09a14.75,14.75,0,0,1-.86,3.15c-4,6.7-8.82,12.71-16,16.34-2.56,1.3-5.11,1-6.69-1.56s-1.25-5.22,1.29-6.71c5.57-3.26,9.42-8,12.84-13.27a4.47,4.47,0,0,1,6.08-1.71C299.94,167.12,300.85,169,301.74,170.09Z"/></g><circle class="cls-1" cx="306.78" cy="268.87" r="73.24"/><path class="cls-2" d="M306.79,348.62A79.75,79.75,0,0,1,229.07,251a79.73,79.73,0,1,1,155.42,35.71h0A79.87,79.87,0,0,1,306.79,348.62Zm-.14-146.51a66.75,66.75,0,1,0,65.17,81.71h0a66.74,66.74,0,0,0-50.09-80A67.35,67.35,0,0,0,306.65,202.11Zm71.51,83.17h0Z"/><path class="cls-2" d="M393,420.76a16,16,0,0,1-13.57-7.51L338.2,347.41a16,16,0,1,1,27.12-17l41.24,65.83A16,16,0,0,1,393,420.76Z"/><path class="cls-2" d="M357.33,287.53a1.87,1.87,0,0,0-.4-.69,3,3,0,0,0,0-1.52,14.94,14.94,0,0,0-.64-1.63c-.09-.21-.18-.41-.26-.62a6.83,6.83,0,0,1-.22-.68,5.75,5.75,0,0,0-.9-2c0-.09,0-.19,0-.29,0-.62.05-1.25.05-1.89a2,2,0,0,0-.78-1.52c-.29-.25-.58-.48-.86-.7l-.35-.27c-.6-.48-.94-.83-1-1.26v0a3.32,3.32,0,0,0,.13-1.58,2.66,2.66,0,0,0,1-1.82,21.7,21.7,0,0,0,.2-3.59,12.14,12.14,0,0,0-.25-2.07l.05,0-.09-.09a5.88,5.88,0,0,0-.33-1.17c-.19-.42.15-1.16.48-1.88l.05-.1a3.09,3.09,0,0,0,.33-1.57c0-.17,0-.35,0-.52a8.2,8.2,0,0,0-.5-2.55A5.91,5.91,0,0,0,351.3,255c-.39-.32-.79-.63-1.17-.93l-1-.79-.09-.08-.24-.2a6,6,0,0,0-3.1-2.63,8.41,8.41,0,0,1-1.21-.69,1.64,1.64,0,0,0-1.06-.31,2.59,2.59,0,0,0-1.63.31c-1.46-1-3.61-1.46-5-.54a1.41,1.41,0,0,0-.18.14l-.44,0-.66,0c.05-.09.09-.19.13-.28a2.13,2.13,0,0,0,.68-1.1,1.45,1.45,0,0,0-.23-1.33,1.34,1.34,0,0,0-.2-.21,1.73,1.73,0,0,0,.16-.88,2.32,2.32,0,0,0-.93-1.65,2.59,2.59,0,0,0-.64-.37,2,2,0,0,0-.7-.57,2.8,2.8,0,0,0-1.26-.24h-.07a1.74,1.74,0,0,0-1.17-.49,3.19,3.19,0,0,0-2.57-1.39,1.46,1.46,0,0,0-1.1.5h-.08c-.18-.15-.38-.31-.6-.46a2.55,2.55,0,0,0-2.68-.45.21.21,0,0,0,0-.06,2.61,2.61,0,0,0-.48-.67h.09a1.44,1.44,0,0,0,1.08-.59,4.12,4.12,0,0,1,.45-.08,3.23,3.23,0,0,0,2.69-1.64,1.44,1.44,0,0,0-1.45-2.11l-.44.06-.59.07c-.9,0-1.65.09-2.42.1H322l-1,0a2.16,2.16,0,0,0-1.26.46s-.08.06-.45,0a3.45,3.45,0,0,0-2.37.36,2.63,2.63,0,0,1-1.1.29c-.26,0-.53.08-.82.14a5.52,5.52,0,0,1-1.49,0c-.34,0-.71,0-1.08,0-.57,0-1.12.06-1.65.11l-.34,0a1.58,1.58,0,0,0-1,.43h0a1.45,1.45,0,0,0-.39,1.87l.07.11c-.14.14-.28.29-.41.44a2.37,2.37,0,0,0-2.18,1.29,10.83,10.83,0,0,1-6.42-1.31,1.41,1.41,0,0,0-.18-.9,1.43,1.43,0,0,0-1.17-.73l-.7,0a13.65,13.65,0,0,0-1.57-.06c-1.62,0-3,.14-4.25.26a3,3,0,0,0-1.16.38l-.22.1c-1.16.25-2.34.47-3.49.68l-1.27.24c-.71.14-.94,0-1.11-.31a1.45,1.45,0,0,0-.07-1.67h0a3.77,3.77,0,0,0-1.73-2.38l-.55-.36a6.73,6.73,0,0,0-4.2-1.5,5.78,5.78,0,0,0-3.42-.15c-.1-.25-.2-.52-.3-.79s-.21-.56-.32-.83l-.12-.32a11,11,0,0,0-.53-1.26,2.46,2.46,0,0,0-1.58-1.22,2.4,2.4,0,0,0-2,.33l-.16.1a3.66,3.66,0,0,0-1.7,2.11,2.81,2.81,0,0,0,.25,2.4v0a2.45,2.45,0,0,0,.28,1.2l-1.06.44,0,0-.1,0a8.75,8.75,0,0,0-4.24,1.68c-.17.11-.32.23-.45.33l-.2.16a1.67,1.67,0,0,0-.94,0,1.52,1.52,0,0,0-.22-.22c-.21-.18-.44-.33-.63-.47a4.44,4.44,0,0,1-.45-.33c-.16-.3-.27-.51-.33-.66a3.72,3.72,0,0,1,.37-.08l.13,0a7.1,7.1,0,0,0,1.25-.31,6.44,6.44,0,0,0,1.39-.78,1.87,1.87,0,0,0,.71-1.25v-.05a1.44,1.44,0,0,0-1.34-1.82h-.08a2.29,2.29,0,0,0-1,.08c-.57.19-1.12.4-1.66.61l-.35.14-.3.11a4.7,4.7,0,0,0-3.24,2.75,7.11,7.11,0,0,1-.47,1c-.07.14-.14.27-.19.38a1.19,1.19,0,0,1-.08.16,2.44,2.44,0,0,0-1.67,1.18,8.74,8.74,0,0,0-.65,1.1l-.1.19c-.18.34-.35.69-.51,1l-.12.23a3,3,0,0,0-.12.29.54.54,0,0,0,0,.11,5.73,5.73,0,0,0-1.11,3.66c0,.06,0,.23-.06.36a4.64,4.64,0,0,0-.1.63c0,.27,0,.53,0,.78s0,.4,0,.58a.07.07,0,0,1,0,.05c-.12.23-.22.45-.33.67a3.65,3.65,0,0,1-.75,1.23,1.47,1.47,0,0,0-.41.55l-.17.36c-.19.41-.4.84-.59,1.27a1.81,1.81,0,0,0,.07,1.54,1.64,1.64,0,0,0,2.07.71l1-.43a2,2,0,0,0,1.2.64,8.31,8.31,0,0,0,2.41,4.24,5,5,0,0,1,.18.48c0,.07.05.14.07.21l0,.1a3,3,0,0,0-.49,2.1c.06.76.1,1.49.12,2.12A2.21,2.21,0,0,0,257,265l.37.06a3.27,3.27,0,0,0,1.1,1.76,3.24,3.24,0,0,0,2.8.64l.27-.07a3.58,3.58,0,0,1,1.4-.21,8.69,8.69,0,0,0,1.76,0l.51,0a1.82,1.82,0,0,0,1.09.36,2.11,2.11,0,0,0,1.63-.89l.39-.1h0c.37-.09.69.05,1.4.41l.38.19a2.38,2.38,0,0,0,1.86.2c.5.59,1,1.15,1.52,1.7.18.2.37.4.55.61l.69.72a12.19,12.19,0,0,1,1.2,1.36,2.08,2.08,0,0,0,1.86,1l.28.19a1.41,1.41,0,0,0,1.43.13,1.43,1.43,0,0,0,.82-1l.59.08.61.09.26,0a4.43,4.43,0,0,0,2.43-.16l.17-.08.08,0a4.1,4.1,0,0,0,2.21-.27,2.39,2.39,0,0,0,1.73-.4l.11-.07.32-.17.16-.08a1.36,1.36,0,0,1,.56,0,4.2,4.2,0,0,0-1,3.17,2.69,2.69,0,0,0-1.3,1.9,4.47,4.47,0,0,0,.15,1.71,5,5,0,0,1,.09,2.31,3.21,3.21,0,0,0,.37,2.49c.16.25.14.3.13.35a2.59,2.59,0,0,0,.56,2,3.27,3.27,0,0,0,.47.5,4.88,4.88,0,0,0,.31,1.23,2.4,2.4,0,0,0,1.17,1.5l.31.11a3.1,3.1,0,0,0,.49.9c-.5.5-1,1-1.53,1.48l-1,1a3.13,3.13,0,0,0-.43.53l-.15.22a1.45,1.45,0,0,0-.09,1.54,1.42,1.42,0,0,0,1.35.74,3.67,3.67,0,0,0,.38,0h.49a2.09,2.09,0,0,0,1,.81,2.63,2.63,0,0,0,.37.1l.66.55.57.47a2.28,2.28,0,0,0,.15,1,5,5,0,0,0,.33.72,1.18,1.18,0,0,1,.17.38,5.67,5.67,0,0,0,.78,2c.12.21.23.42.32.6a5.41,5.41,0,0,1,.28.83,5.28,5.28,0,0,0,1.56,2.77c.71.6,1.48,1.2,2.5,2l.2.15a3.66,3.66,0,0,0,2.59.93h0a3.76,3.76,0,0,0,2.83-1.4l.06-.06a2.11,2.11,0,0,0,.16.73A1.58,1.58,0,0,0,306,308a1.9,1.9,0,0,0,.72.09,1.54,1.54,0,0,0,.8-.26,3,3,0,0,0,1-1.1,4,4,0,0,0,.19-.45,1.75,1.75,0,0,0,.66-.26,2.11,2.11,0,0,0,.85-1.66h0c.31-.19.66-.36,1-.54l.15-.07a2.74,2.74,0,0,0,2.44-1.21,3.6,3.6,0,0,1,.37-.44,1.59,1.59,0,0,0,1.39-.28l.21-.16a3.39,3.39,0,0,0,1.69-3.21,8.67,8.67,0,0,0,2.44-1.17c.68-.11,2.13-.6,2.08-2.84a2,2,0,0,0-.61-1.5,2.49,2.49,0,0,0-1.91-.56c-.68,0-1.38,0-2.06,0a1.48,1.48,0,0,0,0-.21,4.36,4.36,0,0,0-1.46-3l-.08-.08c-.27-.29-.29-.65-.29-1.46v-.47a4.8,4.8,0,0,0-.24-1.63,1.47,1.47,0,0,0,1.18-.35,1.54,1.54,0,0,1,.54-.14l.45-.09.08,0a1.85,1.85,0,0,0,1.64.53,1.75,1.75,0,0,0,.76-.37c.67.6,1.27,1.09,1.84,1.53a2.37,2.37,0,0,0,2.16.29,2.47,2.47,0,0,0,1.43-3.13,1.93,1.93,0,0,0,1.11-.83l.14.05a2.92,2.92,0,0,0,1.9.16,4.27,4.27,0,0,0,.7-.31l.21-.11a1.79,1.79,0,0,0,1.66-.64c.1-.11.13-.11.24-.1a2.09,2.09,0,0,0,1.7-.57,1.85,1.85,0,0,0,.5-.84,1.89,1.89,0,0,0,1.11-.73,4,4,0,0,0,1.05-.09,2.47,2.47,0,0,0,1.7-1.73,3.4,3.4,0,0,0,2-2.29l.06,0a4.08,4.08,0,0,0,.51-.23.44.44,0,0,0,.08.11,2.85,2.85,0,0,0-.06.75,1.47,1.47,0,0,1-.33,1,2.22,2.22,0,0,0-.24,2.13,1.83,1.83,0,0,0,1.46,1.08c.33,0,.63.06.92.07a5.9,5.9,0,0,1,.78.06,2.66,2.66,0,0,0,.23.89,2,2,0,0,0,.65.79c0,.07.05.13.07.19a1.21,1.21,0,0,0,.05.14,1.54,1.54,0,0,0-.35.52,2.3,2.3,0,0,0-.8.58l-.09.1a2.06,2.06,0,0,0-.75,1.52,1.78,1.78,0,0,0,.48,1.18c-.07.32-.15.66-.23,1,0,.08-.06.19-.1.3a4,4,0,0,0-.25.86,17.47,17.47,0,0,0-.19,1.78,3.34,3.34,0,0,0,.14,1.33,3.33,3.33,0,0,1,.1.38,5.11,5.11,0,0,0,.41,1.16,1.42,1.42,0,0,0-.08.71,1.44,1.44,0,0,0,.67,1.05l.15.1a3,3,0,0,0,.79.42,2.82,2.82,0,0,1,0,.49,1.16,1.16,0,0,0,0,.27v.28a2.61,2.61,0,0,0,1.32,2.58,1.55,1.55,0,0,0,.27.23c.37.24.7.45,1,.63a2.52,2.52,0,0,0,.38.18,4.82,4.82,0,0,0,2.43,1.33,5.86,5.86,0,0,1,.67.22l0,0a3.16,3.16,0,0,0,.64.5c.35.19.7.36,1,.52l.84.42a1.81,1.81,0,0,0,1.88,0,1.83,1.83,0,0,0,.83-1.7c0-.29,0-.57-.06-.81a6,6,0,0,1-.05-.69.19.19,0,0,1,0-.07A5,5,0,0,0,356,296.4l0-.13c0-.33,0-.4,0-.44l.06-.1a1.28,1.28,0,0,1,.1-.17,2.41,2.41,0,0,0,1.23-1.91,3.3,3.3,0,0,0-.18-1.2c.06-.25.09-.49.12-.7a1.51,1.51,0,0,1,.15-.63,1.72,1.72,0,0,0,.35-1.74C357.69,288.82,357.52,288.17,357.33,287.53Zm-10,10-.44-.27a1.74,1.74,0,0,0-.49-.41v-.1c0-.12,0-.26,0-.41a4.36,4.36,0,0,0-.23-1.8l7.84-7.77a1.82,1.82,0,0,0,.69,2c.09.32.17.64.25.94a3.25,3.25,0,0,0-.15.4Zm-1.05-15.95c0-.07,0-.15-.07-.21s0-.07,0-.11a1.42,1.42,0,0,0-.17-.54l3.92-3.89a6.74,6.74,0,0,0,1.2,1.17l.37.29.23.19-5.42,5.37A3.05,3.05,0,0,0,346.28,281.57ZM344.51,292a2.87,2.87,0,0,1-.12-.43c0-.19-.1-.41-.17-.63a1.6,1.6,0,0,1,0-.22c0-.5.07-1,.15-1.49a3.14,3.14,0,0,1,.11-.33.65.65,0,0,0,0-.13l7.55-7.48a1.64,1.64,0,0,0,.43.79,2.29,2.29,0,0,1,.5,1.12c.09.29.19.63.32,1a.36.36,0,0,1,0,.09l-8.28,8.21A1.42,1.42,0,0,0,344.51,292Zm6.13-31.28-.08.19-.05.1c-.51,1.12-1.19,2.64-.49,4.23l-8,8a2.29,2.29,0,0,0-.47-.46l-.28-4-.08-.23,9-10.21a1.86,1.86,0,0,1,.1.2,5.85,5.85,0,0,1,.31,1.7C350.61,260.41,350.62,260.57,350.64,260.72Zm-3.33-5.18,1,.83.37.29-8.64,9.75a34.3,34.3,0,0,1-1.4-3.45l7.83-8.23a4.25,4.25,0,0,0,.72.74Zm-4.93-2.75c.23-.13.41-.27.57-.38l.18-.14a11.32,11.32,0,0,0,1.3.71l.44.24L338,260.49c-.13-.6-.25-1.22-.33-1.84a6.87,6.87,0,0,1,2.48-6.58,1.83,1.83,0,0,1,.43.35A1.44,1.44,0,0,0,342.38,252.79Zm-71.24-20.74c0-.08.09-.15.25-.27l.18.48.11.29-.36.09a2.82,2.82,0,0,0-.22-.42A1.46,1.46,0,0,1,271.14,232.05ZM262.21,240a18.56,18.56,0,0,0,2.08,2.47,7.1,7.1,0,0,1,.93,1.37,11.84,11.84,0,0,0,2.44,3.17,3.94,3.94,0,0,0,.39.62,6.33,6.33,0,0,1-.08,1.29c0,.39-.1.84-.12,1.31a4.08,4.08,0,0,1-.78,2.65,4.73,4.73,0,0,1-2.49,1.75c0-.14,0-.29,0-.43a5.22,5.22,0,0,0-2.67-4c-.42-.28-.83-.5-1.19-.7l-.54-.31a4.17,4.17,0,0,0-1.7-2.83C259.76,244.14,261,242.05,262.21,240Zm80.71,36.22a.61.61,0,0,1,0-.13,3.61,3.61,0,0,0,.11-.57c0-.07,0-.14,0-.21l7.33-7.28a18.61,18.61,0,0,1-.13,2.51,4.09,4.09,0,0,0-.44.13l-.18.06a1.43,1.43,0,0,0-1,1,1.44,1.44,0,0,0,.41,1.38c.19.17.23.22.06.58a1.53,1.53,0,0,0-.11.89l-4,4a1.91,1.91,0,0,0-1.13-.61l-.28-.06a5,5,0,0,0-.87-.15A4.18,4.18,0,0,0,342.92,276.22Zm9.48,22.26a3,3,0,0,0-.54,1.53l-.14-.08-.07-.07a2.73,2.73,0,0,0-.77-.56,8.35,8.35,0,0,0-1.15-.4l-.47-.16,4.18-4.14a3.59,3.59,0,0,0-.28,2.06v.1C353.24,297.28,353,297.7,352.4,298.48Z"/></g></g></svg>