<svg xmlns="http://www.w3.org/2000/svg" viewBox="0 0 344.22 361.51"><defs><style>.cls-1{fill:#928440;}.cls-2{fill:#fff;}</style></defs><g id="Capa_2" data-name="Capa 2"><g id="Capa_1-2" data-name="Capa 1"><path class="cls-1" d="M209,225.54a.83.83,0,0,0-.16-.31,1.45,1.45,0,0,0,0-.68c-.07-.26-.16-.5-.24-.74,0-.09-.07-.19-.11-.28s0-.2-.08-.31a2.39,2.39,0,0,0-.34-.9v-.13c0-.28.06-.56.07-.84a.89.89,0,0,0-.3-.7c-.12-.12-.25-.23-.37-.33a.86.86,0,0,0-.14-.13c-.26-.23-.4-.4-.42-.59h0a1.57,1.57,0,0,0,.1-.7,1.22,1.22,0,0,0,.5-.78,10.7,10.7,0,0,0,.19-1.59,6.12,6.12,0,0,0-.06-.93l0,0,0,0a2.53,2.53,0,0,0-.12-.53c-.07-.19.1-.51.26-.82l0-.05a1.39,1.39,0,0,0,.19-.69c0-.07,0-.15,0-.23a3.41,3.41,0,0,0-.15-1.14,2.64,2.64,0,0,0-.68-1.14l-.49-.44-.43-.38,0,0-.1-.1a2.69,2.69,0,0,0-1.3-1.25,3.12,3.12,0,0,1-.52-.34.75.75,0,0,0-.47-.16,1.08,1.08,0,0,0-.73.09,2.13,2.13,0,0,0-2.22-.37l-.08.05-.19,0-.3,0a.54.54,0,0,0,.07-.13.87.87,0,0,0,.33-.46.64.64,0,0,0-.07-.6.39.39,0,0,0-.08-.1.83.83,0,0,0,.1-.39,1.07,1.07,0,0,0-.37-.76,1.67,1.67,0,0,0-.28-.18.88.88,0,0,0-.29-.27,1.38,1.38,0,0,0-.56-.14h0a.81.81,0,0,0-.51-.26,1.44,1.44,0,0,0-1.1-.68.66.66,0,0,0-.5.19h0l-.25-.22a1.15,1.15,0,0,0-1.18-.27l0,0a1.1,1.1,0,0,0-.2-.31h0a.62.62,0,0,0,.49-.23l.2,0a1.43,1.43,0,0,0,1.25-.65.67.67,0,0,0,0-.67.64.64,0,0,0-.6-.31h-.19l-.27,0-1.07,0-.5,0-.46,0a1,1,0,0,0-.58.17s0,0-.2,0a1.54,1.54,0,0,0-1.06.09,1.14,1.14,0,0,1-.5.1l-.37,0a2.51,2.51,0,0,1-.66,0l-.48,0h-.89a.68.68,0,0,0-.44.17h0a.63.63,0,0,0-.22.82l0,.05c-.06.06-.13.12-.19.19a1,1,0,0,0-1,.51,4.87,4.87,0,0,1-2.81-.75.65.65,0,0,0-.06-.41.6.6,0,0,0-.5-.35l-.31-.05c-.23,0-.45-.06-.69-.07h-1.9a1.62,1.62,0,0,0-.53.14l-.1,0c-.52.08-1.05.15-1.57.21l-.57.07c-.32,0-.42,0-.48-.16a.65.65,0,0,0,0-.75h0a1.7,1.7,0,0,0-.71-1.11l-.23-.17a3,3,0,0,0-1.83-.78,2.57,2.57,0,0,0-1.52-.16c0-.12-.07-.24-.11-.36l-.12-.38c0-.05,0-.1,0-.14a5.12,5.12,0,0,0-.21-.58,1.11,1.11,0,0,0-1.54-.49l-.07,0a1.61,1.61,0,0,0-.82.89,1.23,1.23,0,0,0,.05,1.07v0a1,1,0,0,0,.09.53l-.48.18h0l-.05,0a3.82,3.82,0,0,0-1.93.63,1.1,1.1,0,0,0-.21.14.47.47,0,0,0-.09.06.75.75,0,0,0-.42,0l-.09-.1-.27-.23a1.19,1.19,0,0,1-.19-.16,1.9,1.9,0,0,1-.13-.3l.16,0h.06a2.49,2.49,0,0,0,1.21-.42A.76.76,0,0,0,169,199v0a.63.63,0,0,0-.07-.55.64.64,0,0,0-.48-.29h0a1.2,1.2,0,0,0-.46,0l-.76.23-.16.05-.13,0a2.08,2.08,0,0,0-1.52,1.14,2.72,2.72,0,0,1-.24.42l-.09.17a.43.43,0,0,0,0,.07,1.11,1.11,0,0,0-.78.47,3,3,0,0,0-.31.48l0,.08-.26.44-.05.1-.07.13,0,0a2.56,2.56,0,0,0-.6,1.6,1.43,1.43,0,0,1,0,.16,1.7,1.7,0,0,0-.06.28c0,.12,0,.23-.05.34a2.11,2.11,0,0,1,0,.26v0l-.16.29a1.64,1.64,0,0,1-.37.53.69.69,0,0,0-.2.23l-.08.16-.3.55a.77.77,0,0,0,0,.68.72.72,0,0,0,.9.37l.44-.16a.94.94,0,0,0,.52.32,3.74,3.74,0,0,0,1,2,1.91,1.91,0,0,1,.06.21l0,.1a.43.43,0,0,1,0,0,1.33,1.33,0,0,0-.27.92c0,.33,0,.66,0,.94a1,1,0,0,0,.78,1l.17,0A1.43,1.43,0,0,0,166.8,214l.13,0a1.57,1.57,0,0,1,.63,0,4.25,4.25,0,0,0,.78,0h.23a.82.82,0,0,0,.47.19,1,1,0,0,0,.75-.35.61.61,0,0,1,.17,0h0c.17,0,.31,0,.61.22l.17.09a1.08,1.08,0,0,0,.82.14c.21.28.42.54.63.8l.23.28c.09.12.19.23.29.34a6.44,6.44,0,0,1,.49.64.92.92,0,0,0,.8.49l.12.1a.65.65,0,0,0,1-.35l.26.05.26.06.12,0a2,2,0,0,0,1.09,0l.07,0h0a1.76,1.76,0,0,0,1-.07,1,1,0,0,0,.78-.13l0,0,.14-.07.08,0a.55.55,0,0,1,.25,0,1.87,1.87,0,0,0-.54,1.38,1.18,1.18,0,0,0-.62.81,1.79,1.79,0,0,0,0,.77,2.23,2.23,0,0,1,0,1,1.44,1.44,0,0,0,.1,1.11c.06.12.06.14.05.16a1.13,1.13,0,0,0,.2.9,1.18,1.18,0,0,0,.19.24,2.47,2.47,0,0,0,.1.55,1.06,1.06,0,0,0,.49.7l.13.06a1.48,1.48,0,0,0,.19.41c-.23.21-.48.42-.72.62l-.47.4a1,1,0,0,0-.2.22l-.08.1a.67.67,0,0,0-.08.68.64.64,0,0,0,.58.36H179a.85.85,0,0,0,.45.39l.16.06.27.26.25.22a.87.87,0,0,0,0,.43,1,1,0,0,0,.13.33.52.52,0,0,1,.06.18,2.7,2.7,0,0,0,.29.91,2.28,2.28,0,0,1,.13.28,2.93,2.93,0,0,1,.1.37,2.36,2.36,0,0,0,.62,1.28c.3.28.62.57,1.06.93l.08.07a1.64,1.64,0,0,0,1.13.48h0a1.68,1.68,0,0,0,1.3-.54l0,0a1.09,1.09,0,0,0,0,.33.71.71,0,0,0,.44.44,1,1,0,0,0,.32.06.64.64,0,0,0,.36-.1,1.36,1.36,0,0,0,.48-.46.82.82,0,0,0,.09-.19.87.87,0,0,0,.3-.1.91.91,0,0,0,.42-.71h0l.46-.21.07,0a1.2,1.2,0,0,0,1.12-.47,1.53,1.53,0,0,1,.18-.18.69.69,0,0,0,.62-.09l.1-.06a1.55,1.55,0,0,0,.84-1.39,3.6,3.6,0,0,0,1.11-.45,1.1,1.1,0,0,0,1-1.21.92.92,0,0,0-.22-.68,1.13,1.13,0,0,0-.84-.3l-.92,0a.31.31,0,0,0,0-.1,1.86,1.86,0,0,0-.57-1.37l0,0c-.11-.14-.11-.3-.09-.66,0-.07,0-.14,0-.21a2.19,2.19,0,0,0-.07-.73.65.65,0,0,0,.54-.12.54.54,0,0,1,.24,0l.2,0h0a.8.8,0,0,0,.71.27.69.69,0,0,0,.35-.14c.28.29.54.52.78.73a1.05,1.05,0,0,0,.95.19,1.1,1.1,0,0,0,.72-1.36.81.81,0,0,0,.51-.33l.07,0a1.3,1.3,0,0,0,.84.12,2,2,0,0,0,.32-.12l.09,0a.78.78,0,0,0,.76-.24.13.13,0,0,1,.11,0,.89.89,0,0,0,1-.56.79.79,0,0,0,.5-.3,1.49,1.49,0,0,0,.47,0,1.1,1.1,0,0,0,.81-.72,1.53,1.53,0,0,0,.94-1h0a1.57,1.57,0,0,0,.23-.09l0,.05a1.66,1.66,0,0,0,0,.33.66.66,0,0,1-.18.44,1,1,0,0,0-.16.94.82.82,0,0,0,.62.52l.41.05a1.63,1.63,0,0,1,.34.05,1.23,1.23,0,0,0,.08.4.91.91,0,0,0,.27.37s0,.06,0,.09l0,.06a.72.72,0,0,0-.17.22.93.93,0,0,0-.37.24l0,0a.92.92,0,0,0-.38.65.8.8,0,0,0,.19.54c0,.14-.09.29-.13.44l-.06.13a2.25,2.25,0,0,0-.13.37,6.18,6.18,0,0,0-.13.79,1.49,1.49,0,0,0,0,.59.8.8,0,0,1,0,.18,1.92,1.92,0,0,0,.15.52.87.87,0,0,0-.06.32.64.64,0,0,0,.28.48l.06.05a1.44,1.44,0,0,0,.34.21,1.19,1.19,0,0,1,0,.22.57.57,0,0,0,0,.12v.12a1.15,1.15,0,0,0,.51,1.18.43.43,0,0,0,.12.11c.15.12.3.22.43.31l.16.09a2.22,2.22,0,0,0,1.05.66,1.6,1.6,0,0,1,.29.11l0,0a1.36,1.36,0,0,0,.27.24l.44.26.36.21a.78.78,0,0,0,1.25-.67c0-.13,0-.25,0-.36a1.6,1.6,0,0,1,0-.31v0a2.2,2.2,0,0,0,.67-1.63v0c0-.15,0-.18,0-.2l0,0,.05-.08a1.05,1.05,0,0,0,.6-.81,1.51,1.51,0,0,0,0-.54c0-.11,0-.21.07-.31a.6.6,0,0,1,.09-.27.8.8,0,0,0,.2-.77Zm-4.72,4.18-.19-.13a.75.75,0,0,0-.2-.2v0c0-.06,0-.12,0-.19a2,2,0,0,0-.06-.8l3.7-3.25a.81.81,0,0,0,.25.93l.09.42a.85.85,0,0,0-.08.17Zm0-7.12,0-.1v-.05a.71.71,0,0,0-.06-.24l1.84-1.62a3.12,3.12,0,0,0,.51.55l.15.14.1.09-2.55,2.24A1.42,1.42,0,0,0,204.21,222.6Zm-1.07,4.59a.88.88,0,0,1,0-.2c0-.08,0-.18-.06-.28v-.1a6.29,6.29,0,0,1,.11-.65.58.58,0,0,1,.06-.15l0-.06,3.56-3.12a.71.71,0,0,0,.16.36,1.07,1.07,0,0,1,.2.51,2.64,2.64,0,0,0,.12.44v0l-3.9,3.43A.64.64,0,0,0,203.14,227.19Zm3.56-13.74a.59.59,0,0,1,0,.08l0,.05a2.2,2.2,0,0,0-.33,1.86l-3.79,3.33a1.29,1.29,0,0,0-.2-.21l0-1.77,0-.11,4.29-4.29,0,.09a2.6,2.6,0,0,1,.09.76Zm-1.34-2.4.45.4.15.14-4.1,4.1a14.21,14.21,0,0,1-.53-1.57l3.7-3.45a1.55,1.55,0,0,0,.3.35Zm-2.11-1.35.26-.15.08-.06a6.23,6.23,0,0,0,.56.35c.08,0,.12.08.19.12l-3.27,3c0-.27-.07-.54-.09-.82a3,3,0,0,1,1.28-2.86,1.37,1.37,0,0,1,.18.16A.63.63,0,0,0,203.25,209.7Zm-31.12-11.14s0-.06.12-.11.05.14.07.22,0,.08,0,.13l-.16,0a.82.82,0,0,0-.09-.19A.31.31,0,0,0,172.13,198.56Zm-4.64,5.25a3.35,3.35,0,0,0,.35.47,1,1,0,0,1,.15.26,2.25,2.25,0,0,0,.41.61l.07.11s0,.16,0,.24,0,.15,0,.23a.7.7,0,0,1-.17.48.84.84,0,0,1-.47.29v-.08a.92.92,0,0,0-.44-.76,1.28,1.28,0,0,0-.21-.14l-.09-.06a.79.79,0,0,0-.28-.54C167,204.54,167.24,204.17,167.49,203.81Zm33.62,14.72-.14.06-.17,0h-.15a.66.66,0,0,0-.43.25.64.64,0,0,0-.13.48c0,.07,0,.16-.18.24a1.1,1.1,0,0,0-.71.65h-.08l-.24,0h-.26a.62.62,0,0,0-.5.25.46.46,0,0,0-.09.15.93.93,0,0,0-.59.5,1.39,1.39,0,0,0-.72.27,1.6,1.6,0,0,0-.63.16l-.05,0-.09,0-.14-.05a1.23,1.23,0,0,0-.87-.1,1,1,0,0,0-.48.39h-.05a.89.89,0,0,0-.74.32.82.82,0,0,0-.18.62l-.39-.39a1,1,0,0,0-.86-.33.86.86,0,0,0-.35.15,1.39,1.39,0,0,0-.77-.07l-.14,0-.31,0a1.36,1.36,0,0,0-1.52-.65l-.17,0h0l-.05,0-.07-.06a1.22,1.22,0,0,0-.29-.23.85.85,0,0,0-.92.09.79.79,0,0,0-.1,1.08l.25.32.23.31a2.91,2.91,0,0,0,1,.91l.08.05a2.08,2.08,0,0,1,0,.25c0,.06,0,.12,0,.18a2,2,0,0,0,.38,1.56l0,0c.17.21.29.35.28.47s0,.23-.06.39,0,.19-.05.29a.67.67,0,0,0,.13.51.66.66,0,0,0,.47.23l.49,0,.31,0a5.77,5.77,0,0,1-.77.22.82.82,0,0,0-.62.67,1.81,1.81,0,0,0-.05.56v0a.45.45,0,0,1-.07.07l-.14-.05a.65.65,0,0,0-.58.15l-.17.16a4,4,0,0,0-.48.45.71.71,0,0,0-.43,0l-.28.12c-.25.11-.51.22-.76.36a.94.94,0,0,0-.41.56l-.18.07a1.25,1.25,0,0,0-.84-.28,1.64,1.64,0,0,0-1.22.59.41.41,0,0,1-.35.12c-.08,0-.1,0-.28-.17l-.11-.09c-.41-.34-.71-.61-1-.87a1.2,1.2,0,0,1-.25-.62,4.55,4.55,0,0,0-.16-.56,3.34,3.34,0,0,0-.17-.38,1.56,1.56,0,0,1-.17-.44,1.53,1.53,0,0,0-.18-.63.2.2,0,0,0,0-.08,1.06,1.06,0,0,0-.4-1.06l0,0-.23-.22-.4-.36a.79.79,0,0,0-.26-.15,1.06,1.06,0,0,0-.17-.26l.5-.43a4.12,4.12,0,0,0,.49-.55.76.76,0,0,0,.11-.68.73.73,0,0,0-.41-.48.5.5,0,0,1,0-.14.86.86,0,0,0-.36-.64.67.67,0,0,0-.27-.12c0-.05,0-.1,0-.14a.63.63,0,0,0-.16-.64,1.35,1.35,0,0,0-.12-.12l-.12-.11a1.47,1.47,0,0,0-.19-1s0,0,0-.17a3.49,3.49,0,0,0,0-1.61,1.57,1.57,0,0,1,0-.2,1.17,1.17,0,0,0,.66-1.15.64.64,0,0,1,.33-.6.84.84,0,0,0,.27-.92,2.32,2.32,0,0,0-.13-.37c0-.05,0-.1-.07-.16a.71.71,0,0,0-.26-.31,2.12,2.12,0,0,0-1.31-.31,1.37,1.37,0,0,0-.46.15l-.08,0-.12,0a.93.93,0,0,0-.56.05.51.51,0,0,1-.39,0,1.18,1.18,0,0,0-.75.07l0,0a.94.94,0,0,1-.39,0l-.14,0-.25,0-.53-.11a1,1,0,0,0-.84.24h-.11c-.16-.23-.34-.44-.51-.64l-.26-.3c-.08-.1-.15-.2-.23-.29-.24-.3-.47-.58-.68-.87a1,1,0,0,0-1.19-.4l-.09-.06a2.12,2.12,0,0,0-1.49-.38h0a1.68,1.68,0,0,0-.68.25,1.11,1.11,0,0,0-.36-.06h-.37a2.71,2.71,0,0,1-.51,0,2.7,2.7,0,0,0-1.15.05l-.11,0c-.05,0-.09,0-.11,0a.15.15,0,0,1,0-.12.85.85,0,0,0-.17-.66.89.89,0,0,0-.62-.33h-.13c0-.24,0-.5,0-.77v-.06a.64.64,0,0,0,.29-.61.76.76,0,0,0,0-.15,2.88,2.88,0,0,0-.06-.47l0-.08a1.61,1.61,0,0,0-.38-.78,2.61,2.61,0,0,1-.66-1.51,1,1,0,0,0-.38-.71.84.84,0,0,0-.35-.13h0a.64.64,0,0,0-.35-.45l-.07,0,.16-.28a1.88,1.88,0,0,1,.14-.24,1.51,1.51,0,0,0,.17-.49l0-.32a1.93,1.93,0,0,1,0-.27,1.31,1.31,0,0,1,0-.15,1.61,1.61,0,0,0,.08-.49,1.28,1.28,0,0,1,.34-.82,1.54,1.54,0,0,0,.15-.27.08.08,0,0,0,0-.05l.06-.1.24-.41.05-.08a2.22,2.22,0,0,1,.21-.32h0a1.23,1.23,0,0,0,.93-.72v0a1.51,1.51,0,0,0,.39.49.68.68,0,0,0,.07.44,1.62,1.62,0,0,1,.1.18c.09.14.17.3.25.44s-.05.21-.09.23a1.19,1.19,0,0,0-.37.34l-1,1.51a.85.85,0,0,0,.18,1.18l0,0,.07.08a1.18,1.18,0,0,0,.56.76.63.63,0,0,0,.06.38l.06.1a1.08,1.08,0,0,0,.37.66,1.1,1.1,0,0,0,.85.16,2.41,2.41,0,0,0,1.55-.78,2,2,0,0,0,.47-1.17l0-.16a1.59,1.59,0,0,0-.12-1.08.63.63,0,0,0-.27-.4.84.84,0,0,1-.18-.28,2.28,2.28,0,0,0-.36-.56,1.55,1.55,0,0,1-.21-.3l0,0a1,1,0,0,0-.24-.71.64.64,0,0,0,.2-.2l.06-.11a1.69,1.69,0,0,0,.54-.27l.1-.07a2.68,2.68,0,0,1,1.31-.47h0a1.21,1.21,0,0,0,.44-.09h0l.8-.29a1.22,1.22,0,0,0,.26-.14l0,0,.17-.1.09,0,.06,0a1.12,1.12,0,0,0,.53.11.65.65,0,0,0,.43-.19,1.06,1.06,0,0,0,.4,0l.09,0a1.6,1.6,0,0,1,.93,0,1.2,1.2,0,0,0,.52.12h0a1.83,1.83,0,0,1,1.06.52l.26.2c.19.13.19.23.19.27v.08a1.17,1.17,0,0,0,0,.91,1.64,1.64,0,0,0,1.86,1l.56-.07,1.6-.21a2.11,2.11,0,0,0,.42-.13l.09,0c.53,0,1.11,0,1.79,0h.21a.69.69,0,0,0,.13.2,5.37,5.37,0,0,0,2.6,1.29,6,6,0,0,0,1.49.13h.23a1,1,0,0,0,.82-.51h0a1.16,1.16,0,0,0,.85-.39,3.38,3.38,0,0,1,.35-.31,2,2,0,0,0,1.51-.12.65.65,0,0,0,.31-.38l.25,0a2.37,2.37,0,0,0,1-.24l.17,0s0,.06,0,.09l.11.33a.65.65,0,0,0,.43.41l.07,0s0,.09,0,.14a.66.66,0,0,0,.32.44.69.69,0,0,0,.28.08l0,.07a2,2,0,0,0,.08.27.82.82,0,0,0,.7.59,1,1,0,0,0,.72-.29,2.19,2.19,0,0,1,.22.2l.14.15.09.09a.65.65,0,0,0,.53.2.67.67,0,0,0,.28-.1,1,1,0,0,0,.45,0,2.83,2.83,0,0,0,.23.28.65.65,0,0,0,.47.2,1.1,1.1,0,0,0,.62.21h0a.6.6,0,0,0-.16.19.65.65,0,0,0-.07.41.83.83,0,0,0-.08.22.65.65,0,0,0-.45.52v.08a.7.7,0,0,0,.07.41l-.12.33a.65.65,0,0,0,.3.79l.71.37a.63.63,0,0,0,.65,0,.62.62,0,0,0,.24-.27,3,3,0,0,1,.4,0l.38,0h.06a4.15,4.15,0,0,0-.88,3,13.86,13.86,0,0,0,1.33,4.66l0,1.53Zm1.74,1.6s0,0,0-.06a2.06,2.06,0,0,0,.07-.25s0-.06,0-.09l3.46-3a7.74,7.74,0,0,1-.13,1.11l-.2,0-.08,0a.62.62,0,0,0-.46.44.66.66,0,0,0,.14.63c.08.08.1.1,0,.25a.68.68,0,0,0-.08.4l-1.89,1.66a.81.81,0,0,0-.49-.3l-.12,0-.39-.09A1.64,1.64,0,0,0,202.85,220.13Zm3.62,10.15a1.3,1.3,0,0,0-.28.67l-.06,0,0,0a1.22,1.22,0,0,0-.33-.28,3.25,3.25,0,0,0-.5-.2l-.2-.09,2-1.72a1.48,1.48,0,0,0-.18.9v0C206.88,229.77,206.74,230,206.47,230.28Z"/><g id="LkLzQj.tif"><path class="cls-1" d="M172.08,0c95.23.14,172.36,77.38,172.14,172.39C344,267.7,266.71,344.85,171.78,344.51,76.29,344.17-.17,267,0,171.05.16,77,77.77-.14,172.08,0Zm155.1,126.82c-1.08-8.91-2.06-10-9.5-11.24a21.6,21.6,0,0,0-2.71-.53,6.64,6.64,0,0,1-6.61-5.12,3.57,3.57,0,0,0-3.78-2.81c-5.72-.21-10.86-1.74-14.71-6.43-.62-.76-2.29-1.06-3.4-.93-8.58,1-16.81,2.89-23,9.68a22.75,22.75,0,0,1-4.59,3.68,12.07,12.07,0,0,1-4.33,1.92c-3.75.63-7.56,1-11.35,1.36-3,.3-4.85-1.17-5.67-4-.94-3.22-1.82-6.45-2.71-9.67-1.91-6.86-.49-8.86,6.61-9.29,5.14-.31,8.57-3.85,8.18-8.92a5.19,5.19,0,0,0-2.4-3.47c-2.4-1.34-5.29-1.84-7.58-3.32-1.42-.91-2.87-3-2.87-4.54s1.57-3.33,2.87-4.55c1-1,2.71-1.21,4.09-1.81C254.05,62.35,254,62.28,259.58,72c1.8,3.1,3.61,3.28,6.91,2.86,8.44-1.09,14.36-4.91,18.06-12.74,2.39-5.06,3.47-3.55-.94-7.52q-69.2-62.31-159-37.42c-5.92,1.64-11.59,4.14-18.09,6.49,2.44,2.17,4.28,3.56,5.82,5.23,2,2.13,4,2.52,6.8,1.72a86.86,86.86,0,0,1,11.51-2.42,7,7,0,0,1,4.53.82c3.42,2.3,2.95,14.18-.47,16.44a16.22,16.22,0,0,1-2.16,1.1c-1.54.71-3.1,1.4-4.66,2.1l1,.39c-.32,5.1-.71,10.2-.9,15.31a32.11,32.11,0,0,0,.58,5.13l1.15.33L141,59.28c-.44-.79-.62-1.21-.88-1.58-3.13-4.27-2.81-6.4,1.47-9.47q5.91-4.26,11.86-8.45c2.46-1.74,4.9-1.85,7.29.19,4.74,4.06,9.58,8,14.17,12.24,1.13,1,2.28,3.1,2,4.44-1.63,9,2.41,15.23,9.31,20.21a7.27,7.27,0,0,1,.75.72c2.38,2.3,2.45,4.83.73,7.5-1.38,2.14-2.9,4.19-4.21,6.36a6.59,6.59,0,0,1-6.34,3.34c-11-.1-22,0-33-.09a4.71,4.71,0,0,0-4.89,2.85c-2.88,5.58-6.34,10.76-11.41,14.64A51.32,51.32,0,0,0,109.55,138a8.12,8.12,0,0,1-.43.95c-2.32,4.78-6.5,5.12-9.66.76a68,68,0,0,0-4.19-5.94,4,4,0,0,0-3.35-1.15c-5.86,1.73-11.67,3.65-17.43,5.72a4.3,4.3,0,0,0-2.23,2.59,22.09,22.09,0,0,0-.89,6.15A4,4,0,0,0,72.89,150c5.16,3.32,10.39,6.28,17,5.47,3.27-.4,5.07,1.8,5.14,5.12,0,2.43-.09,4.86-.12,7.29-.09,5.66,2.46,7.38,7.83,5.27,4.41-1.73,8.78-3.55,13.24-5.13a6.88,6.88,0,0,1,4.31-.36c11,4.06,22.75,6.35,32.18,14.06a13.19,13.19,0,0,0,5.27,2.51c8.46,1.91,14.27,6.51,16.38,15.21.5,2.08,1.85,2.94,4.07,2.79,2.53-.17,5.1.11,7.63-.07a8.4,8.4,0,0,1,8,3.85c2.6,3.53,5.51,6.85,8.27,10.26,6.88,8.46,6.81,7.28,1.38,16.08s-9.9,17.71-9,28.43a16.15,16.15,0,0,1-.16,2.77c-.34,3.91-2.61,5.65-6.58,5.05-3-.46-6-.78-8.89-1.42-2.26-.5-3.21.18-3.41,2.44a22.63,22.63,0,0,1-8.53,16c-3.87,3.22-7.59,6.6-11.59,10.1A40.82,40.82,0,0,0,158,301c4.83,6.95,3.48,13.38-1.19,19.76-2.16,2.95-4.1,3.76-7.39,2.25-5.76-2.65-11.55-5.29-17.17-8.24a6.86,6.86,0,0,1-3.3-4c-3.33-16.35-8.62-32.43-7.27-49.49.36-4.49-.05-9,.1-13.53a4,4,0,0,0-2.6-4.28c-6.15-2.94-12.13-6.23-18.34-9-3.84-1.74-5.26-4.3-5-8.44.44-6-.08-12.1.79-18,1.53-10.39-2.17-18.31-8.45-26.45-5-6.49-10.36-10.32-18.27-11a6.9,6.9,0,0,1-1-.13c-8.07-1.76-16.46-2.49-23.13-8.35-2.1-1.85-3.36-3.64-3.29-6.43a103,103,0,0,0-.06-10.4,6.08,6.08,0,0,0-1.82-4.08c-4.47-3.35-7.36-7.47-8.19-13.08a3.71,3.71,0,0,0-2.13-2.61c-4.16-.82-8.4-1.28-12.65-1.88-.39,1-.71,1.57-.9,2.22a158.93,158.93,0,0,0-5.55,66.54c4.51,35.37,18.88,66.35,43.82,91.91,36.65,37.56,81.54,54.16,133.74,49.27,37.4-3.51,69.5-19.27,96.76-45.2,4.94-4.7,6.85-9.47,6.11-16.11-1-9.16-2.4-17.89-11.09-23.29a11.6,11.6,0,0,1-1.26-1.18c-2.77-2.33-2.95-5-1.17-8,2.51-4.29,4.78-8.72,7.4-12.94a5.32,5.32,0,0,0,.2-5.77,137.16,137.16,0,0,1-5.58-12.67,29.74,29.74,0,0,1-1.28-7.67c-.2-2.58,0-5.2,0-8.66-7.46.59-14.57,1-21.65,1.76-6.18.63-12.32,1.9-18.52,2.21-2.19.11-5-1.27-6.65-2.86-4.73-4.53-9.13-9.43-13.45-14.38a12.07,12.07,0,0,1-2.89-5.59c-.78-4.89-.9-9.89-1.48-14.82-.7-6-.41-6.87,5-9.42,2-.91,2.79-2,2.48-4.22-.49-3.54-.67-7.14-.85-10.71-.27-5.2.79-6.52,5.84-7.63,11.27-2.47,22.55-4.9,33.81-7.45a8.34,8.34,0,0,1,7.75,1.61,8.21,8.21,0,0,0,4.67,1.27,24.68,24.68,0,0,0,5.11-.85c15.9-3,15.81-2.73,30.85,2.43C314.52,125.25,320.71,125.63,327.18,126.82ZM21,113.69c4.32.67,8.16,1.66,12,1.78,5.41.16,7.79,2.81,8.72,7.89.49,2.72,1.3,6.37,3.25,7.66,6.95,4.6,8.72,10.81,7.69,18.47a5,5,0,0,0,0,2.4c.55,1.36,1.09,3.32,2.16,3.78,4.36,1.87,8.92,3.26,13.4,4.83l.48-1.16c-1.65-.94-3.28-1.94-5-2.81-2.75-1.42-3.7-3.65-3.2-6.62.81-4.78,1.73-9.54,2.35-14.35.43-3.36,2.25-5,5.35-5.95,6.62-2,13.24-4.1,19.75-6.44,5.88-2.12,11.66-4.77,14.92,4.19a23.61,23.61,0,0,0,1.66-3.12c1.6-5,4.76-8.81,8.69-12.22,7.69-6.68,15.16-13.6,19.51-23.12,1.48-3.24,4-4.36,7.54-4.32,11.1.14,22.2.1,33.3,0,1.07,0,2.13-.91,3.19-1.4-.49-.93-.73-2.22-1.5-2.75-6.76-4.64-9.46-10.89-8.23-19a5.34,5.34,0,0,0-1.48-3.91,59.2,59.2,0,0,0-7.38-6.29,3.68,3.68,0,0,0-3.18-.13,32,32,0,0,0-4.45,3.12c2.12,2.83,3.43,5.68.86,8.16C144.56,69,137.53,75.5,130.32,81.81c-2.62,2.29-5.75,1.26-7.5-1.93-1.22-2.23-2.14-4.62-3.35-6.85a14.11,14.11,0,0,1-1.61-9.29c.66-4.36,2-8.83-.25-13.27-1.46-3-1.83-6.12.88-9.35-5.69,2.77-8.72-1.07-12.08-4-2.33-2.08-4.8-4-7-6.23-1.85-1.89-3.34-1.92-5.67-.61A163.91,163.91,0,0,0,38.33,80.67,153.91,153.91,0,0,0,21,113.69Zm280.5,156a28.36,28.36,0,0,0,2.29-2.87c5.64-9.79,12.08-19.22,16.7-29.47,14.07-31.28,17-64,10.59-97.61-.45-2.37-1.39-3.47-4.06-3.47a73.13,73.13,0,0,1-30.54-6.55,12.2,12.2,0,0,0-6.37-.52c-6.17.83-12.3,2-18.44,3-2.85.47-5.42.25-7.73-1.92a4.68,4.68,0,0,0-3.65-.9c-8.94,1.81-17.83,3.84-26.75,5.7-2,.42-2.6,1.4-2.33,3.38.36,2.63.21,5.34.69,7.94.9,4.85-.88,8.11-5.33,10-1.94.81-2.59,2-2.07,4.07a15.92,15.92,0,0,1,.31,3.79c0,4.8,1.19,8.94,5.49,11.92a20.5,20.5,0,0,1,5.76,5.94c2.64,4.32,6.21,4.38,10.41,3.4a115.1,115.1,0,0,1,32.63-3c8,.45,10.69,2.41,9.91,10.21-.81,8.13,1.24,15.21,4.93,22.15,1,1.93,1.66,4.07,2.69,6,1.42,2.64,1.11,5-.4,7.49-2.28,3.75-4.25,7.69-6.56,11.42-1.21,2-1.17,3.37.76,4.63,7.16,4.67,9.43,11.83,10.13,19.82C300.67,265.72,301.05,267.29,301.46,269.64ZM101.9,184.28c6,4.38,5.07,10.07,4.9,15.6-.24,7.62-.4,15.25-.74,22.87a3.86,3.86,0,0,0,2.58,4.24c6.15,2.91,12.15,6.15,18.32,9,3.45,1.61,5,3.82,4.91,7.79-.26,7.73-.1,15.48-.07,23.23,0,3.46-.36,7,.26,10.37,1.65,9,3.73,17.84,5.67,26.74.19.87.39,2.13,1,2.45,3.71,2,7.52,3.7,12.31,6a28.33,28.33,0,0,0-.9-4.57c-.95-2.23-2.08-4.38-3.2-6.53-5.13-9.84-5.15-9.85,4.26-15.9,8-5.16,14.47-11.4,15.2-21.68a17,17,0,0,1,.64-3c1.07-4,3-5.25,7.11-4.59,3.37.55,6.75,1,10.38,1.56.11-1.64.28-2.89.27-4.14,0-6.49,1.37-12.5,5.22-17.92a65.62,65.62,0,0,0,5.08-9.05,3.6,3.6,0,0,0,0-3c-4.95-7.46-10.31-14.34-20.94-11.6a7.15,7.15,0,0,1-1.39,0c-2.8.16-4.54-1.19-5.59-3.73s-2.43-4.77-3.19-7.29c-1.08-3.62-3.48-5.37-6.9-6.44-3-.93-6.23-1.75-8.56-3.62-8.07-6.46-17.71-9.26-27.19-12.51a6.55,6.55,0,0,0-4-.26C112.45,180,107.67,182,101.9,184.28Zm216.59-78.62,1-.84a156.14,156.14,0,0,0-25.39-39.13c-2.57,4-5,7.32-7,10.93a10.6,10.6,0,0,1-7.83,5.52C273.63,83.25,268,84.58,262.45,86a4.53,4.53,0,0,0-2.75,2.31c-2.74,6.81-5.07,13.89-15,15.39,1.51,1,2.47,2.22,3.12,2.07,2.49-.6,5.16-1.2,7.24-2.59,3.83-2.55,7.24-5.73,10.94-8.49a12.1,12.1,0,0,1,4.56-2.25c5.87-1.21,11.77-2.37,17.71-3.08,1.9-.23,4.66.39,5.86,1.69a19.35,19.35,0,0,0,14.63,6.52c3.95.05,6.52,1.72,7.74,5.58C316.8,104.12,317.81,104.84,318.49,105.66Z"/><path class="cls-1" d="M153.85,110.85A14.75,14.75,0,0,1,153,114c-4,6.69-8.82,12.7-16,16.34-2.56,1.3-5.11,1-6.69-1.56s-1.25-5.23,1.29-6.72c5.57-3.25,9.42-8,12.84-13.26a4.48,4.48,0,0,1,6.08-1.72C152.05,107.87,153,109.78,153.85,110.85Z"/></g><circle class="cls-2" cx="158.89" cy="209.63" r="73.24"/><path class="cls-1" d="M158.89,289.38a79.75,79.75,0,1,1,77.71-61.89h0A79.89,79.89,0,0,1,158.89,289.38Zm-.13-146.51a66.75,66.75,0,1,0,65.17,81.71h0a66.74,66.74,0,0,0-50.09-80A67.35,67.35,0,0,0,158.76,142.87ZM230.27,226h0Z"/><path class="cls-1" d="M245.12,361.51A16,16,0,0,1,231.54,354l-41.23-65.83a16,16,0,1,1,27.12-17L258.66,337a16,16,0,0,1-13.54,24.49Z"/><path class="cls-1" d="M209.44,228.28a1.83,1.83,0,0,0-.4-.68,3,3,0,0,0,0-1.52,14.18,14.18,0,0,0-.64-1.63l-.27-.63c-.07-.19-.14-.43-.21-.67a5.59,5.59,0,0,0-.9-2c0-.1,0-.2,0-.29,0-.62.05-1.26.05-1.9a2,2,0,0,0-.78-1.52c-.29-.25-.58-.47-.86-.69l-.35-.28c-.6-.48-.94-.82-1-1.26h0a3.22,3.22,0,0,0,.14-1.58,2.66,2.66,0,0,0,1-1.83,21.53,21.53,0,0,0,.2-3.58,12.25,12.25,0,0,0-.25-2.08l.05-.05-.09-.09a6.08,6.08,0,0,0-.33-1.17c-.19-.41.15-1.15.48-1.87l0-.11a2.91,2.91,0,0,0,.34-1.56c0-.18,0-.35,0-.52a8.14,8.14,0,0,0-.5-2.55,6,6,0,0,0-1.67-2.45c-.39-.33-.79-.63-1.17-.93l-1-.79-.1-.08-.23-.2a6.06,6.06,0,0,0-3.1-2.64,7.56,7.56,0,0,1-1.21-.68,1.64,1.64,0,0,0-1.06-.31,2.53,2.53,0,0,0-1.63.31c-1.46-1-3.61-1.46-5-.54a.86.86,0,0,0-.18.14l-.44,0-.66,0a1.78,1.78,0,0,0,.12-.29,2.1,2.1,0,0,0,.69-1.09,1.45,1.45,0,0,0-.44-1.55,1.62,1.62,0,0,0,.17-.88,2.37,2.37,0,0,0-.93-1.65,2.91,2.91,0,0,0-.64-.36,2,2,0,0,0-.7-.57,3,3,0,0,0-1.26-.25h-.08a1.79,1.79,0,0,0-1.16-.49,3.22,3.22,0,0,0-2.57-1.38,1.47,1.47,0,0,0-1.1.49h-.08c-.18-.15-.38-.3-.6-.46a2.52,2.52,0,0,0-2.68-.44.16.16,0,0,0,0-.07,2.79,2.79,0,0,0-.48-.67h.09a1.45,1.45,0,0,0,1.08-.6,3.73,3.73,0,0,1,.45-.08,3.23,3.23,0,0,0,2.69-1.63,1.44,1.44,0,0,0-1.45-2.12l-.44.06c-.24,0-.43.07-.59.08-.9.05-1.66.08-2.42.09-.36,0-.73,0-1.11,0h-1a2.16,2.16,0,0,0-1.27.46s-.07,0-.44,0A3.51,3.51,0,0,0,169,177a2.66,2.66,0,0,1-1.1.3c-.26,0-.53.07-.82.14a6,6,0,0,1-1.49,0c-.35,0-.71,0-1.08,0-.57,0-1.12.06-1.65.1l-.34,0a1.63,1.63,0,0,0-1,.44h0a1.45,1.45,0,0,0-.39,1.87l.07.12c-.14.14-.28.29-.41.44a2.37,2.37,0,0,0-2.19,1.29,11.32,11.32,0,0,1-2.61,0,11,11,0,0,1-3.8-1.27,1.46,1.46,0,0,0-.18-.91,1.42,1.42,0,0,0-1.17-.72l-.7-.05a13.65,13.65,0,0,0-1.57-.06c-1.62.05-3,.13-4.25.25a3.14,3.14,0,0,0-1.17.39l-.21.1c-1.16.24-2.34.47-3.49.68l-1.27.24c-.71.14-.94,0-1.11-.31a1.45,1.45,0,0,0-.07-1.67h0a3.72,3.72,0,0,0-1.73-2.38l-.55-.36a6.68,6.68,0,0,0-4.2-1.51,5.7,5.7,0,0,0-3.42-.14l-.3-.79-.32-.84-.12-.31a11,11,0,0,0-.53-1.26,2.46,2.46,0,0,0-1.58-1.22,2.43,2.43,0,0,0-2,.32l-.16.11a3.66,3.66,0,0,0-1.7,2.11,2.78,2.78,0,0,0,.25,2.39v0a2.4,2.4,0,0,0,.28,1.19l-1.06.45h0l-.1.05a8.8,8.8,0,0,0-4.24,1.67c-.17.12-.32.23-.45.34s-.13.11-.2.15a1.67,1.67,0,0,0-.94,0,2.28,2.28,0,0,0-.22-.22c-.22-.18-.44-.34-.63-.47a2.74,2.74,0,0,1-.45-.34,6.66,6.66,0,0,1-.33-.65,2.1,2.1,0,0,1,.37-.08l.13,0a5.68,5.68,0,0,0,1.25-.31,6,6,0,0,0,1.39-.77,1.88,1.88,0,0,0,.71-1.26v0a1.43,1.43,0,0,0-1.34-1.82h-.08a2.26,2.26,0,0,0-1,.07c-.57.19-1.12.41-1.66.61l-.35.14-.3.11a4.69,4.69,0,0,0-3.24,2.76,8.48,8.48,0,0,1-.47,1c-.07.13-.14.26-.19.38a1.19,1.19,0,0,1-.08.16,2.46,2.46,0,0,0-1.67,1.17,7.75,7.75,0,0,0-.65,1.11,1.62,1.62,0,0,0-.1.18c-.18.35-.35.7-.52,1l-.11.22c-.05.11-.09.21-.12.29l0,.11a5.72,5.72,0,0,0-1.11,3.67c0,.06,0,.23-.06.35s-.08.4-.11.64,0,.53,0,.78,0,.39,0,.57a.2.2,0,0,1,0,.05c-.12.23-.22.46-.33.68a3.59,3.59,0,0,1-.75,1.22,1.56,1.56,0,0,0-.41.56l-.17.36c-.2.41-.4.83-.59,1.26a1.83,1.83,0,0,0,.07,1.55,1.65,1.65,0,0,0,2.07.71l1-.44a2,2,0,0,0,1.2.65,8.39,8.39,0,0,0,2.41,4.24,4.13,4.13,0,0,1,.18.48,1.18,1.18,0,0,0,.07.2.36.36,0,0,1,0,.11,3.11,3.11,0,0,0-.48,2.1c.06.75.09,1.49.12,2.11a2.22,2.22,0,0,0,1.89,2.18l.37.05a3.24,3.24,0,0,0,1.1,1.76,3.16,3.16,0,0,0,2.79.64l.28-.07a3.75,3.75,0,0,1,1.4-.2,8,8,0,0,0,1.76,0l.51,0a1.82,1.82,0,0,0,1.09.36,2.11,2.11,0,0,0,1.63-.89l.39-.11h0c.37-.09.69,0,1.4.41l.38.19a2.43,2.43,0,0,0,1.86.2c.5.59,1,1.15,1.52,1.7l.55.6.69.73a12.19,12.19,0,0,1,1.2,1.36,2.05,2.05,0,0,0,1.86,1l.27.2a1.43,1.43,0,0,0,1.44.13,1.46,1.46,0,0,0,.82-1.05l.59.09.61.09.26,0a4.26,4.26,0,0,0,2.43-.16l.17-.07.08,0a4,4,0,0,0,2.21-.27,2.34,2.34,0,0,0,1.73-.4l.11-.06.32-.17.16-.09a1.56,1.56,0,0,1,.56,0,4.17,4.17,0,0,0-1,3.18,2.66,2.66,0,0,0-1.3,1.9,4.31,4.31,0,0,0,.15,1.71,5,5,0,0,1,.09,2.31,3.21,3.21,0,0,0,.37,2.49c.15.24.14.3.13.35a2.59,2.59,0,0,0,.56,2,3.25,3.25,0,0,0,.47.5,5.3,5.3,0,0,0,.3,1.22,2.49,2.49,0,0,0,1.18,1.51,1.6,1.6,0,0,0,.31.1,3,3,0,0,0,.49.91l-1.54,1.48-1,.95a3.16,3.16,0,0,0-.43.54l-.15.22a1.44,1.44,0,0,0,1.26,2.28l.38,0,.25,0h.24a2,2,0,0,0,1,.81,1.83,1.83,0,0,0,.37.11l.65.54.58.48a2.15,2.15,0,0,0,.15,1,5,5,0,0,0,.33.72,1.18,1.18,0,0,1,.17.38,5.44,5.44,0,0,0,.78,2c.12.22.23.42.32.61a6.24,6.24,0,0,1,.28.83,5.22,5.22,0,0,0,1.56,2.76c.71.6,1.48,1.2,2.5,2l.2.14a3.62,3.62,0,0,0,2.59.93h0a3.75,3.75,0,0,0,2.83-1.39l.06-.07a2.06,2.06,0,0,0,.16.73,1.57,1.57,0,0,0,1,.93,2.13,2.13,0,0,0,.72.09,1.66,1.66,0,0,0,.8-.27,2.86,2.86,0,0,0,1-1.1,3.25,3.25,0,0,0,.19-.44,1.75,1.75,0,0,0,.66-.27,2.1,2.1,0,0,0,.85-1.65h0c.31-.18.65-.35,1-.53l.15-.08a2.7,2.7,0,0,0,2.44-1.21,4.5,4.5,0,0,1,.37-.43,1.63,1.63,0,0,0,1.39-.28,1.66,1.66,0,0,1,.21-.16,3.44,3.44,0,0,0,1.69-3.22A8.37,8.37,0,0,0,172,238c.68-.11,2.12-.6,2.08-2.85a2.06,2.06,0,0,0-.61-1.49,2.57,2.57,0,0,0-1.92-.57l-2.05,0a1.48,1.48,0,0,0,0-.21,4.33,4.33,0,0,0-1.47-3l-.07-.08c-.27-.29-.29-.65-.29-1.46v-.48a4.71,4.71,0,0,0-.24-1.62,1.51,1.51,0,0,0,1.18-.35,1.73,1.73,0,0,1,.54-.15l.45-.08.08,0a1.82,1.82,0,0,0,1.64.52,1.71,1.71,0,0,0,.76-.36c.67.59,1.27,1.09,1.83,1.53a2.39,2.39,0,0,0,2.17.28,2.45,2.45,0,0,0,1.43-3.12,2,2,0,0,0,1.11-.84l.14,0a2.92,2.92,0,0,0,1.9.16,4.27,4.27,0,0,0,.7-.31l.21-.1a1.79,1.79,0,0,0,1.66-.64c.1-.11.13-.11.24-.1a2.16,2.16,0,0,0,1.7-.57,1.91,1.91,0,0,0,.5-.84,1.81,1.81,0,0,0,1.1-.74,3.59,3.59,0,0,0,1.06-.08,2.5,2.5,0,0,0,1.7-1.74,3.36,3.36,0,0,0,2-2.29l.06,0a4.08,4.08,0,0,0,.51-.23l.08.11a2.81,2.81,0,0,0-.06.74,1.5,1.5,0,0,1-.33,1,2.22,2.22,0,0,0-.24,2.13,1.83,1.83,0,0,0,1.46,1.08c.33,0,.63.05.92.06a5.9,5.9,0,0,1,.78.06,2.78,2.78,0,0,0,.23.9,2,2,0,0,0,.65.79l.07.19a1.21,1.21,0,0,0,0,.14,1.5,1.5,0,0,0-.35.51,2.34,2.34,0,0,0-.8.59l-.1.09a2.09,2.09,0,0,0-.74,1.52,1.78,1.78,0,0,0,.48,1.19c-.07.32-.15.65-.23,1a3.05,3.05,0,0,1-.11.3,4.62,4.62,0,0,0-.24.85,17.35,17.35,0,0,0-.19,1.79,3.29,3.29,0,0,0,.14,1.32c0,.1.07.24.1.39a5.11,5.11,0,0,0,.41,1.16,1.51,1.51,0,0,0-.09.7,1.48,1.48,0,0,0,.68,1.06.56.56,0,0,1,.15.1,3.34,3.34,0,0,0,.79.42,2.82,2.82,0,0,1,0,.49,1.17,1.17,0,0,0,0,.27v.27a2.6,2.6,0,0,0,1.32,2.59,2.13,2.13,0,0,0,.27.22c.37.25.7.46,1,.64a2.37,2.37,0,0,0,.38.17,4.77,4.77,0,0,0,2.43,1.34,6,6,0,0,1,.67.21l0,.05a3.18,3.18,0,0,0,.64.49c.35.2.7.36,1,.53l.84.42a1.76,1.76,0,0,0,2.71-1.67c0-.29,0-.56-.06-.8a6.38,6.38,0,0,1-.05-.7.21.21,0,0,1,0-.06,5.07,5.07,0,0,0,1.28-3.75l0-.12c0-.34,0-.4,0-.44l.06-.11.1-.17a2.4,2.4,0,0,0,1.23-1.9,3.3,3.3,0,0,0-.18-1.2c.06-.25.09-.49.12-.7a1.61,1.61,0,0,1,.15-.64,1.7,1.7,0,0,0,.35-1.73C209.8,229.58,209.63,228.93,209.44,228.28Zm-10,10L199,238a2,2,0,0,0-.5-.41.28.28,0,0,0,0-.09c0-.13,0-.27,0-.42a4.38,4.38,0,0,0-.23-1.8l7.83-7.77a1.84,1.84,0,0,0,.7,2c.09.32.17.63.25.93a3.47,3.47,0,0,0-.16.41Zm-1.05-15.95-.07-.21a.49.49,0,0,1,0-.12,1.48,1.48,0,0,0-.17-.54l3.92-3.88a7.11,7.11,0,0,0,1.2,1.17l.37.29.23.18-5.42,5.38A3,3,0,0,0,198.39,222.33Zm-1.77,10.42a2.87,2.87,0,0,1-.12-.43c-.05-.19-.1-.4-.17-.63a1.46,1.46,0,0,1,0-.21c0-.5.07-1,.15-1.49a1.8,1.8,0,0,1,.11-.33.65.65,0,0,0,0-.13l7.55-7.48a1.52,1.52,0,0,0,.43.78,2.34,2.34,0,0,1,.5,1.12c.09.3.19.63.32,1a.3.3,0,0,1,0,.08l-8.28,8.22A1.44,1.44,0,0,0,196.62,232.75Zm6.13-31.27-.08.19,0,.1a5,5,0,0,0-.49,4.23l-8,8a2.57,2.57,0,0,0-.47-.46l-.28-4-.08-.24,9-10.2a.93.93,0,0,1,.1.2,5.78,5.78,0,0,1,.31,1.7C202.72,201.17,202.73,201.32,202.75,201.48Zm-3.33-5.19c.35.29.7.56,1,.83l.37.3-8.64,9.75a35.3,35.3,0,0,1-1.4-3.45l7.83-8.23a4.25,4.25,0,0,0,.72.74Zm-4.93-2.75a3.39,3.39,0,0,0,.56-.38l.19-.13a12.92,12.92,0,0,0,1.3.7c.18.09.28.17.44.25l-6.91,7.26a18.42,18.42,0,0,1-.33-1.83,6.87,6.87,0,0,1,2.48-6.58,1.79,1.79,0,0,1,.43.34A1.43,1.43,0,0,0,194.49,193.54ZM123.25,172.8c0-.07.08-.14.25-.26l.18.47c0,.1.07.2.11.3l-.36.09a2.41,2.41,0,0,0-.22-.42A1.72,1.72,0,0,1,123.25,172.8Zm-8.93,7.95a17.38,17.38,0,0,0,2.08,2.47,7.23,7.23,0,0,1,.93,1.38,11.84,11.84,0,0,0,2.44,3.17,3.87,3.87,0,0,0,.39.61,6.3,6.3,0,0,1-.08,1.29c0,.4-.1.84-.12,1.32a4.08,4.08,0,0,1-.78,2.65,4.77,4.77,0,0,1-2.49,1.75V195a5.22,5.22,0,0,0-2.67-4c-.42-.28-.83-.51-1.19-.71-.16-.09-.38-.2-.54-.31a4.21,4.21,0,0,0-1.7-2.82C111.87,184.9,113.11,182.8,114.32,180.75ZM195,217s0-.09,0-.14a4.63,4.63,0,0,0,.11-.56,1.66,1.66,0,0,0,0-.22l7.34-7.27a20.4,20.4,0,0,1-.13,2.51,2.21,2.21,0,0,0-.45.13l-.17.06a1.43,1.43,0,0,0-1,1,1.44,1.44,0,0,0,.41,1.38c.19.17.23.21.06.57a1.66,1.66,0,0,0-.12.9l-4,4a2,2,0,0,0-1.13-.62l-.28-.06a6.11,6.11,0,0,0-.87-.15A4.15,4.15,0,0,0,195,217Zm9.49,22.26a3,3,0,0,0-.54,1.52l-.14-.08-.07-.06a2.73,2.73,0,0,0-.77-.57,9.94,9.94,0,0,0-1.15-.4c-.19-.05-.32-.1-.47-.15l4.18-4.14a3.47,3.47,0,0,0-.28,2v.11C205.35,238,205.07,238.46,204.51,239.24Z"/></g></g></svg>