<svg xmlns="http://www.w3.org/2000/svg" version="1.1" id="Layer_1" x="0" y="0" viewBox="0 0 277 91" xml:space="preserve">
  <style type="text/css" id="style833">
    .st1,.st3{fill-rule:evenodd;clip-rule:evenodd;fill:#006330}.st3{fill:#928440}
  </style>
  <g id="g857">
    <g id="Grupo_1">
      <g id="Grupo_4" transform="translate(68.914 15.138)">
        <text xml:space="preserve" style="line-height:1.25;-inkscape-font-specification:'Sinhala MN, Normal';font-variant-ligatures:normal;font-variant-caps:normal;font-variant-numeric:normal;font-variant-east-asian:normal" x="-5.696" y="43.737" id="text872" font-style="normal" font-variant="normal" font-weight="400" font-stretch="normal" font-size="32" font-family="Sinhala MN" fill="#928440" fill-opacity="1" stroke="none"><tspan id="tspan870" x="-5.696" y="43.737" style="-inkscape-font-specification:'Sinhala MN, Normal';font-variant-ligatures:normal;font-variant-caps:normal;font-variant-numeric:normal;font-variant-east-asian:normal" font-style="normal" font-variant="normal" font-weight="400" font-stretch="normal" font-size="32" font-family="Sinhala MN" fill="#928440" fill-opacity="1">Biodiversidad</tspan></text>
      </g>
      <g id="Grupo_5">
        <path id="Trazado_27" class="st1" d="M27.2 74.4c.4.3 1 .3 1.5.1.6-.3 1-.9 1-1.6.1-.9-.1-1.9-.6-2.7-.3-.9-.9-1.6-1.6-2.2-.1-.1-.2-.1-.3-.2V67c.5 0 .9 0 1.3.2.5.2 1 .4 1.4.8.4.4.7.8 1 1.3.2.4.3.9.4 1.3 0 .4 0 .9-.1 1.3-.1.6-.4 1.2-.8 1.7s-1 .9-1.6 1.1c-.5.2-1 .3-1.5.4h-.1zm-2-2.5c.3.9.9 1.6 1.6 2.2.1.1.2.1.3.2v.8c-1 0-2-.3-2.7-1-.4-.4-.7-.9-1-1.4-.2-.5-.4-1.1-.4-1.7 0-1.1.5-2.1 1.2-2.8.4-.4.8-.6 1.3-.8.5-.2 1-.3 1.5-.4h.1v.8c-.4-.3-1-.3-1.4-.1-.6.3-1 .9-1 1.5-.1 1 .1 1.9.5 2.7z"/>
        <path id="Trazado_28" class="st1" d="M55.4 78.4V78h.9l-.9-2.5v-1l.5-1.3h.3l2.6 6.8c.1.2.2.4.4.6.2.1.4.2.6.1v.4c-.3 0-.6 0-.9-.1-.3-.1-.6 0-.9 0h-.9c-.3 0-.6 0-.8.1v-.4l.4-.1c.1 0 .2 0 .3-.1.1 0 .1-.1.1-.2v-.1c0-.1 0-.1-.1-.3l-.5-1.6zm0-3.9v1l-.8 2s0 .1-.1.2v.1c0 .1 0 .1.1.1h.8v.4h-.7c-.1 0-.2 0-.4.1-.1.1-.1.2-.2.3l-.5 1.3c0 .1-.1.2-.1.3v.2c0 .1 0 .2.1.2.1.1.2.1.4.1h.4v.4c-.2 0-.3 0-.5-.1s-.4 0-.5 0h-.9v-.4c.2 0 .4-.1.5-.2.2-.2.3-.4.4-.6zm-3.1.8c.1-.3.1-.5 0-.7v-1.3h-.1v2zm-16 5.9-2.9-7c0-.1-.1-.2-.2-.3-.1-.1-.2-.1-.3-.1l-.3-.1v-.4c.3 0 .6.1.9.1h1.6c.2 0 .5 0 .9-.1v.3l-.5.1c-.1 0-.2 0-.3.1-.1 0-.1.1-.1.1V74.2l1.8 4.7 1.8-4.3c0-.1.1-.2.1-.3v-.2c0-.1 0-.2-.1-.2-.1-.1-.3-.1-.4-.1l-.5-.1v-.3h1.6c.2 0 .4 0 .7-.1v.4c-.2.1-.4.2-.5.3-.2.2-.3.4-.4.7l-2 4.8c-.1.2-.2.4-.3.7-.1.3-.2.6-.4 1zm16-7.9v2H52c0-.5-.2-.9-.5-1.2-.5-.3-1.1-.4-1.7-.4V80.3c0 .1 0 .1.1.2.1 0 .2.1.3.1l.8.1v.4c-.3 0-.7 0-1-.1-.3-.1-.7 0-1.1 0h-1.1c-.4 0-.7 0-1 .1v-.4l.9-.1h.2l.1-.1V73.7c-.6 0-1.1.1-1.6.4-.4.3-.6.8-.6 1.3h-.4v-2h5.8c.3 0 .6 0 1.1-.1zm0 7.4-.1.4h.1v-.4zm-11.7.4v-.4l.8-.1h.2s.1 0 .1-.1V73.9c0-.1 0-.1-.1-.2-.1 0-.2-.1-.3-.1l-.7-.1v-.3c.4 0 .8 0 1.1.1.3.1.6 0 .9 0h.9c.3 0 .7 0 1-.1v.3l-.8.1h-.2s-.1 0-.1.1v6.5c0 .1 0 .1.1.2.1 0 .2.1.2.1l.8.1v.4c-.3 0-.7 0-1-.1-.3-.1-.7 0-1 0h-1.1c-.4 0-.4.2-.8.2z"/>
        <path id="Trazado_29" class="st1" d="M20.3 81.1v-.4zm0-3.8c.2 0 .4.1.5.2.3.4.5 1 .5 1.5v.4c0 .5.1 1 .5 1.4.2.1.3.2.5.2.3.1.6.1.9.1h.5v-.3c-.4 0-.7-.4-.7-1.2v-.4c0-.6-.2-1.2-.6-1.6-.4-.4-1-.6-1.6-.6v-.1c.6-.1 1.1-.3 1.5-.6.3-.3.5-.8.5-1.2 0-.5-.2-1-.6-1.2-.5-.3-1.1-.5-1.7-.4h-.3v.4c.2 0 .5.1.6.3.3.3.5.7.4 1.2 0 .4-.1.9-.5 1.2l-.6.3zm-7-.3c.2-.1.4-.2.5-.3.3-.4.5-.9.5-1.3s-.1-.8-.4-1.2c-.2-.2-.4-.3-.6-.3v-.4c.6 0 1.2.2 1.7.5s.7.9.7 1.5-.2 1.2-.8 1.6c-.5.3-1.1.5-1.7.5zm7-3.6v.4c-.3-.1-.5-.1-.8-.1h-.3v3.1h.2c.3 0 .6 0 .9-.1v.5c-.3-.1-.7-.1-1-.1h-.1v3.3c0 .1 0 .1.1.2.1 0 .2.1.2.1l.7.1v.4c-.3 0-.6 0-.9-.1h-2c-.3 0-.6 0-.9.1v-.4l.8-.1h.2s.1 0 .1-.1v-6.5c0-.1 0-.1-.1-.2-.1 0-.2-.1-.3-.1l-.8-.1v-.4c.4 0 .8 0 1.1.1H20.3zm-7 7.7v-.4h.2v.4h-.2zm-1-4h.2c.3 0 .6 0 .8-.1v.5h-1V80.2c0 .2 0 .3.1.5.1.1.2.1.3.1h.7v.4H10.5c-.3 0-.7 0-1 .1v-.4l.7-.1h.2s.1 0 .1-.1v-6.6c0-.1 0-.1-.1-.2-.1 0-.2-.1-.3-.1l-.8-.1v-.4h3.8v.4c-.2 0-.4-.1-.6-.1h-.4z"/>
        <path id="Trazado_30" d="M44.7 70.4c.1.2.2.5.2.7-.1 0-.1 0-.2.1zm0-2.6c.2 1.2 1 2.2 2.1 2.7 4.8-.8 7.1-2.1 8-7.3-.8-1.2-8.5 2.2-10.1 3.4-.1-.1-.1 1.2 0 1.2zm0-3.8V49.6c.1-.9.1-1.7 0-2.6v-8c3.4-1.6 7-2.8 10.1-4.9.1 0 .2 0 .3-.1 0 .1.1.1.1.2h.4c.1 1.5.1 2.9 0 4.4.2.9.2 1.8.2 2.7.2.9.2 1.9.1 2.8.4.3.2 5.3.4 6.4-.9 1.7-.1 5-1 7-.1.9-.1 1.9 0 2.8-3.8 1.4-6.2 3.6-10.6 3.7zm0-27.5c3.2-.5 7.6-3.4 10.1-5.3 0-.7 0-1.4-.1-2.1-.5-.5-.1-4.7-.5-6 0-3.7-.6-10.5-4.8-10.8 0-.1-.1-.2-.1-.3-.4-.1-.4 0-.5-.2-1.3 0-2.4-.2-3.6-.2-.1-.1-.2-.3-.4-.3v14.4c.6 1 .9 2 .4 2.6l-.4.3v7.9zm-4.1 35.2c-.4-.2-.9-.3-1.3-.4v-2.9c.9-1.6 1.9-2.5 4-.7.5.8 1 1.7 1.4 2.6v.8c-1.4.5-2.7.7-4.1.6zm4.1-60.5v14.4c-1.1-1.9-3.6-4-5.4-3.8V11.6h2c0-.1.1-.1.1-.2h.1c.1.3.1.3.2.4.1-.1.2-.2.4-.2v.2c.2 0 .9-.1 1.1-.4.3 0 .9-.5 1.5-.2zm0 17.3v8.1c-.3 0-.5.1-.8.1-2.9-.2-3.6-4.1-2.4-6 1-.9 2-1.6 3.2-2.2zm0 10.5v8c0-.4-.2-.7-.4-.9-2-.4-3.5.5-5 .3v-4.1c.1-.1.1-.2.2-.3 1.6-1.2 3.3-2.2 5.2-3zm0 10.6V64h-.2c-2-1-1.9-1.4-1.9-3.4.2-1.1 1.7-7 2.1-11zm0 16.9c-.1 0-.1.1-.2.1 0 .4.1.8.2 1.1zm-5.5-.4c.6-1.9 1-3.9 1.2-5.9 0-1.4-.4-2.7-1.2-3.9zm0 5.2c-.3-.1-.5-.1-.6-.1V71c-.2 0-.4-.1-.5-.2.4-.8.8-1.7 1.2-2.4v2.9zm0-59.7v10.3c-.3 0-.6.1-.9.3-1.7.5-5.7 2.5-4.5 4.9 1.8 2 1.6 1.7 1 4.5-.6 1.5-1.4 4.5-3.5 4.5-.7-.4-1.4-.8-2.1-1.4V18.1c0-.1.1-.1.1-.2 1.5-1.3 2.8-5.8 5.2-5.5.5-.5 1-.3 1.7-.3.6-.4 1.9-.5 3-.5zm0 30.6v4.1c-.4-.1-.9-.2-1.2-.4-.2-1.4.3-2.7 1.2-3.7zm0 14.2c-.7-1-1.6-1.7-2.7-2.2-3.2-.5-6.2 2.4-7.2 5.7v4.6c.1.2.1.3.2.5.1 1.1.6 2.1 1.4 2.8 1.1 1.6 2.3 2 4.2 3.1 1.9 0 3.2-2.2 4-4.7zm-9.9-12.5v-3.6c.4 1.4.6 3 0 3.6zm0-27.8c1-1.2 1.8-2.8 1.6-3.2h-.5l-.1-.2c-.3 0-.7.1-1.1.2zm0-3.2v3.2c-.4.7-1.1 1.2-1.9 1.5-1.5-.7-2.3-2.3-2.2-4 .9-.5 1.9-.8 2.9-.6 0 0 0-.1.1-.1.4.1.8.1 1.1 0zm0 5.2v16.6c-3.9-3.4-5.1-10.2-1.7-14.2.2-.2.4-.4 1.7-2.4Zm0 22.2c-.1-.5-.3-1-.4-1.4-2.5-5-4.8-10.2-6.8-15.5-.1-.6-.3-1.2-.6-1.6v16.3c1.5 1.8 3.4 3.6 5 5.4 1.5.8 2.4.8 2.8.4zm0 19.6v4.6c-.5-1.5-.5-3.1 0-4.6zm-7.8 7.8V49c.7-.6 1.7-.8 2.6-.6 3.6 2.5 2.5 12.1 2.3 15.6-.3 1.3-2.9 1.1-4 2.5-.2.4-.5.8-.9 1.2zm0-48.7c.7.6 1.5 1.1 2.4 1.4 1.7 0 1.3-3.1 1.2-3.9-1.1-2.8-1-2.6-3.6-2.5v.1zm0-5v5c-1-1.1-2.1-2.1-3.3-3v-.3c.8-.9 2-1.3 3.2-1.3.1-.1.1-.2.1-.4zm0 7.8c-.3-.5-.7-.9-1-1.3-3.6-3.7-4.9-5.6-7-.8 0 .5.6 3.7.1 4.1 0 .5.1 1.1.2 1.6-.1 0-.3 0-.4.1v.2c.1 0 .2.1.2.1v.4c-.1 0-.2.1-.3.1 0 .7.1 1.4.5 2 .1 1.3-.2 10.3.2 10.7 0 .6.1 4.5-.5 4.9 0 .2 0 .4.2.5 0 2 .7 8.2-.3 9.2.1.1.1.1.4.1.1 1 0 2.5.1 3.6.3.2.6.4.9.5.6.4 2.5-4.1 2.5-4.2 1.2-3.8 3.1-8.3 3.1-12.2-.6-1.3-3.7-4.5-.1-4.5.2.4.5.7.8 1.1zm0 27.2v18.7c-.5.5-1.2.9-2 1-1.7-.7-3.2-1.7-3.2-3.5.8-2.9 1.6-13.4 5.2-16.2Z" fill-rule="evenodd" clip-rule="evenodd" fill="#b9853e"/>
        <path id="Trazado_31" class="st3" d="M26.8 74.2c.4.3 1 .3 1.5.1.6-.3 1-.9 1-1.5.1-.9-.1-1.9-.6-2.7-.3-.9-.9-1.6-1.6-2.2-.1-.1-.2-.1-.3-.2v-.8c.5 0 .9 0 1.3.2.5.2 1 .4 1.4.8.4.4.7.8 1 1.3.2.4.3.9.4 1.3 0 .4 0 .9-.1 1.3-.1.6-.4 1.2-.8 1.7-.8.9-1.9 1.4-3 1.5h-.1zm-2-2.4c.3.9.9 1.6 1.6 2.2.1.1.2.1.3.2v.8c-.5 0-.9 0-1.3-.2-.5-.2-1-.4-1.4-.8-.4-.4-.8-.9-1-1.4-.7-1.5-.4-3.3.8-4.5.4-.3.8-.6 1.3-.8.5-.2 1-.3 1.5-.4h.1v.8c-.4-.3-1-.3-1.5-.1-.6.3-1 .9-1 1.6 0 .9.2 1.8.6 2.6z"/>
        <path id="Trazado_32" class="st3" d="M55 78.3v-.4h.9l-.9-2.6v-1l.5-1.3h.3l2.6 6.8c.1.2.2.4.4.6.2.1.4.2.6.1v.5c-.3 0-.6 0-.9-.1-.3-.1-.6 0-.9 0h-.9c-.3 0-.7.1-.9.1v-.4h.4c.1 0 .2 0 .3-.1.1 0 .1-.1.1-.2v-.1c0-.1 0-.1-.1-.3l-.5-1.6Zm0-4v1l-.8 2c0 .1 0 .1-.1.2v.1c0 .1 0 .1.1.1s.2.1.3 0h.5v.4h-.7c-.1 0-.3 0-.4.1-.1.1-.1.2-.2.3l-.5 1.2c0 .1-.1.2-.1.3v.2c0 .1 0 .2.1.2.1.1.2.1.4.1h.4v.5c-.2 0-.3 0-.5-.1H52v-.4c.2 0 .4-.1.5-.2.2-.2.3-.4.4-.6zm-3.1.9c.1-.2.1-.5.1-.7v-1.3h-.1zm-16 5.9-2.9-7c0-.1-.1-.2-.2-.3-.1-.1-.2-.1-.3-.2l-.3-.1v-.4c.3 0 .6.1.9.1h1.6c.3 0 .5 0 .9-.1v.3l-.5.1c-.1 0-.2 0-.3.1-.1 0-.1.1-.1.1v.2l1.9 4.7 1.8-4.3c0-.1.1-.2.1-.3v-.2c0-.1 0-.2-.1-.3-.1-.1-.3-.1-.4-.1l-.5-.1V73h1.6c.2 0 .5 0 .7-.1v.4c-.2 0-.4.2-.5.3-.2.2-.3.4-.4.7l-2 4.8c-.1.2-.2.4-.3.7-.1.3-.2.6-.4 1zm16-7.9v2h-.3c0-.5-.2-.9-.6-1.2-.5-.3-1.1-.4-1.7-.4V80.2c0 .1 0 .1.1.2.1 0 .2.1.3.1l.8.1v.4c-.3 0-.7 0-1-.1h-2.2c-.4 0-.7 0-1 .1v-.4l.9-.1h.2l.1-.1V73.6c-.6 0-1.1.1-1.6.4-.4.3-.6.8-.6 1.3h-.4v-2h5.8c.3 0 .7-.1 1.2-.1zm0 7.4-.1.4h.1v-.4zm-11.7.4v-.4l.8-.1h.2l.1-.1v-6.6c0-.1 0-.2-.1-.2s-.2-.1-.3-.1l-.7-.1v-.3c.4 0 .8 0 1.1.1h1.8c.3 0 .7 0 1-.1v.4l-.8.1h-.2s-.1 0-.1.1c0 .2-.1.4 0 .6v5.9c0 .1 0 .1.1.2.1 0 .2.1.2.1l.8.1v.4c-.3 0-.7 0-1-.1-.3-.1-.7 0-1 0H41c-.1.1-.4.1-.8.1Z"/>
        <path id="Trazado_33" class="st3" d="M19.9 81v-.4zm0-3.9c.2 0 .4.1.5.3.3.4.5 1 .5 1.5v.4c0 .5.1 1 .5 1.4.2.1.3.2.5.2.3.1.6.1.9.1h.5v-.3c-.4 0-.7-.4-.7-1.2v-.4c0-.6-.2-1.1-.6-1.6-.4-.4-1-.6-1.6-.6v-.1c.6 0 1.1-.3 1.5-.6.3-.3.5-.8.5-1.2 0-.5-.2-1-.6-1.2-.5-.3-1.1-.5-1.7-.4h-.3v.4c.2 0 .5.1.6.3.3.3.5.7.4 1.2 0 .4-.1.9-.5 1.2l-.6.3zm-7-.3c.2-.1.4-.2.5-.3.3-.4.5-.8.5-1.3 0-.4-.1-.8-.4-1.2-.2-.2-.4-.3-.6-.3v-.4c.6 0 1.2.2 1.7.5s.7.9.7 1.5-.2 1.2-.8 1.6c-.5.3-1.1.5-1.7.5v-.6zm7-3.6v.4c-.3-.1-.5-.1-.8-.1h-.3v3.1h.2c.3 0 .6 0 .9-.1v.5c-.3-.1-.7-.1-1-.1h-.1v3.3c0 .1 0 .1.1.2.1 0 .2.1.2.1l.7.1v.4c-.3 0-.6 0-.9-.1h-2c-.3 0-.6 0-.9.1v-.4l.8-.1h.2l.1-.1v-6.5c0-.1 0-.1-.1-.2-.1 0-.2-.1-.3-.1H16v-.4c.4 0 .8 0 1.1.1h2.1c.3-.1.5-.1.7-.1zm-7 7.8v-.4h.2v.4h-.2Zm-1-4.1h.2c.3 0 .6 0 .8-.1v.5H11.8V80c0 .2 0 .3.1.5.1.1.2.1.3.1h.7v.4H9v-.4l.7-.1h.2l.1-.1v-6.5c0-.1 0-.1-.1-.2-.1 0-.2-.1-.3-.1H9v-.4c.2 0 .5 0 .7.1.2.1.5 0 .8 0h2.3v.4c-.2 0-.4-.1-.6-.1h-.5v3.3z"/>
        <path id="Trazado_34" d="M44.2 70.2c.1.2.2.5.2.7-.1 0-.1 0-.2.1zm0-2.5c.2 1.2 1 2.2 2.1 2.7 4.8-.8 7.1-2.1 8-7.3-.8-1.2-8.5 2.2-10.1 3.4zm0-3.8V49.5c.1-.9.1-1.8 0-2.6v-8c3.4-1.6 7-2.8 10.1-4.9.1 0 .2 0 .3-.1 0 .1.1.1.1.2h.4c.1 1.5.1 2.9 0 4.4.2.9.2 1.8.2 2.7.2.9.2 1.9.1 2.8.4.3.2 5.3.4 6.4-.9 1.7-.1 5-1 7-.1.9-.1 1.8 0 2.8-3.7 1.3-6.1 3.6-10.6 3.7zm0-27.5c3.2-.5 7.6-3.4 10.1-5.3 0-.7 0-1.4-.1-2.1-.5-.5-.1-4.6-.5-6 0-3.7-.6-10.5-4.8-10.8 0-.1-.1-.2-.1-.3-.4-.1-.4 0-.5-.2-1.3 0-2.4-.2-3.6-.2-.1-.1-.2-.3-.4-.3v14.4c.6 1 .9 2 .4 2.6-.1.1-.3.2-.4.3zm-4 35.1c-.4-.2-.9-.3-1.3-.4v-2.9c.9-1.6 1.9-2.5 4-.7.5.8 1 1.7 1.4 2.6v.9c-1.4.5-2.8.6-4.1.5zm4-60.4v14.4c-1.1-1.9-3.6-4-5.4-3.8V11.5h2c0-.1.1-.1.1-.2h.1c.1.3.1.3.2.4.1-.1.2-.2.4-.2v.2c.2 0 .9-.1 1.1-.4.4 0 1-.5 1.5-.2zm0 17.2v8.1c-.3 0-.5.1-.8.1-2.9-.2-3.6-4.1-2.4-6.1 1.1-.7 2.1-1.4 3.2-2.1zm0 10.6v8c0-.4-.2-.7-.4-.9-2-.4-3.5.5-5 .3v-4.1c.1-.1.1-.2.2-.3 1.7-1.3 3.4-2.2 5.2-3zm0 10.6v14.4H44c-2-1-1.9-1.4-1.9-3.4.3-1.1 1.8-7.1 2.1-11zm0 16.9c-.1 0-.1.1-.2.1 0 .4.1.8.2 1.1zm-5.4-.4c.6-1.9 1-3.9 1.2-5.9 0-1.4-.4-2.7-1.2-3.9zm0 5.2c-.3-.1-.5-.1-.6-.1v-.2c-.3 0-.5-.1-.5-.2.4-.8.8-1.7 1.2-2.4v2.9zm0-59.7v10.3c-.3 0-.6.1-.9.3-1.7.5-5.7 2.5-4.5 4.9 1.8 2 1.6 1.7 1 4.5-.5 1.4-1.3 4.5-3.4 4.5-.7-.4-1.4-.8-2.1-1.4V18c0-.1.1-.1.1-.2 1.5-1.3 2.8-5.8 5.2-5.5.5-.5 1-.3 1.7-.3 1-.5 2-.6 2.9-.5zm0 30.6v4.1c-.4-.1-.9-.2-1.2-.4-.2-1.4.3-2.8 1.2-3.7Zm0 14.1c-.7-1-1.6-1.7-2.7-2.2-3.2-.5-6.2 2.4-7.2 5.7v4.6c.1.2.1.3.2.5.1 1.1.6 2 1.4 2.8 1.1 1.6 2.3 2 4.2 3.1 1.9 0 3.2-2.2 4-4.7zm-9.9-12.4v-3.6c.4 1.4.6 2.9 0 3.6zm0-27.9c1-1.2 1.8-2.8 1.6-3.2H30v-.2c-.3 0-.7.1-1.1.2zm0-3.2v3.2c-.4.7-1.1 1.2-1.9 1.5-1.7-.7-2.2-2.5-2.2-4 .9-.5 1.9-.8 2.9-.6 0 0 0-.1.1-.1.4.1.8.1 1.1 0zm0 5.3v16.7c-3.9-3.4-5.1-10.2-1.7-14.2.2-.3.4-.5 1.7-2.5Zm0 22.2c-.1-.5-.3-.9-.4-1.4-2.5-5-4.8-10.2-6.8-15.4-.1-.6-.3-1.2-.6-1.6V38c1.5 1.8 3.4 3.6 5 5.4 1.5.8 2.4.8 2.8.4zm0 19.5v4.6c-.5-1.4-.5-3.1 0-4.6zm-7.8 7.8V48.8c.7-.6 1.7-.8 2.6-.6 3.6 2.5 2.5 12.1 2.3 15.6-.3 1.3-2.9 1.2-4 2.5-.2.5-.5.9-.9 1.2zm0-48.7c.7.6 1.5 1.1 2.4 1.5 1.7 0 1.3-3.1 1.2-3.9-1.1-2.8-1-2.6-3.6-2.5v.1zm0-4.9v4.9c-1-1.1-2.1-2.1-3.3-3v-.3c.8-.9 2-1.3 3.2-1.3 0-.1.1-.2.1-.3zm0 7.8c-.3-.4-.6-.9-1-1.3-3.6-3.7-4.9-5.6-7-.8 0 .5.5 3.7.1 4.1 0 .6.1 1.1.2 1.6-.1 0-.3 0-.4.1v.2c.1 0 .1.1.2.1v.4c-.1 0-.2.1-.3.1 0 .7.1 1.4.5 2 .1 1.3-.2 10.3.2 10.7 0 .6.1 4.5-.5 4.9 0 .2 0 .4.2.5 0 2 .7 8.2-.3 9.1.1.1.1.1.4.1.1 1 0 2.5.1 3.6.3.2.6.4.9.5.6.4 2.5-4.1 2.5-4.2 1.2-3.8 3.1-8.3 3.1-12.2-.6-1.3-3.7-4.5-.1-4.5.2.4.5.7.8 1.1zm0 27.1v18.7c-.5.5-1.2.9-2 1-1.7-.7-3.2-1.7-3.2-3.5.8-2.9 1.6-13.3 5.2-16.2z" fill-rule="evenodd" clip-rule="evenodd" fill="#fdbe57"/>
      </g>
    </g>
    <path id="rect855" fill="none" d="M0 0h277v91H0z"/>
  </g>
</svg>
